<svg
  width="20"
  height="23"
  viewBox="0 0 20 23"
  fill="none"
  xmlns="http://www.w3.org/2000/svg"
>
<path
    d="M10.277 5.23077C11.3125 5.23077 12.6104 4.5391 13.3833 3.61687C14.0833 2.7811 14.5937 1.6139 14.5937 0.446704C14.5937 0.288196 14.5791 0.129689 14.55 0C13.3979 0.0432295 12.0125 0.763721 11.1812 1.72918C10.525 2.46408 9.92704 3.61687 9.92704 4.79848C9.92704 4.97139 9.95621 5.14431 9.97079 5.20195C10.0437 5.21636 10.1604 5.23077 10.277 5.23077ZM6.63121 22.6667C8.04579 22.6667 8.67288 21.73 10.4375 21.73C12.2312 21.73 12.625 22.6378 14.2 22.6378C15.7458 22.6378 16.7812 21.2257 17.7583 19.8423C18.852 18.2573 19.3041 16.701 19.3333 16.6289C19.2312 16.6001 16.2708 15.4041 16.2708 12.0466C16.2708 9.13583 18.6041 7.82454 18.7354 7.72367C17.1895 5.53338 14.8416 5.47574 14.2 5.47574C12.4645 5.47574 11.05 6.51324 10.1604 6.51324C9.19788 6.51324 7.92913 5.53338 6.42704 5.53338C3.56871 5.53338 0.666626 7.86777 0.666626 12.2772C0.666626 15.015 1.74579 17.9114 3.07288 19.7847C4.21038 21.3698 5.20204 22.6667 6.63121 22.6667Z"
    fill="#6C727A"
  />
</svg>
