<svg viewBox="0 0 32 32" xmlns="http://www.w3.org/2000/svg">
  <path
    d="M9.04289 11.9571C8.65237 11.5666 8.65237 10.9334 9.04289 10.5429L15.0429 4.54289C15.4334 4.15237 16.0666 4.15237 16.4571 4.54289L22.4571 10.5429C22.8476 10.9334 22.8476 11.5666 22.4571 11.9571C22.0666 12.3476 21.4334 12.3476 21.0429 11.9571L16.75 7.66421L16.75 25.75L20.75 25.75C21.3023 25.75 21.75 26.1977 21.75 26.75C21.75 27.3023 21.3023 27.75 20.75 27.75L15.75 27.75C15.1977 27.75 14.75 27.3023 14.75 26.75L14.75 7.66421L10.4571 11.9571C10.0666 12.3476 9.43342 12.3476 9.04289 11.9571Z"
  />
</svg>
