<svg viewBox="0 0 32 32" xmlns="http://www.w3.org/2000/svg">
  <path
    d="M14 6H6V26H26V18H28V26C28 27.0357 27.2128 27.887 26.2041 27.9893L26 28H6L5.7959 27.9893C4.85435 27.8938 4.1062 27.1457 4.01074 26.2041L4 26V6C4 4.89543 4.89543 4 6 4H14V6Z"
  />
  <path
    d="M17.293 13.293C17.6835 12.9025 18.3165 12.9025 18.707 13.293C19.0975 13.6835 19.0975 14.3165 18.707 14.707L13.4141 20H16C16.5523 20 17 20.4478 17 21C17 21.5522 16.5523 22 16 22H11C10.941 22 10.8834 21.9932 10.8271 21.9834C10.8204 21.9822 10.8134 21.9818 10.8066 21.9805C10.8041 21.98 10.8014 21.98 10.7988 21.9795C10.766 21.9728 10.7337 21.9649 10.7021 21.9551L10.6162 21.9229C10.6143 21.9221 10.6122 21.9217 10.6104 21.9209C10.5209 21.883 10.4382 21.8324 10.3643 21.7715C10.3148 21.7307 10.2693 21.6852 10.2285 21.6357C10.2081 21.611 10.1889 21.5852 10.1709 21.5586L10.168 21.5537C10.142 21.5147 10.1195 21.4741 10.0996 21.4326C10.0927 21.4182 10.0844 21.4044 10.0781 21.3896C10.0654 21.3596 10.0547 21.3284 10.0449 21.2969C10.0443 21.2949 10.0436 21.293 10.043 21.291L10.0205 21.2012C10.0139 21.1688 10.0083 21.1359 10.0049 21.1025L10 21V16C10 15.4478 10.4477 15 11 15C11.5523 15 12 15.4478 12 16V18.5859L17.293 13.293Z"
  />
  <path
    d="M26.293 4.29297C26.6835 3.90246 27.3165 3.90245 27.707 4.29297C28.0975 4.6835 28.0975 5.31654 27.707 5.70703L25.4102 8.00293L27.707 10.2998C28.0975 10.6903 28.0974 11.3233 27.707 11.7139C27.3165 12.1044 26.6835 12.1043 26.293 11.7139L23.9961 9.41699L21.707 11.707C21.3165 12.0975 20.6835 12.0974 20.293 11.707C19.9025 11.3165 19.9025 10.6835 20.293 10.293L22.582 8.00293L20.293 5.71387C19.9025 5.32335 19.9025 4.69031 20.293 4.2998C20.6835 3.90942 21.3165 3.90937 21.707 4.2998L23.9961 6.58887L26.293 4.29297Z"
  />
</svg>
