<svg viewBox="0 0 32 32" xmlns="http://www.w3.org/2000/svg">
  <path
    d="M28 26C28 27.0357 27.2128 27.887 26.2041 27.9893L26 28H14V26H26V18H28V26Z"
  />
  <path
    d="M15.1025 16.0049C15.1236 16.007 15.1443 16.0112 15.165 16.0146C15.1738 16.0161 15.1827 16.0169 15.1914 16.0186L15.2012 16.0205C15.211 16.0225 15.2207 16.025 15.2305 16.0273C15.251 16.0322 15.2717 16.0368 15.292 16.043C15.3056 16.0471 15.3187 16.0529 15.332 16.0576C15.3494 16.0637 15.3667 16.0701 15.3838 16.0771C15.3927 16.0808 15.4014 16.0849 15.4102 16.0889C15.4318 16.0986 15.4535 16.1087 15.4746 16.1201L15.4766 16.1211C15.505 16.1365 15.5329 16.1529 15.5596 16.1709C15.6126 16.2068 15.6619 16.2479 15.707 16.293C15.7749 16.3609 15.8337 16.4384 15.8799 16.5234C15.8953 16.5518 15.9092 16.5814 15.9219 16.6113L15.9551 16.7031L15.9561 16.708C15.9611 16.7247 15.9646 16.7419 15.9688 16.7588C15.9879 16.8361 16 16.9167 16 17V22C15.9999 22.5522 15.5522 23 15 23C14.4478 23 14.0001 22.5522 14 22V19.4141L6.43457 26.9795C6.04407 27.3699 5.41101 27.3699 5.02051 26.9795C4.63009 26.589 4.6301 25.9559 5.02051 25.5654L12.5859 18H10C9.44784 17.9999 9.0001 17.5522 9 17C9.00008 16.4478 9.44783 16.0001 10 16H15C15.0346 16 15.0688 16.0015 15.1025 16.0049Z"
  />
  <path d="M14 6H6V18H4V6C4 4.89543 4.89543 4 6 4H14V6Z" />
  <path
    d="M26.2041 4.01074C27.2128 4.113 28 4.96435 28 6V13L27.9893 13.2041C27.8938 14.1457 27.1457 14.8938 26.2041 14.9893L26 15H19C17.9643 15 17.113 14.2128 17.0107 13.2041L17 13V6C17 4.89543 17.8954 4 19 4H26L26.2041 4.01074ZM19 13H26V6H19V13Z"
  />
</svg>
