<svg viewBox="0 0 32 32" fill="none" xmlns="http://www.w3.org/2000/svg">
<path
    fill-rule="evenodd"
    clip-rule="evenodd"
    d="M16 4C22.6274 4 28 9.37258 28 16C28 22.6274 22.6274 28 16 28C9.37258 28 4 22.6274 4 16C4 9.37258 9.37258 4 16 4ZM9.64043 23.7176C11.1273 24.9443 12.9748 25.7495 15 25.9506V17H11.7257C11.588 19.1237 10.979 21.4052 9.64043 23.7176ZM8.17697 22.2296C7.00963 20.7656 6.24463 18.9666 6.04938 17H9.71525C9.58837 18.6586 9.12964 20.4281 8.17697 22.2296ZM9.66724 8.26035C10.6356 9.93534 11.5322 12.2863 11.7205 15H15V6.04938C12.987 6.24924 11.1495 7.04608 9.66724 8.26035ZM8.20252 9.73849C8.92064 11.1108 9.55279 12.9273 9.7135 15H6.04938C6.24605 13.0191 7.02079 11.2082 8.20252 9.73849ZM22.3597 23.7175C20.8727 24.9442 19.0252 25.7495 17 25.9506V17H20.2745C20.4121 19.1236 21.0211 21.4052 22.3597 23.7175ZM23.8231 22.2295C24.9904 20.7655 25.7554 18.9666 25.9506 17H22.2849C22.4118 18.6585 22.8705 20.4281 23.8231 22.2295ZM23.7976 9.7386C23.0795 11.1109 22.4473 12.9273 22.2866 15H25.9506C25.754 13.0191 24.9792 11.2083 23.7976 9.7386ZM22.3329 8.26043C20.8506 7.04611 19.0131 6.24925 17 6.04938V15H20.2796C20.4679 12.2863 21.3646 9.93541 22.3329 8.26043Z"
  />
</svg>
