<svg viewBox="0 0 32 32" xmlns="http://www.w3.org/2000/svg">
	<path d="M15 26.9552V17H11.4689C11.3058 19.3046 10.5343 21.7956 8.7902 24.308C10.4849 25.78 12.6345 26.742 15 26.9552ZM7.37518 22.828C8.68798 20.8203 9.29854 18.8408 9.45536 17H5.04484C5.24231 19.1913 6.08238 21.1973 7.37518 22.828ZM11.4628 15H15V5.04484C12.6457 5.257 10.5052 6.21098 8.81419 7.67125C10.0108 9.34552 11.2296 11.9407 11.4628 15ZM7.40107 9.13942C6.09361 10.776 5.24362 12.7941 5.04484 15H9.45405C9.2479 12.5954 8.3379 10.5416 7.40107 9.13942ZM26.9552 17H22.4526C22.6111 18.8601 23.2328 20.8618 24.5743 22.8912C25.8957 21.2492 26.7551 19.2197 26.9552 17ZM17 26.9552C19.3388 26.7444 21.4666 25.8016 23.1523 24.3576C21.3838 21.8284 20.6033 19.3198 20.4391 17H17V26.9552ZM26.9552 15C26.7538 12.7661 25.8847 10.7247 24.5488 9.07714C23.5973 10.4805 22.6631 12.5595 22.4539 15H26.9552ZM20.4452 15C20.6807 11.9108 21.9211 9.29482 23.1289 7.6224C21.4468 6.18972 19.328 5.25463 17 5.04484V15H20.4452ZM29 16C29 23.1797 23.1797 29 16 29C8.8203 29 3 23.1797 3 16C3 8.8203 8.8203 3 16 3C23.1797 3 29 8.8203 29 16Z"/>
</svg>
