<svg viewBox="0 0 32 32" xmlns="http://www.w3.org/2000/svg">
  <path
    d="M8.67242 10.2099C7.29266 12.1339 6.82404 14.4695 6.82404 16.0133V16.0538L6.82039 16.0942C6.55074 19.0721 7.61502 21.171 9.32561 22.6242C11.0749 24.1103 13.5546 24.9607 16.1129 25.2461C18.669 25.5313 21.4846 25.2865 23.7092 24.8142C24.8215 24.578 25.7552 24.2914 26.4175 24.0028C26.6744 23.8908 26.8743 23.7855 27.0216 23.6923C26.9531 23.6486 26.8702 23.6001 26.7714 23.5472C26.5151 23.4102 26.2217 23.28 25.9172 23.1464L25.864 23.123C25.5953 23.0052 25.295 22.8736 25.0675 22.7458C24.6552 22.5143 24.2507 22.2509 23.9556 21.9708C23.8104 21.8329 23.6452 21.6479 23.5347 21.4174C23.4176 21.1735 23.3338 20.8094 23.4983 20.4241C24.3872 18.3418 24.8096 17.2012 25.0142 16.4481C25.2052 15.7449 25.2052 15.3908 25.2052 14.8278V14.8227C25.2052 14.3752 24.9462 12.3247 23.654 10.4127C22.4028 8.56156 20.1522 6.78594 16.0146 6.78594C12.2725 6.78594 10.0195 8.3314 8.67242 10.2099ZM7.22884 9.16633C8.90574 6.82799 11.6928 5 16.0146 5C20.7712 5 23.5606 7.09392 25.1259 9.40994C26.6501 11.6652 26.9841 14.0795 26.9841 14.8227C26.9841 15.4473 26.9835 15.9862 26.7304 16.918C26.5044 17.7498 26.0777 18.8973 25.2867 20.7668C25.4329 20.8831 25.6499 21.0265 25.9359 21.1871C26.0836 21.2701 26.3107 21.3699 26.6297 21.51C26.9258 21.6399 27.2811 21.7964 27.6074 21.9708C27.9203 22.1381 28.286 22.3623 28.5579 22.6556C28.8423 22.9623 29.1409 23.4884 28.9276 24.1308C28.7871 24.554 28.4608 24.8546 28.1889 25.0543C27.8935 25.2712 27.527 25.4662 27.1257 25.6411C26.3195 25.9924 25.2627 26.3098 24.0772 26.5615C21.7061 27.0649 18.6968 27.3313 15.9164 27.0212C13.1382 26.7112 10.2814 25.7757 8.17659 23.9876C6.04109 22.1734 4.73538 19.5229 5.04531 15.9725C5.05326 14.1434 5.59677 11.4422 7.22884 9.16633Z"
  />
</svg>
