<svg viewBox="0 0 32 32" xmlns="http://www.w3.org/2000/svg">
  <path d="M6.97846 9.64402C5.48372 11.7284 4.97605 14.2586 4.97605 15.9311V15.975L4.97209 16.0187C4.67997 19.2448 5.83294 21.5186 7.68608 23.0929C9.58116 24.7029 12.2674 25.6241 15.0389 25.9333C17.8081 26.2422 20.8584 25.977 23.2683 25.4654C24.4733 25.2095 25.4848 24.899 26.2023 24.5864C26.4806 24.4651 26.6972 24.3509 26.8568 24.25C26.7825 24.2027 26.6928 24.1501 26.5857 24.0928C26.308 23.9444 25.9901 23.8034 25.6603 23.6586L25.6027 23.6333C25.3116 23.5057 24.9863 23.363 24.7398 23.2246C24.2932 22.9738 23.8549 22.6885 23.5353 22.385C23.378 22.2356 23.199 22.0352 23.0792 21.7855C22.9525 21.5213 22.8617 21.1268 23.0398 20.7094C24.0028 18.4536 24.4604 17.218 24.6821 16.4021C24.889 15.6403 24.889 15.2567 24.889 14.6468V14.6412C24.889 14.1565 24.6084 11.9351 23.2085 9.86381C21.853 7.85836 19.4149 5.93477 14.9325 5.93477C10.8786 5.93477 8.43782 7.60902 6.97846 9.64402ZM5.41458 8.51353C7.23122 5.98032 10.2505 4 14.9325 4C20.0855 4 23.1073 6.26842 24.8031 8.77743C26.4543 11.2206 26.8161 13.8362 26.8161 14.6412C26.8161 15.3179 26.8154 15.9017 26.5412 16.9112C26.2965 17.8123 25.8341 19.0554 24.9772 21.0807C25.1356 21.2067 25.3707 21.3621 25.6805 21.536C25.8406 21.6259 26.0866 21.7341 26.4322 21.8858C26.753 22.0266 27.1379 22.1961 27.4913 22.3851C27.8303 22.5663 28.2265 22.8092 28.5211 23.1269C28.8292 23.4591 29.1526 24.0291 28.9216 24.725C28.7694 25.1835 28.4159 25.5091 28.1213 25.7255C27.8013 25.9605 27.4042 26.1717 26.9695 26.3612C26.0962 26.7417 24.9513 27.0856 23.667 27.3583C21.0983 27.9037 17.8382 28.1923 14.8261 27.8563C11.8164 27.5205 8.72153 26.507 6.44131 24.5699C4.12785 22.6045 2.71333 19.7331 3.04908 15.8869C3.0577 13.9053 3.6465 10.979 5.41458 8.51353Z" />
</svg>
