<svg viewBox="0 0 32 32" xmlns="http://www.w3.org/2000/svg">
    <path d="M15.2705 11.1721C15.7278 11.4818 15.8473 12.1036 15.5376 12.5609L13.8853 15H19C19.5523 15 20 15.4477 20 16C20 16.5523 19.5523 17 19 17H13.8853L15.5376 19.4392C15.8473 19.8965 15.7278 20.5182 15.2705 20.828C14.8133 21.1376 14.1915 21.0181 13.8818 20.5608L11.1721 16.5608C10.9426 16.2221 10.9426 15.7779 11.1721 15.4392L13.8818 11.4392C14.1915 10.9819 14.8133 10.8623 15.2705 11.1721Z" />
    <path d="M5.45509 8.33269C7.3405 5.71408 10.4741 3.66699 15.3333 3.66699C20.6813 3.66699 23.8174 6.01189 25.5774 8.60549C27.2912 11.131 27.6666 13.8348 27.6666 14.667C27.6666 15.3665 27.6659 15.97 27.3814 17.0134C27.1274 17.945 26.6475 19.2301 25.7582 21.3235C25.9226 21.4538 26.1666 21.6144 26.4882 21.7942C26.6542 21.8872 26.9096 21.999 27.2683 22.1558C27.6011 22.3013 28.0006 22.4766 28.3675 22.6718C28.7192 22.8592 29.1304 23.1104 29.4362 23.4387C29.756 23.7822 30.0917 24.3714 29.8518 25.0907C29.6939 25.5646 29.327 25.9013 29.0213 26.125C28.6891 26.3678 28.2771 26.5862 27.8259 26.7821C26.9195 27.1755 25.7312 27.5309 24.3984 27.8128C21.7325 28.3765 18.349 28.6749 15.2229 28.3275C12.0993 27.9805 8.88722 26.9328 6.52069 24.9304C4.11967 22.8987 2.65161 19.9306 3.00007 15.9547C3.00901 13.9063 3.6201 10.8813 5.45509 8.33269ZM7.07817 9.5013C5.52685 11.6559 4.99997 14.2715 4.99997 16.0003V16.0458L4.99586 16.0909C4.69269 19.4258 5.8893 21.7762 7.81258 23.4037C9.77938 25.0678 12.5673 26.0202 15.4437 26.3398C18.3176 26.659 21.4834 26.385 23.9845 25.856C25.2352 25.5915 26.285 25.2706 27.0296 24.9474C27.3186 24.8221 27.5434 24.704 27.7088 24.5997C27.6318 24.5507 27.5387 24.4965 27.4275 24.4373C27.1394 24.2838 26.8094 24.1379 26.467 23.9883L26.4008 23.9594C26.1004 23.8281 25.7657 23.6818 25.5118 23.5397C25.0483 23.2805 24.5934 22.9856 24.2616 22.6718C24.0984 22.5174 23.9126 22.3102 23.7883 22.0522C23.6568 21.779 23.5626 21.3712 23.7475 20.9397C24.7469 18.6078 25.2219 17.3306 25.4518 16.4872C25.6666 15.6997 25.6666 15.3032 25.6666 14.6728V14.667C25.6666 14.1659 25.3754 11.8696 23.9226 9.7285C22.5158 7.65542 19.9853 5.66699 15.3333 5.66699C11.1259 5.66699 8.59277 7.39768 7.07817 9.5013Z" />
</svg>
