<svg viewBox="0 0 32 32" xmlns="http://www.w3.org/2000/svg">
    <path d="M13.8817 11.4392C14.1915 10.9819 14.8133 10.8623 15.2705 11.1721C15.7277 11.4818 15.8473 12.1036 15.5376 12.5608L13.8853 15H19C19.5523 15 20 15.4477 20 16C20 16.5523 19.5523 17 19 17H13.8853L15.5376 19.4392C15.8473 19.8965 15.7277 20.5182 15.2705 20.828C14.8133 21.1376 14.1915 21.0181 13.8817 20.5608L11.1721 16.5608C10.9426 16.2221 10.9426 15.7779 11.1721 15.4392L13.8817 11.4392Z" />
    <path d="M15.3333 3.66699C10.474 3.66699 7.34047 5.71408 5.45508 8.33269C3.62007 10.8813 3.00898 13.9063 3.00004 15.9547C2.65159 19.9306 4.11964 22.8987 6.52066 24.9304C8.8872 26.9328 12.0992 27.9805 15.2229 28.3275C18.349 28.6749 21.7323 28.3765 24.3984 27.8128C25.7312 27.5309 26.9195 27.1755 27.8259 26.7821C28.2771 26.5862 28.6891 26.3678 29.0213 26.125C29.3269 25.9013 29.6938 25.5646 29.8518 25.0907C30.0917 24.3714 29.756 23.7822 29.4362 23.4387C29.1304 23.1104 28.7192 22.8592 28.3674 22.6718C28.0006 22.4766 27.6011 22.3013 27.2682 22.1558C26.9094 21.999 26.6542 21.8872 26.4882 21.7942C26.1666 21.6144 25.9226 21.4538 25.7581 21.3235C26.6475 19.2301 27.1274 17.945 27.3814 17.0134C27.6659 15.97 27.6666 15.3665 27.6666 14.667C27.6666 13.8348 27.2912 11.131 25.5774 8.60549C23.8174 6.01189 20.6813 3.66699 15.3333 3.66699ZM4.99994 16.0003C4.99994 14.2715 5.52684 11.6559 7.07815 9.5013C8.59274 7.39768 11.1259 5.66699 15.3333 5.66699C19.9853 5.66699 22.5157 7.65542 23.9224 9.7285C25.3754 11.8696 25.6666 14.1659 25.6666 14.667V14.6727C25.6666 15.3032 25.6666 15.6997 25.4518 16.4872C25.2218 17.3306 24.7469 18.6078 23.7475 20.9397C23.5626 21.3712 23.6568 21.779 23.7883 22.0522C23.9126 22.3102 24.0984 22.5174 24.2616 22.6718C24.5934 22.9856 25.0482 23.2805 25.5118 23.5397C25.7675 23.6829 26.1053 23.8302 26.4074 23.9622L26.467 23.9883C26.8094 24.1379 27.1394 24.2838 27.4275 24.4373C27.5387 24.4965 27.6318 24.5507 27.7088 24.5997C27.5432 24.704 27.3184 24.8221 27.0296 24.9474C26.285 25.2706 25.2352 25.5915 23.9845 25.856C21.4834 26.385 18.3176 26.659 15.4437 26.3398C12.5673 26.0202 9.77935 25.0678 7.81255 23.4037C5.88927 21.7762 4.69266 19.4258 4.99584 16.0909L4.99994 16.0458V16.0003Z" />
</svg>
