<svg viewBox="0 0 32 32" fill="none" xmlns="http://www.w3.org/2000/svg">
<path
    fill-rule="evenodd"
    clip-rule="evenodd"
    d="M28 16C28 22.6274 22.6274 28 16 28C9.37258 28 4 22.6274 4 16C4 9.37258 9.37258 4 16 4C22.6274 4 28 9.37258 28 16ZM26 16C26 21.5228 21.5228 26 16 26C13.5243 26 11.2588 25.1004 9.51245 23.6102L23.6102 9.51245C25.1004 11.2588 26 13.5243 26 16ZM8.12737 22.1669L22.1669 8.12737C20.4679 6.79466 18.3268 6 16 6C10.4772 6 6 10.4772 6 16C6 18.3268 6.79466 20.4679 8.12737 22.1669Z"
  />
</svg>
