<svg xmlns="http://www.w3.org/2000/svg" viewBox="0 0 24 24"><defs><style>.cls-1{fill:none;}</style></defs><title>Notification</title><g id="Layer_2" data-name="Layer 2"><g id="Elements_2" data-name="Elements 2"><path d="M20.81,18.1l-1.55-1.55v-6c0-3.7-2-6.79-5.43-7.61V2.09a1.81,1.81,0,1,0-3.61,0v.82c-3.46.82-5.42,3.9-5.42,7.61v6L3.24,18.1a1.2,1.2,0,0,0,.85,2.06H20A1.2,1.2,0,0,0,20.81,18.1Zm-4-.35H7.21V10.52C7.21,7.53,9,5.1,12,5.1s4.82,2.43,4.82,5.42Zm-4.82,6a2.42,2.42,0,0,0,2.41-2.41H9.62A2.41,2.41,0,0,0,12,23.78Z"/><rect class="cls-1" width="24" height="24"/></g></g></svg>