<svg viewBox="0 0 32 32" fill="none" xmlns="http://www.w3.org/2000/svg">
<path
    fill-rule="evenodd"
    clip-rule="evenodd"
    d="M11.4923 24.2633H6.89738C6.57058 24.2614 6.25027 24.1732 5.96851 24.0081C5.68678 23.843 5.45366 23.6068 5.29203 23.3235C5.13041 23.0403 5.04577 22.7198 5.04627 22.394C5.04676 22.0681 5.13236 21.7478 5.29484 21.4651C5.93422 20.3539 6.85994 17.2457 6.85994 13.2589C6.85994 10.8265 7.82173 8.49276 9.53512 6.77143C11.2487 5.04995 13.5737 4.08203 15.9989 4.08203C18.4241 4.08203 20.7491 5.04995 22.4627 6.77143C24.1761 8.49276 25.1378 10.8265 25.1378 13.2589C25.1378 17.2467 26.0644 20.3531 26.7047 21.4642L26.7052 21.4651C26.8679 21.7482 26.9535 22.0689 26.9538 22.3951C26.9541 22.7214 26.869 23.0422 26.7069 23.3256C26.5447 23.6089 26.3109 23.845 26.0285 24.0098C25.7461 24.1746 25.4252 24.2622 25.098 24.2633L25.0946 24.2633H20.5081C20.3249 25.13 19.8941 25.9326 19.2582 26.5686C18.3941 27.4326 17.2222 27.9181 16.0002 27.9181C14.7782 27.9181 13.6063 27.4326 12.7422 26.5686C12.1063 25.9326 11.6755 25.13 11.4923 24.2633ZM10.8857 8.11574C12.2425 6.75258 14.0819 5.98758 15.9989 5.98758C17.9159 5.98758 19.7553 6.75258 21.1121 8.11574C22.4691 9.47904 23.2323 11.329 23.2323 13.2589C23.2323 17.4008 24.1689 20.8342 25.0208 22.3578H6.97919C7.82986 20.8346 8.76549 17.4 8.76549 13.2589C8.76549 11.329 9.52864 9.47904 10.8857 8.11574ZM18.5286 24.2633C18.3944 24.6195 18.1851 24.9468 17.9108 25.2211C17.404 25.7278 16.7168 26.0125 16.0002 26.0125C15.2836 26.0125 14.5963 25.7278 14.0896 25.2211C13.8153 24.9468 13.606 24.6195 13.4718 24.2633H18.5286Z"
  />
</svg>
