<svg viewBox="0 0 32 32" xmlns="http://www.w3.org/2000/svg">
  <path d="M12 24.2318C11.4477 24.2318 11 23.784 11 23.2318V9.07031C11 8.51803 11.4477 8.07031 12 8.07031H16.2836C18.0373 8.07031 19.3545 8.43291 20.2351 9.1581C21.1231 9.8833 21.5671 10.9563 21.5671 12.3771C21.5671 13.1319 21.3525 13.8016 20.9233 14.3862C20.4941 14.9634 19.9095 15.411 19.1695 15.7292C20.0427 15.9734 20.7309 16.4396 21.2341 17.1278C21.7447 17.8086 22 18.6226 22 19.5698C22 21.0202 21.5301 22.1598 20.5903 22.9886C19.6505 23.8174 18.3222 24.2318 16.6054 24.2318H12ZM13.1312 16.6727V22.4891H16.6498C17.6414 22.4891 18.4221 22.2338 18.9919 21.7232C19.5691 21.2052 19.8577 20.4948 19.8577 19.592C19.8577 17.6458 18.7995 16.6727 16.6831 16.6727H13.1312ZM13.1312 14.9634H16.3502C17.2825 14.9634 18.0262 14.7303 18.5812 14.2641C19.1436 13.7979 19.4248 13.1652 19.4248 12.366C19.4248 11.478 19.1658 10.8342 18.6478 10.4346C18.1298 10.0276 17.3417 9.8241 16.2836 9.8241H13.1312V14.9634Z"/>
</svg>
