<svg viewBox="0 0 32 32" xmlns="http://www.w3.org/2000/svg">
  <path
    d="M6.10557 5.9999C6.10557 5.50592 6.50602 5.10547 7 5.10547H11C11.494 5.10547 11.8944 5.50592 11.8944 5.9999C11.8944 6.49387 11.494 6.89432 11 6.89432H7C6.50602 6.89432 6.10557 6.49387 6.10557 5.9999Z M23 17.4999C23 20.5375 20.5376 22.9999 17.5 22.9999C14.4624 22.9999 12 20.5375 12 17.4999C12 14.4623 14.4624 11.9999 17.5 11.9999C20.5376 11.9999 23 14.4623 23 17.4999ZM21 17.4999C21 15.5669 19.433 13.9999 17.5 13.9999C15.567 13.9999 14 15.5669 14 17.4999C14 19.4329 15.567 20.9999 17.5 20.9999C19.433 20.9999 21 19.4329 21 17.4999Z M6 7.9999H26C27.1046 7.9999 28 8.89533 28 9.9999V23.9999C28 25.1045 27.1046 25.9999 26 25.9999H6C4.89543 25.9999 4 25.1045 4 23.9999V9.9999C4 8.89533 4.89543 7.9999 6 7.9999ZM26 9.9999H6L6 23.9999H26V9.9999Z"
  />
</svg>
