<svg viewBox="0 0 32 32" xmlns="http://www.w3.org/2000/svg">
  <path
    d="M21.8026 19.6074C22.1985 19.2222 22.8316 19.2309 23.2167 19.6267C23.6019 20.0226 23.5932 20.6557 23.1974 21.0408L16.6974 27.3654C16.3092 27.7431 15.6908 27.7431 15.3026 27.3654L8.80263 21.0408C8.4068 20.6557 8.39814 20.0226 8.78328 19.6267C9.16843 19.2309 9.80154 19.2222 10.1974 19.6074L16 25.2534L21.8026 19.6074Z M21.8026 13.0408L16 7.39477L10.1974 13.0408C9.80154 13.4259 9.16843 13.4173 8.78328 13.0214C8.39814 12.6256 8.4068 11.9925 8.80263 11.6074L15.3026 5.2828C15.6908 4.90508 16.3092 4.90508 16.6974 5.2828L23.1974 11.6074C23.5932 11.9925 23.6019 12.6256 23.2167 13.0214C22.8316 13.4173 22.1985 13.4259 21.8026 13.0408Z"
  />
</svg>
