<svg viewBox="0 0 32 32" xmlns="http://www.w3.org/2000/svg">
  <path
    d="M21.7929 17.2071C22.1834 17.5976 22.8166 17.5976 23.2071 17.2071C23.5976 16.8166 23.5976 16.1834 23.2071 15.7929L16.7071 9.29289C16.3166 8.90237 15.6834 8.90237 15.2929 9.29289L8.79289 15.7929C8.40237 16.1834 8.40237 16.8166 8.79289 17.2071C9.18342 17.5976 9.81658 17.5976 10.2071 17.2071L16 11.4142L21.7929 17.2071Z"
  />
  <path
    d="M21.7929 23.6071C22.1834 23.9977 22.8166 23.9977 23.2071 23.6071C23.5976 23.2166 23.5976 22.5834 23.2071 22.1929L16.7071 15.6929C16.3166 15.3024 15.6834 15.3024 15.2929 15.6929L8.79289 22.1929C8.40237 22.5834 8.40237 23.2166 8.79289 23.6071C9.18342 23.9977 9.81658 23.9977 10.2071 23.6071L16 17.8142L21.7929 23.6071Z"
  />
</svg>
