<svg viewBox="0 0 32 32" xmlns="http://www.w3.org/2000/svg">
  <path
    d="M21.7929 9.39287C22.1834 9.00234 22.8166 9.00234 23.2071 9.39287C23.5976 9.78339 23.5976 10.4166 23.2071 10.8071L16.7071 17.3071C16.3166 17.6976 15.6834 17.6976 15.2929 17.3071L8.79289 10.8071C8.40237 10.4166 8.40237 9.78339 8.79289 9.39287C9.18342 9.00235 9.81658 9.00235 10.2071 9.39287L16 15.1858L21.7929 9.39287Z"
  />
  <path
    d="M21.7929 15.7929C22.1834 15.4024 22.8166 15.4024 23.2071 15.7929C23.5976 16.1834 23.5976 16.8166 23.2071 17.2071L16.7071 23.7071C16.3166 24.0976 15.6834 24.0976 15.2929 23.7071L8.79289 17.2071C8.40237 16.8166 8.40237 16.1834 8.79289 15.7929C9.18342 15.4024 9.81658 15.4024 10.2071 15.7929L16 21.5858L21.7929 15.7929Z"
  />
</svg>
