<svg viewBox="0 0 32 32" xmlns="http://www.w3.org/2000/svg">
  <path
    d="M16 4.71787C9.76912 4.71787 4.71797 9.76901 4.71797 15.9999C4.71797 22.2308 9.76912 27.282 16 27.282C22.2309 27.282 27.2821 22.2308 27.2821 15.9999C27.2821 9.76901 22.2309 4.71787 16 4.71787ZM16 2.66658C23.3638 2.66658 29.3334 8.63612 29.3334 15.9999C29.3334 23.3637 23.3638 29.3333 16 29.3333C8.63622 29.3333 2.66669 23.3637 2.66669 15.9999C2.66669 8.63612 8.63622 2.66658 16 2.66658ZM17.0257 21.1281C17.0257 20.5617 16.5665 20.1025 16 20.1025C15.4336 20.1025 14.9744 20.5617 14.9744 21.1281C14.9744 21.6946 15.4336 22.1538 16 22.1538C16.5665 22.1538 17.0257 21.6946 17.0257 21.1281ZM16 19.0768C15.4336 19.0768 14.9744 18.6176 14.9744 18.0512V10.8717C14.9744 10.3053 15.4336 9.84607 16 9.84607C16.5665 9.84607 17.0257 10.3053 17.0257 10.8717V18.0512C17.0257 18.6176 16.5665 19.0768 16 19.0768Z"
  />
</svg>
