<svg viewBox="0 0 22 24" xmlns="http://www.w3.org/2000/svg">
  <path fill-rule="evenodd" clip-rule="evenodd" d="M15.3065 0.324069C15.8816 0.0958038 16.4957 -0.0141119 17.1136 0.00144903C17.7314 0.0170099 18.3392 0.157703 18.9021 0.41463C19.4649 0.671522 19.9708 1.03913 20.3917 1.49488C20.8126 1.95056 21.1405 2.48548 21.3582 3.06836C21.5758 3.65118 21.6794 4.27153 21.6637 4.89426C21.648 5.51699 21.5134 6.13134 21.2667 6.70247C21.0205 7.27241 20.6671 7.78915 20.2251 8.22249L20.2222 8.2253L8.85687 19.5045C8.30426 20.0454 7.55877 20.3443 6.78284 20.3248C6.00691 20.3053 5.27744 19.9691 4.75275 19.4011C4.22909 18.8342 3.95126 18.0828 3.97064 17.3135C3.98997 16.5459 4.30395 15.811 4.85328 15.2715L14.3853 5.78688C14.8168 5.35746 15.5148 5.3592 15.9442 5.79076C16.3736 6.22232 16.3719 6.92028 15.9403 7.3497L6.39901 16.8436C6.26398 16.9757 6.17977 17.1641 6.17461 17.369C6.16945 17.574 6.24404 17.7664 6.37225 17.9052C6.49943 18.0428 6.66786 18.1165 6.83835 18.1208C7.00794 18.1251 7.17896 18.0607 7.31261 17.9309L18.6801 6.64972C18.9166 6.41816 19.1084 6.1393 19.2427 5.8282C19.3771 5.51706 19.4511 5.18076 19.4598 4.83875C19.4684 4.49674 19.4114 4.15714 19.2928 3.83963C19.1743 3.52217 18.9969 3.23399 18.7722 2.99081C18.5477 2.74769 18.2804 2.55435 17.9866 2.42024C17.6929 2.28617 17.3774 2.21347 17.058 2.20542C16.7386 2.19738 16.4199 2.25411 16.1198 2.37322C15.8207 2.49196 15.5449 2.67077 15.3089 2.90112L3.94114 14.1827C3.11955 14.9868 2.63584 16.1 2.60615 17.2792C2.57645 18.4583 3.00348 19.5944 3.78355 20.4389C4.56259 21.2823 5.62893 21.7659 6.74583 21.794C7.86274 21.8222 8.95207 21.3929 9.77258 20.5898L19.1601 11.4134C19.5955 10.9878 20.2934 10.9957 20.7189 11.4311C21.1445 11.8665 21.1366 12.5644 20.7012 12.9899L11.3147 22.1653C10.0755 23.3782 8.41267 24.0414 6.69032 23.998C4.96798 23.9546 3.3406 23.2086 2.16405 21.9349C0.988524 20.6622 0.358263 18.9671 0.402174 17.2237C0.446051 15.4816 1.15978 13.8215 2.39613 12.6099L13.7643 1.32794C14.2077 0.893958 14.7315 0.552304 15.3065 0.324069Z" />
</svg>

