<svg viewBox="0 0 32 32" xmlns="http://www.w3.org/2000/svg">
	<path d="M15.0726 7.15773C15.6904 6.40987 16.6317 6.00689 17.5993 6.076L22.0972 6.39728C23.4113 6.49115 24.5104 7.43137 24.8067 8.71508L25.7551 12.825C25.9627 13.7246 25.7446 14.6696 25.1637 15.3872L17.2772 25.1292C16.9297 25.5585 16.3001 25.6248 15.8708 25.2773C15.4415 24.9298 15.3753 24.3001 15.7228 23.8708L23.6092 14.1288C23.8028 13.8896 23.8755 13.5746 23.8063 13.2747L22.8579 9.1648C22.7592 8.73689 22.3928 8.42349 21.9548 8.3922L17.4568 8.07092C17.1343 8.04788 16.8205 8.18221 16.6146 8.43149L8.3021 18.494C8.13214 18.6997 8.05147 18.9648 8.07802 19.2303L8.31494 21.5995C8.36606 22.1107 8.79623 22.5 9.30998 22.5H12.5695C12.8645 22.5 13.1444 22.3698 13.3344 22.1442L20.4467 13.6983L20.1327 11.5H17.9684L10.7682 20.1402C10.4147 20.5645 9.78409 20.6218 9.35982 20.2682C8.93554 19.9147 8.87822 19.2841 9.23178 18.8598L16.4319 10.2197C16.8119 9.76367 17.3748 9.50003 17.9684 9.50003H20.1327C21.128 9.50003 21.9718 10.2319 22.1126 11.2172L22.4266 13.4155C22.5072 13.9794 22.3435 14.5509 21.9766 14.9866L14.8643 23.4324C14.2942 24.1093 13.4545 24.5 12.5695 24.5H9.30998C7.76872 24.5 6.47822 23.3321 6.32486 21.7985L6.08795 19.4294C6.00829 18.6328 6.25031 17.8374 6.76017 17.2202L15.0726 7.15773Z"/>
</svg>
