<svg xmlns="http://www.w3.org/2000/svg" viewBox="0 0 24 24"><title>Clock</title><g id="Layer_2" data-name="Layer 2"><g id="Elements_2" data-name="Elements 2"><path d="M11.61,13.69a1.13,1.13,0,0,1-1.13-1.12l-.06-6.9a1.12,1.12,0,0,1,1.12-1.14h0a1.14,1.14,0,0,1,1.14,1.12l.06,6.9a1.12,1.12,0,0,1-1.12,1.14Z"/><path d="M17.43,13.69H11.64a1.13,1.13,0,0,1,0-2.26h5.79a1.13,1.13,0,1,1,0,2.26Z"/><path d="M19.25,24H4.75A4.75,4.75,0,0,1,0,19.25V4.75A4.75,4.75,0,0,1,4.75,0h14.5A4.75,4.75,0,0,1,24,4.75v14.5A4.75,4.75,0,0,1,19.25,24ZM5,2.62A2.41,2.41,0,0,0,2.62,5V19A2.41,2.41,0,0,0,5,21.38H19a2.41,2.41,0,0,0,2.4-2.4V5A2.41,2.41,0,0,0,19,2.62Z"/></g></g></svg>