<svg viewBox="0 0 32 32" xmlns="http://www.w3.org/2000/svg">
	<path d="M8.53526 11.1461C8.3284 12.0138 8.46077 13.1385 9.33208 14.4455L10.3685 16.0001H8.50002C7.12468 16.0001 6.29742 16.4649 5.80381 17.0507C5.28831 17.6626 5.0359 18.5278 5.06214 19.4724C5.08841 20.4181 5.39342 21.3464 5.86896 22.0134C6.34168 22.6764 6.91281 23.0002 7.50004 23.0002H24.5C24.9404 23.0002 25.525 22.7008 26.0857 21.98C26.6294 21.2808 27.0267 20.3298 27.1311 19.3897C27.2355 18.4501 27.0404 17.6291 26.5513 17.0549C26.0756 16.4965 25.1752 16.0001 23.5 16.0001H22.0723L22.5602 14.6584C22.9836 13.4943 22.9068 12.5727 22.6051 11.8725C22.2971 11.1577 21.7144 10.5818 20.9781 10.201C19.4285 9.39944 17.6195 9.61895 16.7683 10.6404L15.8265 11.7705L15.1221 10.4791C14.5047 9.34724 13.6461 8.7861 12.7824 8.59349C11.8957 8.39577 10.9356 8.57257 10.1355 9.04757C9.33826 9.52094 8.7461 10.2618 8.53526 11.1461ZM16.1943 8.50249C17.874 7.40415 20.1813 7.53711 21.8969 8.42452C22.9731 8.98116 23.9217 9.87395 24.4418 11.081C24.826 11.9726 24.9555 12.9876 24.7733 14.0875C26.2143 14.2963 27.3205 14.8736 28.0738 15.7579C29.0221 16.8713 29.2645 18.3002 29.1189 19.6106C28.9734 20.9205 28.4331 22.2195 27.6644 23.2079C26.9125 24.1746 25.8096 25.0002 24.5 25.0002H7.50001C6.08724 25.0002 4.97088 24.1989 4.24047 23.1744C3.51288 22.1539 3.09914 20.8322 3.06291 19.5279C3.02665 18.2225 3.36799 16.8377 4.27436 15.762C4.92205 14.9934 5.81045 14.4396 6.92514 14.1751C6.42201 12.956 6.33111 11.7673 6.58979 10.6823C6.94145 9.20727 7.9118 8.04191 9.11451 7.32784C10.3145 6.61539 11.7919 6.32351 13.2177 6.64144C14.3297 6.8894 15.3711 7.5002 16.1943 8.50249ZM16 13.6665C16.5523 13.6665 17 14.1142 17 14.6665V16.333H18.6667C19.219 16.333 19.6667 16.7807 19.6667 17.333C19.6667 17.8853 19.219 18.333 18.6667 18.333H17V19.9999C17 20.5521 16.5523 20.9999 16 20.9999C15.4477 20.9999 15 20.5521 15 19.9999V18.333H13.3334C12.7811 18.333 12.3334 17.8853 12.3334 17.333C12.3334 16.7807 12.7811 16.333 13.3334 16.333H15V14.6665C15 14.1142 15.4477 13.6665 16 13.6665Z"/>
</svg>
