<svg viewBox="0 0 32 32" xmlns="http://www.w3.org/2000/svg">
<path
    fill-rule="evenodd"
    clip-rule="evenodd"
    d="M20.9052 9.14444C19.4342 8.85438 17.9097 9.00332 16.5246 9.57207C15.1397 10.1408 13.9573 11.1033 13.1261 12.3366C12.2949 13.5697 11.8519 15.0186 11.8519 16.5C11.8519 17.0523 11.4041 17.5 10.8519 17.5C10.2996 17.5 9.85185 17.0523 9.85185 16.5C9.85185 15.6865 9.9571 14.8811 10.1617 14.1025C9.81892 14.0917 9.47491 14.1157 9.13518 14.1749C8.43547 14.2967 7.77039 14.5646 7.184 14.9603C6.59764 15.356 6.10353 15.8703 5.73397 16.4687C5.36444 17.067 5.12777 17.736 5.03925 18.4311C4.95074 19.1262 5.01231 19.832 5.22003 20.502C5.42776 21.172 5.77701 21.7911 6.24515 22.3181C6.71331 22.8452 7.28971 23.2681 7.93643 23.5583C8.58317 23.8485 9.28514 23.9991 9.99567 24H19.4259C20.9259 24 22.3914 23.559 23.6372 22.7338C24.8829 21.9087 25.8524 20.7368 26.4246 19.3673C26.9968 17.9979 27.1464 16.4916 26.8548 15.0385C26.5632 13.5853 25.8433 12.2492 24.7847 11.1998C23.726 10.1502 22.3761 9.43448 20.9052 9.14444ZM10.91 12.1587C10.2074 12.0675 9.49322 12.0825 8.79212 12.2045C7.81544 12.3746 6.88592 12.7487 6.06529 13.3024C5.24463 13.8562 4.55149 14.5771 4.03232 15.4178C3.51314 16.2585 3.17994 17.1995 3.05528 18.1784C2.93061 19.1574 3.01739 20.1514 3.30974 21.0943C3.60209 22.0372 4.09317 22.907 4.74987 23.6463C5.40655 24.3856 6.21378 24.9774 7.11768 25.383C8.02155 25.7886 9.00171 25.9988 9.99322 26H19.4259C21.3176 26 23.1674 25.4439 24.7417 24.4012C26.316 23.3583 27.5443 21.8752 28.27 20.1383C28.9958 18.4014 29.1858 16.4895 28.8157 14.645C28.4456 12.8005 27.5323 11.1075 26.1927 9.77943C24.8532 8.45149 23.1476 7.54812 21.2921 7.18222C19.4366 6.81633 17.5133 7.00404 15.7649 7.72198C14.0165 8.43995 12.5207 9.65637 11.4676 11.2188C11.2631 11.5222 11.077 11.8361 10.91 12.1587Z"
  />
</svg>
