<svg viewBox="0 0 32 32" xmlns="http://www.w3.org/2000/svg">
	<path
    d="M8.53525 11.1462C8.32839 12.0139 8.46075 13.1386 9.33206 14.4456L10.3685 16.0003H8.5C7.12466 16.0003 6.2974 16.4651 5.8038 17.0509C5.28829 17.6627 5.03588 18.5279 5.06212 19.4725C5.08839 20.4182 5.39341 21.3465 5.86894 22.0135C6.34166 22.6765 6.9128 23.0003 7.50002 23.0003H12V25.0003H7.5C6.08722 25.0003 4.97086 24.199 4.24045 23.1745C3.51286 22.154 3.09913 20.8323 3.06289 19.528C3.02663 18.2226 3.36797 16.8379 4.27434 15.7622C4.92203 14.9935 5.81044 14.4397 6.92512 14.1752C6.422 12.9561 6.3311 11.7674 6.58977 10.6824C6.94144 9.2074 7.91178 8.04203 9.11449 7.32796C10.3145 6.61552 11.7919 6.32363 13.2177 6.64156C14.3297 6.88953 15.3711 7.50032 16.1943 8.50261C17.874 7.40427 20.1813 7.53723 21.8969 8.42464C22.9731 8.98128 23.9217 9.87408 24.4418 11.0812C24.826 11.9728 24.9555 12.9878 24.7733 14.0876C26.2143 14.2964 27.3204 14.8737 28.0737 15.7581C29.0221 16.8714 29.2645 18.3003 29.1189 19.6107C28.9733 20.9206 28.4331 22.2196 27.6644 23.208C26.9125 24.1747 25.8096 25.0003 24.5 25.0003H20V23.0003H24.5C24.9404 23.0003 25.525 22.7009 26.0857 21.9801C26.6294 21.281 27.0267 20.3299 27.1311 19.3898C27.2355 18.4502 27.0404 17.6292 26.5513 17.055C26.0756 16.4966 25.1752 16.0003 23.5 16.0003H22.0723L22.5602 14.6585C22.9835 13.4944 22.9068 12.5728 22.6051 11.8726C22.2971 11.1579 21.7144 10.5819 20.9781 10.2011C19.4285 9.39956 17.6195 9.61908 16.7682 10.6406L15.8265 11.7706L15.1221 10.4792C14.5047 9.34736 13.6461 8.78622 12.7824 8.59362C11.8956 8.39589 10.9356 8.5727 10.1355 9.04769C9.33824 9.52106 8.74609 10.2619 8.53525 11.1462ZM19.7181 18.3993C20.1024 18.7959 20.0925 19.429 19.696 19.8134C19.2994 20.1977 18.6663 20.1878 18.2819 19.7913L17 18.4686V27C17 27.5523 16.5523 28 16 28C15.4477 28 15 27.5523 15 27V18.4686L13.7181 19.7913C13.3337 20.1878 12.7006 20.1977 12.304 19.8134C11.9075 19.429 11.8976 18.7959 12.2819 18.3993L15.2819 15.304C15.4703 15.1097 15.7294 15 16 15C16.2706 15 16.5297 15.1097 16.7181 15.304L19.7181 18.3993Z"
  />
</svg>
