<svg
  viewBox="0 0 32 32"
  xmlns="http://www.w3.org/2000/svg"
  xmlns:svg="http://www.w3.org/2000/svg"
>
  <path
    d="M21.8546 11.4311C22.0018 11.0599 21.914 10.6367 21.6314 10.3547C21.3487 10.0726 20.9254 9.98575 20.5545 10.1337L13.5045 12.9462C13.2498 13.0478 13.048 13.2495 12.9463 13.5042L10.1213 20.5792C9.97306 20.9505 10.0602 21.3744 10.3429 21.6571C10.6256 21.9398 11.0495 22.027 11.4208 21.8787L18.4958 19.0537C18.7512 18.9518 18.9533 18.7492 19.0546 18.4936L21.8546 11.4311ZM12.8425 19.1575L14.6445 14.6447L19.1401 12.8512L17.3542 17.3561L12.8425 19.1575Z"
  />
  <path
    d="M 29,16 C 29,23.1797 23.1797,29 16,29 8.8203,29 3,23.1797 3,16 3,8.8203 8.8203,3 16,3 23.1797,3 29,8.8203 29,16 Z M 16,5 C 9.92487,5 5,9.92487 5,16 5,22.0751 9.92487,27 16,27 22.0751,27 27,22.0751 27,16 27,9.92487 22.0751,5 16,5 Z"
  />
</svg>
