<svg viewBox="0 0 32 32" xmlns="http://www.w3.org/2000/svg">
    <path
    d="M24 7C24.5523 7 25 7.44772 25 8V25C25 25.5523 24.5523 26 24 26H7C6.44772 26 6 25.5523 6 25V21C6.55228 21 7 20.5523 7 20C7 19.4477 6.55228 19 6 19V13C6.55228 13 7 12.5523 7 12C7 11.4477 6.55228 11 6 11V8C6 7.44772 6.44772 7 7 7H24ZM4 19C3.44772 19 3 19.4477 3 20C3 20.5523 3.44772 21 4 21V25C4 26.6569 5.34315 28 7 28H24C25.6569 28 27 26.6569 27 25V8C27 6.34315 25.6569 5 24 5H7C5.34315 5 4 6.34315 4 8V11C3.44772 11 3 11.4477 3 12C3 12.5523 3.44772 13 4 13V19ZM13.2877 16.0708C12.1448 16.3769 11.35 17.4126 11.35 18.5958V19.5497C11.35 20.5438 12.1559 21.3497 13.15 21.3497H18.798C19.7922 21.3497 20.598 20.5438 20.598 19.5497V18.7892C20.598 17.4863 19.695 16.3579 18.4317 16.0618C17.9831 15.9566 17.513 15.9633 17.0666 16.0829L16.3733 16.2686C16.1026 16.3411 15.8183 16.3455 15.5455 16.2816L14.5605 16.0507C14.141 15.9524 13.7038 15.9593 13.2877 16.0708ZM14.1954 17.6085L15.1804 17.8394C15.7099 17.9635 16.2619 17.9548 16.7873 17.8141L17.4806 17.6284C17.6709 17.5774 17.8733 17.5743 18.0666 17.6196C18.6117 17.7473 18.998 18.2345 18.998 18.7892V19.5497C18.998 19.6602 18.9085 19.7497 18.798 19.7497H13.15C13.0395 19.7497 12.95 19.6602 12.95 19.5497V18.5958C12.95 18.1368 13.2583 17.735 13.7016 17.6163C13.8631 17.5731 14.0327 17.5704 14.1954 17.6085ZM16.764 13.14C16.764 12.7037 16.4103 12.35 15.974 12.35C15.5377 12.35 15.184 12.7037 15.184 13.14C15.184 13.5763 15.5377 13.93 15.974 13.93C16.4103 13.93 16.764 13.5763 16.764 13.14ZM18.364 13.14C18.364 14.46 17.294 15.53 15.974 15.53C14.6541 15.53 13.584 14.46 13.584 13.14C13.584 11.82 14.6541 10.75 15.974 10.75C17.294 10.75 18.364 11.82 18.364 13.14Z"
    fill="#6C727A"
  />
</svg>
