<svg viewBox="0 0 32 32" xmlns="http://www.w3.org/2000/svg">
    <path fill-rule="evenodd" clip-rule="evenodd" d="M24 7H7C6.44772 7 6 7.44772 6 8V11C6.55228 11 7 11.4477 7 12C7 12.5523 6.55228 13 6 13V19C6.55228 19 7 19.4477 7 20C7 20.5523 6.55228 21 6 21V25C6 25.5523 6.44772 26 7 26H24C24.5523 26 25 25.5523 25 25V8C25 7.44772 24.5523 7 24 7ZM4 19C3.44772 19 3 19.4477 3 20C3 20.5523 3.44772 21 4 21V25C4 26.6569 5.34315 28 7 28H24C25.6569 28 27 26.6569 27 25V8C27 6.34315 25.6569 5 24 5H7C5.34315 5 4 6.34315 4 8V11C3.44772 11 3 11.4477 3 12C3 12.5523 3.44772 13 4 13V19ZM13.2877 16.0708C13.7038 15.9593 14.141 15.9524 14.5605 16.0507L15.5455 16.2816C15.8183 16.3455 16.1026 16.3411 16.3733 16.2686L17.0666 16.0829C17.513 15.9633 17.9831 15.9566 18.4317 16.0618C19.695 16.3579 20.598 17.4863 20.598 18.7892V19.5497C20.598 20.5438 19.7922 21.3497 18.798 21.3497H13.15C12.1559 21.3497 11.35 20.5438 11.35 19.5497V18.5958C11.35 17.4126 12.1448 16.3769 13.2877 16.0708ZM14.1954 17.6085C14.0327 17.5704 13.8631 17.5731 13.7016 17.6163C13.2583 17.735 12.95 18.1368 12.95 18.5958V19.5497C12.95 19.6602 13.0395 19.7497 13.15 19.7497H18.798C18.9085 19.7497 18.998 19.6602 18.998 19.5497V18.7892C18.998 18.2345 18.6117 17.7473 18.0666 17.6196C17.8733 17.5743 17.6709 17.5774 17.4806 17.6284L16.7873 17.8141C16.2619 17.9548 15.7099 17.9635 15.1804 17.8394L14.1954 17.6085ZM16.764 13.14C16.764 13.5763 16.4103 13.93 15.974 13.93C15.5377 13.93 15.184 13.5763 15.184 13.14C15.184 12.7037 15.5377 12.35 15.974 12.35C16.4103 12.35 16.764 12.7037 16.764 13.14ZM18.364 13.14C18.364 14.46 17.294 15.53 15.974 15.53C14.6541 15.53 13.584 14.46 13.584 13.14C13.584 11.82 14.6541 10.75 15.974 10.75C17.294 10.75 18.364 11.82 18.364 13.14Z" fill="#6C727A"/>
</svg>
