<svg width="32" height="32" viewBox="0 0 32 32" fill="none" xmlns="http://www.w3.org/2000/svg">
<path d="M22.3334 9.33321C22.3334 8.78093 21.8857 8.33321 21.3334 8.33321C20.7811 8.33321 20.3334 8.78093 20.3334 9.33321V22.6665C20.3334 23.2188 20.7811 23.6665 21.3334 23.6665C21.8857 23.6665 22.3334 23.2188 22.3334 22.6665V9.33321Z" fill="#2F343D"/>
<path d="M16 12.3335C16.5523 12.3335 17 12.7812 17 13.3335V22.6668C17 23.2191 16.5523 23.6668 16 23.6668C15.4477 23.6668 15 23.2191 15 22.6668V13.3335C15 12.7812 15.4477 12.3335 16 12.3335Z" fill="#2F343D"/>
<path d="M11.6667 17.3335C11.6667 16.7812 11.2189 16.3335 10.6667 16.3335C10.1144 16.3335 9.66665 16.7812 9.66665 17.3335V22.6669C9.66665 23.2191 10.1144 23.6669 10.6667 23.6669C11.2189 23.6669 11.6667 23.2191 11.6667 22.6669V17.3335Z" fill="#2F343D"/>
<path fill-rule="evenodd" clip-rule="evenodd" d="M4 6.23611C4 5.00114 5.00114 4 6.23611 4H25.7639C26.9989 4 28 5.00114 28 6.23611V25.7639C28 26.9989 26.9989 28 25.7639 28H6.23611C5.00114 28 4 26.9989 4 25.7639V6.23611ZM6.23611 6H25.7639C25.8943 6 26 6.10571 26 6.23611V25.7639C26 25.8943 25.8943 26 25.7639 26H6.23611C6.10571 26 6 25.8943 6 25.7639V6.23611C6 6.10571 6.10571 6 6.23611 6Z" fill="#2F343D"/>
</svg>
