<svg viewBox="0 0 32 32" xmlns="http://www.w3.org/2000/svg">
  <path
    d="M22 26C22.5523 26 23 26.4477 23 27C23 27.5523 22.5523 28 22 28H10C9.44772 28 9 27.5523 9 27C9 26.4477 9.44772 26 10 26H22Z"
  />
  <path
    d="M15.3281 8.29297C15.5722 8.04889 15.9114 7.95753 16.2266 8.01855C16.2897 8.03077 16.3519 8.0488 16.4121 8.07324C16.5324 8.12206 16.6456 8.19539 16.7432 8.29297L20.7197 12.2705C21.1103 12.661 21.1103 13.294 20.7197 13.6846C20.3292 14.0749 19.6961 14.075 19.3057 13.6846L17 11.3789V19C17 19.5523 16.5523 20 16 20C15.4477 20 15 19.5523 15 19V11.4502L12.7656 13.6846C12.3751 14.0751 11.7411 14.0751 11.3506 13.6846C10.9604 13.2941 10.9604 12.661 11.3506 12.2705L15.3281 8.29297Z"
  />
  <path
    d="M28.2041 4.01074C29.2128 4.11301 30 4.96435 30 6V22L29.9893 22.2041C29.8938 23.1457 29.1457 23.8938 28.2041 23.9893L28 24H4C2.96435 24 2.113 23.2128 2.01074 22.2041L2 22V6C2 4.89543 2.89543 4 4 4H28L28.2041 4.01074ZM4 22H28V6H4V22Z"
  />
</svg>
