<svg viewBox="0 0 32 32" xmlns="http://www.w3.org/2000/svg">
  <path
    d="M22 25.9998C22.5521 25.9999 22.9999 26.4476 23 26.9998C23 27.5519 22.5521 27.9996 22 27.9998H10C9.44772 27.9998 9 27.552 9 26.9998C9.00008 26.4475 9.44777 25.9998 10 25.9998H22Z"
  />
  <path
    d="M11.292 9.29272C11.6825 8.90225 12.3155 8.90235 12.7061 9.29272L16.0029 12.5896L19.2998 9.29272L19.376 9.22437C19.7686 8.90412 20.3477 8.92689 20.7139 9.29272C21.08 9.65883 21.1035 10.2388 20.7832 10.6316L20.7139 10.7068L17.417 14.0037L20.7061 17.2927L20.7754 17.3689C21.0955 17.7617 21.0721 18.3408 20.7061 18.7068C20.34 19.0728 19.7609 19.0962 19.3682 18.7761L19.292 18.7068L16.0029 15.4177L12.7148 18.7068C12.3243 19.0973 11.6903 19.0973 11.2998 18.7068C10.9096 18.3163 10.9095 17.6832 11.2998 17.2927L14.5889 14.0037L11.292 10.7068C10.9016 10.3163 10.9015 9.6832 11.292 9.29272Z"
  />
  <path
    d="M28.2041 4.0105C29.2126 4.11289 29.9999 4.96427 30 5.99976V21.9998L29.9893 22.2039C29.8938 23.1453 29.1455 23.8934 28.2041 23.989L28 23.9998H4C2.96435 23.9998 2.113 23.2125 2.01074 22.2039L2 21.9998V5.99976C2.00008 4.89526 2.89548 3.99976 4 3.99976H28L28.2041 4.0105ZM4 21.9998H28V5.99976H4V21.9998Z"
  />
</svg>
