<svg viewBox="0 0 32 32" xmlns="http://www.w3.org/2000/svg">
	<path d="M12 6V8C12 8.55228 11.5523 9 11 9H9C8.44772 9 8 8.55228 8 8V6C8 5.44772 8.44772 5 9 5H11C11.5523 5 12 5.44772 12 6ZM12 18V20C12 20.5523 11.5523 21 11 21H9C8.44772 21 8 20.5523 8 20V18C8 17.4477 8.44772 17 9 17H11C11.5523 17 12 17.4477 12 18ZM14 6C14 5.44772 14.4477 5 15 5H17C17.5523 5 18 5.44772 18 6V8C18 8.55228 17.5523 9 17 9H15C14.4477 9 14 8.55228 14 8V6ZM18 12V14C18 14.5523 17.5523 15 17 15H15C14.4477 15 14 14.5523 14 14V12C14 11.4477 14.4477 11 15 11H17C17.5523 11 18 11.4477 18 12ZM14 18C14 17.4477 14.4477 17 15 17H17C17.5523 17 18 17.4477 18 18V20C18 20.5523 17.5523 21 17 21H15C14.4477 21 14 20.5523 14 20V18ZM18 24V26C18 26.5523 17.5523 27 17 27H15C14.4477 27 14 26.5523 14 26V24C14 23.4477 14.4477 23 15 23H17C17.5523 23 18 23.4477 18 24ZM20 6C20 5.44772 20.4477 5 21 5H23C23.5523 5 24 5.44772 24 6V8C24 8.55228 23.5523 9 23 9H21C20.4477 9 20 8.55228 20 8V6ZM24 12V14C24 14.5523 23.5523 15 23 15H21C20.4477 15 20 14.5523 20 14V12C20 11.4477 20.4477 11 21 11H23C23.5523 11 24 11.4477 24 12ZM20 18C20 17.4477 20.4477 17 21 17H23C23.5523 17 24 17.4477 24 18V20C24 20.5523 23.5523 21 23 21H21C20.4477 21 20 20.5523 20 20V18ZM12 12V14C12 14.5523 11.5523 15 11 15H9C8.44772 15 8 14.5523 8 14V12C8 11.4477 8.44772 11 9 11H11C11.5523 11 12 11.4477 12 12Z"/>
</svg>
