<svg viewBox="0 0 20 20" xmlns="http://www.w3.org/2000/svg">
    <path d="M8.125 2.5C7.43464 2.5 6.875 3.05964 6.875 3.75V8.17649C7.28076 8.12137 7.69792 8.10901 8.125 8.14667V3.75H11.5625V7.27941C11.5625 7.96977 12.1221 8.52941 12.8125 8.52941H16.25V15H13.8954C13.5603 15.4332 13.186 15.8568 12.7761 16.25H16.25C16.9404 16.25 17.5 15.6904 17.5 15V7.90441C17.5 7.77921 17.4624 7.6569 17.3921 7.55332L14.3329 3.04782C14.1002 2.70516 13.7129 2.5 13.2987 2.5H12.1875H8.125ZM12.8125 7.27941V3.75H13.2987L15.6952 7.27941L12.8125 7.27941ZM3.22722 13.0575C5.5812 16.1072 7.48973 16.4674 8.79625 16.1579C10.2277 15.8189 11.5156 14.5632 12.3795 13.1938C10.1304 10.1495 8.24708 9.78389 6.9274 10.09C5.47503 10.4269 4.14017 11.6854 3.22722 13.0575ZM1.98677 12.6765C3.95202 9.49682 8.58094 5.70014 13.5737 12.7115C13.7509 12.9603 13.7753 13.2938 13.6211 13.5575C11.7603 16.7382 7.2462 20.5564 2.03443 13.5531C1.84411 13.2973 1.81916 12.9477 1.98677 12.6765ZM7.7922 14.3749C8.40769 14.3749 8.96931 13.8503 8.96931 13.1249C8.96931 12.3994 8.40769 11.8749 7.7922 11.8749C7.1767 11.8749 6.61508 12.3994 6.61508 13.1249C6.61508 13.8503 7.1767 14.3749 7.7922 14.3749ZM7.7922 15.6249C9.13265 15.6249 10.2193 14.5056 10.2193 13.1249C10.2193 11.7441 9.13265 10.6249 7.7922 10.6249C6.45174 10.6249 5.36508 11.7441 5.36508 13.1249C5.36508 14.5056 6.45174 15.6249 7.7922 15.6249Z"/>
</svg>
