<svg xmlns="http://www.w3.org/2000/svg" viewBox="0 0 24 24"><defs><style>.cls-1{fill:none;}</style></defs><title>Reaction</title><g id="Layer_2" data-name="Layer 2"><g id="Elements_2" data-name="Elements 2"><path d="M5.49,10a1.57,1.57,0,1,1,1.23,1.23A1.57,1.57,0,0,1,5.49,10Zm5.18,8a5.71,5.71,0,0,0,4.34-2,1,1,0,0,0-.76-1.65H7.1a1,1,0,0,0-.76,1.65A5.67,5.67,0,0,0,10.67,18.07ZM14,11.27a1.56,1.56,0,0,0,1.84-1.84A1.55,1.55,0,0,0,14.62,8.2,1.57,1.57,0,0,0,12.78,10,1.59,1.59,0,0,0,14,11.27Zm6-11h0a1,1,0,0,0-1,1V3H17.39a1,1,0,0,0-1,1h0a1,1,0,0,0,1,1H19V6.66a1,1,0,0,0,1,1h0a1,1,0,0,0,1-1V5h1.62a1,1,0,0,0,1-1h0a1,1,0,0,0-1-1H21.09V1.34A1,1,0,0,0,20.05.3Zm-1,12a8.35,8.35,0,1,1-5.59-7.87,1,1,0,0,0,1.42-1h0a1.05,1.05,0,0,0-.71-1,10.42,10.42,0,1,0,7,9.83A10.29,10.29,0,0,0,20.83,10a1.06,1.06,0,0,0-1-.82h0a1,1,0,0,0-1,1.28A8.08,8.08,0,0,1,19,12.34Z"/><rect class="cls-1" width="24" height="24"/></g></g></svg>