<svg xmlns="http://www.w3.org/2000/svg" viewBox="0 0 24 24"><defs><style>.cls-1{fill:none;}</style></defs><title>Emoji</title><g id="Layer_2" data-name="Layer 2"><g id="Elements_2" data-name="Elements 2"><path d="M12,.25A11.75,11.75,0,1,0,23.75,12,11.75,11.75,0,0,0,12,.25Zm1.23,21.07a9.4,9.4,0,1,1,8.1-8.1A9.39,9.39,0,0,1,13.22,21.32Zm2.55-10.53a1.76,1.76,0,1,0-1.39-1.38A1.76,1.76,0,0,0,15.77,10.79Zm-8.23,0A1.76,1.76,0,1,0,6.16,9.41,1.76,1.76,0,0,0,7.54,10.79ZM12,18.46a6.42,6.42,0,0,0,5-2.36,1.07,1.07,0,0,0-.81-1.75H7.83A1.07,1.07,0,0,0,7,16.1,6.42,6.42,0,0,0,12,18.46Z"/><rect class="cls-1" width="24" height="24"/></g></g></svg>