<svg viewBox="0 0 32 32" xmlns="http://www.w3.org/2000/svg">
  <path
    d="M27 16C27 9.92487 22.0751 5 16 5C9.92487 5 5 9.92487 5 16C5 22.0751 9.92487 27 16 27C22.0751 27 27 22.0751 27 16ZM29 16C29 23.1797 23.1797 29 16 29C8.8203 29 3 23.1797 3 16C3 8.8203 8.8203 3 16 3C23.1797 3 29 8.8203 29 16ZM12.5052 15C11.4006 15 10.5052 14.1046 10.5052 13C10.5052 11.8954 11.4006 11 12.5052 11C13.6098 11 14.5052 11.8954 14.5052 13C14.5052 14.1046 13.6098 15 12.5052 15ZM21.5052 13C21.5052 14.1046 20.6098 15 19.5052 15C18.4006 15 17.5052 14.1046 17.5052 13C17.5052 11.8954 18.4006 11 19.5052 11C20.6098 11 21.5052 11.8954 21.5052 13ZM12 20C11.4477 20 11 20.4477 11 21C11 21.5523 11.4477 22 12 22H20C20.5523 22 21 21.5523 21 21C21 20.4477 20.5523 20 20 20H12Z"
  />
</svg>
