<svg viewBox="0 0 32 32" xmlns="http://www.w3.org/2000/svg">
	<path
    d="M5.5 3H21.5C22.0523 3 22.5 3.44772 22.5 4V7C22.5 7.55228 22.0523 8 21.5 8C20.9477 8 20.5 7.55228 20.5 7V5H6.5V27H20.5V25C20.5 24.4477 20.9477 24 21.5 24C22.0523 24 22.5 24.4477 22.5 25V28C22.5 28.5523 22.0523 29 21.5 29H5.5C4.94772 29 4.5 28.5523 4.5 28V4C4.5 3.44772 4.94772 3 5.5 3ZM28.2071 15.2929C28.5976 15.6834 28.5976 16.3166 28.2071 16.7071L23.2071 21.7071C22.8166 22.0976 22.1834 22.0976 21.7929 21.7071C21.4024 21.3166 21.4024 20.6834 21.7929 20.2929L25.0858 17H12C11.4477 17 11 16.5523 11 16C11 15.4477 11.4477 15 12 15H25.0858L21.7929 11.7071C21.4024 11.3166 21.4024 10.6834 21.7929 10.2929C22.1834 9.90237 22.8166 9.90237 23.2071 10.2929L28.2071 15.2929Z"
  />
</svg>
