<svg viewBox="0 0 32 32" xmlns="http://www.w3.org/2000/svg">
  <path
    d="M9 6C9 5.44772 9.44772 5 10 5H27C27.5523 5 28 5.44772 28 6C28 6.55229 27.5523 7 27 7L10 7C9.44772 7 9 6.55228 9 6ZM9 9C9 8.44772 9.44772 8 10 8L24 8C24.5523 8 25 8.44772 25 9C25 9.55229 24.5523 10 24 10L10 10C9.44772 10 9 9.55228 9 9ZM6 9.5C4.89543 9.5 4 8.60457 4 7.5C4 6.39543 4.89543 5.5 6 5.5C7.10457 5.5 8 6.39543 8 7.5C8 8.60457 7.10457 9.5 6 9.5Z M9 14.5C9 13.9477 9.44772 13.5 10 13.5H27C27.5523 13.5 28 13.9477 28 14.5C28 15.0523 27.5523 15.5 27 15.5L10 15.5C9.44772 15.5 9 15.0523 9 14.5ZM9 17.5C9 16.9477 9.44772 16.5 10 16.5L24 16.5C24.5523 16.5 25 16.9477 25 17.5C25 18.0523 24.5523 18.5 24 18.5L10 18.5C9.44772 18.5 9 18.0523 9 17.5ZM6 18C4.89543 18 4 17.1046 4 16C4 14.8954 4.89543 14 6 14C7.10457 14 8 14.8954 8 16C8 17.1046 7.10457 18 6 18Z M9 23C9 22.4477 9.44772 22 10 22H27C27.5523 22 28 22.4477 28 23C28 23.5523 27.5523 24 27 24L10 24C9.44772 24 9 23.5523 9 23ZM9 26C9 25.4477 9.44772 25 10 25L24 25C24.5523 25 25 25.4477 25 26C25 26.5523 24.5523 27 24 27L10 27C9.44772 27 9 26.5523 9 26ZM6 26.5C4.89543 26.5 4 25.6046 4 24.5C4 23.3954 4.89543 22.5 6 22.5C7.10457 22.5 8 23.3954 8 24.5C8 25.6046 7.10457 26.5 6 26.5Z"
  />
</svg>
