<svg viewBox="0 0 32 32" xmlns="http://www.w3.org/2000/svg">
	<path d="M18.5072 23.0885C22.0362 22.2267 25.0562 19.1804 26.9562 16.1176C24.4063 12.6853 22.0059 10.6991 19.8645 9.65749C17.6505 8.58061 15.6245 8.46744 13.7895 8.90886C10.2175 9.76807 7.08843 12.8176 5.08001 15.8848C10.5221 22.8991 15.1374 23.9114 18.5072 23.0885ZM28.9722 15.4879C29.1911 15.7935 29.2244 16.2074 29.0371 16.5334C25.067 23.4435 14.8525 32.2857 3.05738 16.5302C2.82235 16.2162 2.78823 15.782 2.99185 15.4468C7.18973 8.53698 17.6802 -0.277022 28.9722 15.4879ZM19.3334 16.0001C19.3334 14.1591 17.841 12.6668 16 12.6668C14.1591 12.6668 12.6667 14.1591 12.6667 16.0001C12.6667 17.841 14.1591 19.3334 16 19.3334C17.841 19.3334 19.3334 17.841 19.3334 16.0001ZM21.3334 16.0001C21.3334 18.9456 18.9455 21.3334 16 21.3334C13.0545 21.3334 10.6667 18.9456 10.6667 16.0001C10.6667 13.0546 13.0545 10.6668 16 10.6668C18.9455 10.6668 21.3334 13.0546 21.3334 16.0001Z"/>
</svg>
