<?xml version="1.0" ?>
<svg
  fill="#000000"
  xmlns="http://www.w3.org/2000/svg"
  viewBox="0 0 24 24"
  width="24px"
  height="24px"
>    <path
    d="M 12 2 C 6.486 2 2 6.262 2 11.5 C 2 14.045 3.088 16.487484 5 18.271484 L 5 22.617188 L 9.0800781 20.578125 C 10.039078 20.857125 11.02 21 12 21 C 17.514 21 22 16.738 22 11.5 C 22 6.262 17.514 2 12 2 z M 12 4 C 16.411 4 20 7.365 20 11.5 C 20 15.635 16.411 19 12 19 C 11.211 19 10.415672 18.884203 9.6386719 18.658203 L 8.8867188 18.439453 L 8.1855469 18.789062 L 7 19.382812 L 7 18.271484 L 7 17.402344 L 6.3632812 16.810547 C 4.8612813 15.408547 4 13.472 4 11.5 C 4 7.365 7.589 4 12 4 z M 11 9 L 6 14 L 10.5 12 L 13 14 L 18 9 L 13.5 11 L 11 9 z"
  /></svg>
