<svg
  width="26"
  height="26"
  viewBox="0 0 26 26"
  fill="none"
  xmlns="http://www.w3.org/2000/svg"
>
<path
    d="M12.9838 0C5.81024 0 0 5.4017 0 12.0725C0 15.8797 1.88265 19.2639 4.83645 21.4766L4.90137 25.7069C4.90137 25.9347 5.16105 26.0648 5.35581 25.9672L9.41323 23.6894C10.5493 23.9822 11.7503 24.1449 13.0162 24.1449C20.1898 24.1449 26 18.7432 26 12.0725C26 5.4017 20.1248 0 12.9838 0ZM13.9251 16.0099L11.166 13.1138C11.0037 12.9511 10.7441 12.9185 10.5493 13.0161L5.6804 15.6519C5.48564 15.7495 5.32335 15.5218 5.45318 15.359L11.1985 9.24146C11.3608 9.07876 11.6529 9.07876 11.8152 9.24146L14.5743 12.2026C14.7366 12.3653 14.9963 12.4304 15.191 12.3003L19.9625 9.69703C20.1573 9.59941 20.3196 9.82719 20.1898 9.98989L14.5418 16.0099C14.3795 16.1726 14.0874 16.1726 13.9251 16.0099Z"
    fill="#6C727A"
  />
</svg>
