<svg viewBox="0 0 32 32" xmlns="http://www.w3.org/2000/svg">
<path
    d="M25.7594 24.3347L19.3323 13.0212V6.76H20.1658C20.3869 6.76 20.5989 6.66729 20.7552 6.50225C20.9115 6.33722 20.9993 6.11339 20.9993 5.88C20.9993 5.64661 20.9115 5.42278 20.7552 5.25775C20.5989 5.09271 20.3869 5 20.1658 5H11.8311C11.61 5 11.398 5.09271 11.2417 5.25775C11.0854 5.42278 10.9976 5.64661 10.9976 5.88C10.9976 6.11339 11.0854 6.33722 11.2417 6.50225C11.398 6.66729 11.61 6.76 11.8311 6.76H12.6645V13.0212L6.23743 24.3347C6.08585 24.6015 6.00397 24.906 6.00014 25.2171C5.99631 25.5282 6.07067 25.8349 6.21563 26.1058C6.3606 26.3767 6.57099 26.6021 6.82537 26.7592C7.07974 26.9163 7.36902 26.9994 7.66371 27H24.3332C24.6281 27 24.9178 26.9173 25.1726 26.7605C25.4274 26.6036 25.6383 26.3782 25.7836 26.1072C25.9289 25.8362 26.0036 25.5294 25.9999 25.218C25.9962 24.9066 25.9143 24.6018 25.7626 24.3347H25.7594ZM14.2127 13.7175C14.2907 13.5811 14.3317 13.4247 14.3315 13.2654V6.76H17.6654V13.2654C17.6651 13.4247 17.7062 13.5811 17.7842 13.7175L21.7661 20.73C20.5159 20.9907 18.7374 20.8807 16.3745 19.6179C14.717 18.7324 13.1396 18.2627 11.6633 18.2088L14.2127 13.7175ZM7.66371 25.24L10.6371 20.0062C12.1217 19.8148 13.7949 20.2097 15.6192 21.1854C17.5987 22.2425 19.2657 22.6022 20.62 22.6022C21.3089 22.6054 21.9946 22.5054 22.6568 22.3052L24.3332 25.24H7.66371Z"
  />
</svg>
