<svg viewBox="0 0 32 32" xmlns="http://www.w3.org/2000/svg">
  <path
    d="M27.7113 24.9713L20 12.115V5H21C21.2652 5 21.5196 4.89464 21.7071 4.70711C21.8947 4.51957 22 4.26522 22 4C22 3.73478 21.8947 3.48043 21.7071 3.29289C21.5196 3.10536 21.2652 3 21 3H11C10.7348 3 10.4805 3.10536 10.2929 3.29289C10.1054 3.48043 10 3.73478 10 4C10 4.26522 10.1054 4.51957 10.2929 4.70711C10.4805 4.89464 10.7348 5 11 5H12V12.115L4.28878 24.9713C4.10691 25.2745 4.00867 25.6205 4.00408 25.974C3.99948 26.3276 4.08869 26.676 4.26262 26.9838C4.43655 27.2917 4.68898 27.5479 4.99418 27.7264C5.29938 27.9049 5.64646 27.9993 6.00003 28H26C26.3539 28 26.7015 27.9061 27.0072 27.7278C27.3129 27.5496 27.5659 27.2934 27.7403 26.9855C27.9146 26.6775 28.0042 26.3288 27.9997 25.9749C27.9953 25.6211 27.8971 25.2747 27.715 24.9713H27.7113ZM13.8575 12.9062C13.9511 12.7512 14.0003 12.5736 14 12.3925V5H18V12.3925C17.9997 12.5736 18.049 12.7512 18.1425 12.9062L22.92 20.875C21.42 21.1712 19.2863 21.0462 16.4513 19.6112C14.4625 18.605 12.57 18.0712 10.7988 18.01L13.8575 12.9062ZM6.00003 26L9.56753 20.0525C11.3488 19.835 13.3563 20.2838 15.545 21.3925C17.92 22.5938 19.92 23.0025 21.545 23.0025C22.3715 23.0062 23.1943 22.8925 23.9888 22.665L26 26H6.00003Z"
  />
</svg>
