<svg xmlns="http://www.w3.org/2000/svg" viewBox="0 0 24 24"><defs><style>.cls-1{fill:none;}</style></defs><title>Directory</title><g id="Layer_2" data-name="Layer 2"><g id="Elements_2" data-name="Elements 2"><path d="M18.93,18.33A2.34,2.34,0,0,0,16.7,16.7H15.53V13.18A1.18,1.18,0,0,0,14.35,12h-7V9.65H9.65a1.17,1.17,0,0,0,1.17-1.18V6.12h2.35a2.35,2.35,0,0,0,2.36-2.34V3.29a9.38,9.38,0,0,1,3.4,15m-8.11,3A9.39,9.39,0,0,1,2.6,12a9,9,0,0,1,.25-2.1l5.63,5.63V16.7a2.35,2.35,0,0,0,2.34,2.35M12,.25A11.75,11.75,0,1,0,23.75,12,11.75,11.75,0,0,0,12,.25Z"/><rect class="cls-1" width="24" height="24"/></g></g></svg>