<svg viewBox="0 0 32 32" xmlns="http://www.w3.org/2000/svg">
<path d="M16 3C18.503 3 20.8407 3.70737 22.8243 4.93309L21.3635 6.39391C20.5903 5.96133 19.7596 5.61937 18.8857 5.38242C19.266 6.08225 19.6069 6.91665 19.8984 7.85896L18.2734 9.48394C18.0967 8.76538 17.8932 8.10879 17.6689 7.52562C17.2682 6.48379 16.84 5.77791 16.4665 5.36719C16.2041 5.0786 16.0468 5.01436 16 5.00163C15.9532 5.01436 15.7959 5.0786 15.5335 5.36719C15.16 5.77791 14.7319 6.48379 14.3312 7.52562C13.8218 8.84989 13.4195 10.5527 13.1956 12.5H15.2573L13.2573 14.5H13.035C13.0314 14.5772 13.028 14.6547 13.0249 14.7324L11.0082 16.7492C11.0028 16.5013 11 16.2515 11 16C11 15.4927 11.0112 14.9922 11.0329 14.5H5.10141C5.03454 14.9905 5 15.4912 5 16C5 17.04 5.14434 18.0464 5.41408 19H8.75731L6.75731 21H6.19944C6.26206 21.1225 6.3269 21.2437 6.39391 21.3634L4.93309 22.8243C3.70737 20.8407 3 18.503 3 16C3 8.8203 8.8203 3 16 3ZM27.0669 9.17573L25.6061 10.6366C25.9361 11.2263 26.2134 11.8496 26.4315 12.5H23.7426L21.7426 14.5H26.8986C26.9655 14.9905 27 15.4912 27 16C27 17.04 26.8557 18.0464 26.5859 19H20.8662C20.9537 18.037 21 17.0326 21 16C21 15.7486 20.9973 15.4987 20.9919 15.2508L18.9751 17.2675C18.9516 17.8615 18.9118 18.4401 18.8574 19H17.2426L15.2426 21H18.5892C18.3589 22.3268 18.0427 23.5026 17.6689 24.4745C17.2682 25.5163 16.84 26.2222 16.4665 26.6329C16.2041 26.9215 16.0469 26.9857 16 26.9985C15.9532 26.9857 15.7959 26.9215 15.5335 26.6329C15.16 26.2222 14.7319 25.5163 14.3312 24.4745C14.1069 23.8913 13.9033 23.2346 13.7266 22.5161L12.1016 24.141C12.3931 25.0833 12.734 25.9177 13.1142 26.6176C12.2403 26.3806 11.4097 26.0387 10.6366 25.6061L9.17574 27.0669C11.1553 28.2902 13.4877 28.9972 15.9851 29H16H16.015C23.1878 28.9919 29 23.1747 29 16C29 13.497 28.2926 11.1593 27.0669 9.17573ZM13.1143 5.38241C9.56582 6.34453 6.72958 9.03805 5.56851 12.5H11.1833C11.4958 9.58669 12.1888 7.08586 13.1143 5.38241ZM18.8858 26.6176C19.6481 25.2144 20.2527 23.2702 20.6168 21H25.8006C24.4052 23.7297 21.903 25.7995 18.8858 26.6176ZM25.7929 4.79289C26.1834 4.40237 26.8166 4.40237 27.2071 4.79289C27.5976 5.18342 27.5976 5.81658 27.2071 6.20711L6.20711 27.2071C5.81658 27.5976 5.18342 27.5976 4.79289 27.2071C4.40237 26.8166 4.40237 26.1834 4.79289 25.7929L25.7929 4.79289Z"/>
</svg>
