<svg viewBox="0 0 32 32" xmlns="http://www.w3.org/2000/svg">
  <path
    d="M27 16C27 15.4912 26.9655 14.9905 26.8986 14.5H20.9671C20.9888 14.9922 21 15.4927 21 16C21 17.0326 20.9537 18.037 20.8662 19H26.5859C26.8557 18.0464 27 17.04 27 16ZM18.965 14.5H13.035C13.012 14.9897 13 15.4902 13 16C13 17.0437 13.0502 18.0486 13.1426 19H18.8574C18.9499 18.0486 19 17.0437 19 16C19 15.4902 18.9881 14.9897 18.965 14.5ZM20.8167 12.5H26.4315C25.2704 9.03806 22.4342 6.34455 18.8857 5.38242C19.8112 7.08587 20.5042 9.5867 20.8167 12.5ZM13.1143 5.38241C9.56582 6.34453 6.72958 9.03805 5.56851 12.5H11.1833C11.4958 9.58669 12.1888 7.08586 13.1143 5.38241ZM13.1956 12.5H18.8044C18.5806 10.5527 18.1782 8.84989 17.6689 7.52562C17.2682 6.48379 16.84 5.77791 16.4665 5.36719C16.2041 5.0786 16.0468 5.01436 16 5.00163C15.9532 5.01436 15.7959 5.0786 15.5335 5.36719C15.16 5.77791 14.7319 6.48379 14.3312 7.52562C13.8218 8.84989 13.4195 10.5527 13.1956 12.5ZM11.0329 14.5H5.10141C5.03454 14.9905 5 15.4912 5 16C5 17.04 5.14434 18.0464 5.41408 19H11.1338C11.0463 18.037 11 17.0326 11 16C11 15.4927 11.0112 14.9922 11.0329 14.5ZM11.3832 21H6.19944C7.59483 23.7297 10.0971 25.7995 13.1142 26.6176C12.3519 25.2144 11.7473 23.2702 11.3832 21ZM16.0149 29C16.01 29 16.005 29 16 29C15.995 29 15.9901 29 15.9851 29C8.81224 28.9919 3 23.1747 3 16C3 8.8203 8.8203 3 16 3C23.1797 3 29 8.8203 29 16C29 23.1747 23.1878 28.9919 16.0149 29ZM18.8858 26.6176C21.903 25.7995 24.4052 23.7297 25.8006 21H20.6168C20.2527 23.2702 19.6481 25.2144 18.8858 26.6176ZM18.5892 21H13.4109C13.6412 22.3268 13.9574 23.5026 14.3312 24.4745C14.7319 25.5163 15.16 26.2222 15.5335 26.6329C15.7959 26.9215 15.9532 26.9857 16 26.9985C16.0468 26.9857 16.2041 26.9215 16.4665 26.6329C16.84 26.2222 17.2682 25.5163 17.6689 24.4745C18.0427 23.5026 18.3589 22.3268 18.5892 21Z"
  />
</svg>
