<svg viewBox="0 0 32 32" xmlns="http://www.w3.org/2000/svg">
    <path
    d="M27.8372 3.29289C28.2159 3.68342 28.2159 4.31658 27.8372 4.70711L25.1289 7.5L27.8372 10.2929C28.2159 10.6834 28.2159 11.3166 27.8372 11.7071C27.4585 12.0976 26.8445 12.0976 26.4658 11.7071L23.7576 8.91421L21.0493 11.7071C20.6706 12.0976 20.0566 12.0976 19.678 11.7071C19.2993 11.3166 19.2993 10.6834 19.678 10.2929L22.3862 7.5L19.678 4.70711C19.2993 4.31658 19.2993 3.68342 19.678 3.29289C20.0566 2.90237 20.6706 2.90237 21.0493 3.29289L23.7576 6.08579L26.4658 3.29289C26.8445 2.90237 27.4585 2.90237 27.8372 3.29289Z"
  />
    <path
    d="M15.4869 3.95869C15.532 4.50901 15.1361 4.99289 14.6025 5.03947C9.13914 5.51632 4.84848 10.2419 4.84848 15.9998C4.84848 22.075 9.62411 26.9998 15.5151 26.9998C21.4062 26.9998 26.1818 22.075 26.1818 15.9998C26.1818 15.4475 26.6159 14.9998 27.1515 14.9998C27.6871 14.9998 28.1212 15.4475 28.1212 15.9998C28.1212 23.1795 22.4773 28.9998 15.5151 28.9998C8.55302 28.9998 2.90909 23.1795 2.90909 15.9998C2.90909 9.19386 7.98003 3.61035 14.4389 3.04659C14.9725 3.00001 15.4417 3.40837 15.4869 3.95869Z"
  />
    <path
    d="M3.57173 13.5147C3.57173 12.9624 4.00587 12.5147 4.54143 12.5147H14.5122C15.0478 12.5147 15.4819 12.9624 15.4819 13.5147C15.4819 14.0669 15.0478 14.5147 14.5122 14.5147H4.54143C4.00587 14.5147 3.57173 14.0669 3.57173 13.5147Z"
  />
    <path
    d="M3.57218 20C3.57218 19.4477 4.00632 19 4.54187 19H26.489C27.0246 19 27.4587 19.4477 27.4587 20C27.4587 20.5523 27.0246 21 26.489 21H4.54187C4.00632 21 3.57218 20.5523 3.57218 20Z"
  />
    <path
    d="M15.2562 3.78407C15.5931 4.2134 15.5287 4.84307 15.1124 5.19049C14.8498 5.40963 14.5401 5.81982 14.2263 6.47052C13.9179 7.11025 13.6321 7.92685 13.389 8.89512C12.9028 10.8312 12.6061 13.2976 12.6061 16C12.6061 19.2361 13.0315 22.1244 13.6924 24.1691C14.0245 25.1966 14.3986 25.956 14.7669 26.438C15.1439 26.9313 15.404 26.9998 15.5151 26.9998C15.6263 26.9998 15.8863 26.9313 16.2634 26.438C16.6317 25.956 17.0058 25.1966 17.3379 24.1691C17.9988 22.1244 18.4242 19.2361 18.4242 16C18.4242 15.4477 18.8584 15 19.3939 15C19.9295 15 20.3636 15.4477 20.3636 16C20.3636 19.3913 19.9208 22.503 19.1778 24.8015C18.808 25.9455 18.3464 26.9435 17.7866 27.676C17.2354 28.3972 16.4751 28.9998 15.5151 28.9998C14.5551 28.9998 13.7949 28.3972 13.2437 27.676C12.6839 26.9435 12.2223 25.9455 11.8525 24.8015C11.1095 22.503 10.6667 19.3913 10.6667 16C10.6667 13.1589 10.9775 10.5207 11.5116 8.39375C11.7785 7.33046 12.1061 6.37586 12.4898 5.58005C12.8683 4.79521 13.3295 4.10553 13.8925 3.63576C14.3087 3.28834 14.9194 3.35475 15.2562 3.78407Z"
  />
</svg>
