<svg viewBox="0 0 32 32" xmlns="http://www.w3.org/2000/svg">
<path
    fill-rule="evenodd"
    clip-rule="evenodd"
    d="M6.64729 13.4142L6.63804 13.4235L3.19384 16.8677C2.81683 17.2447 2.82778 17.8669 3.2183 18.2574C3.60882 18.6479 4.23104 18.6589 4.60806 18.2819L6.06151 16.8284V25.9999C6.06151 27.1045 6.95694 27.9999 8.06151 27.9999H24.0615C25.1661 27.9999 26.0615 27.1045 26.0615 25.9999V16.8273L27.4765 18.2423C27.8535 18.6193 28.4757 18.6084 28.8662 18.2178C29.2568 17.8273 29.2677 17.2051 28.8907 16.8281L17.7056 5.64298C17.6967 5.63412 17.6877 5.62548 17.6786 5.61705L17.4757 5.41416C16.6947 4.63311 15.4283 4.63311 14.6473 5.41415L6.64729 13.4142ZM24.0615 25.9999V14.8284L16.0615 6.82837L15.7995 7.09039L15.7932 7.09678L8.06151 14.8284V25.9999H24.0615Z"
  />
</svg>
