<svg xmlns="http://www.w3.org/2000/svg" viewBox="0 0 24 24"><defs><style>.cls-1{fill:none;}</style></defs><title>Home</title><g id="Layer_2" data-name="Layer 2"><g id="Elements_2" data-name="Elements 2"><path d="M20.87,5.15,14.19.89a4.08,4.08,0,0,0-4.38,0L3.13,5.15h0A4.05,4.05,0,0,0,1.25,8.58v11.1a4.08,4.08,0,0,0,4.07,4.07H18.68a4.08,4.08,0,0,0,4.07-4.07V8.58A4.05,4.05,0,0,0,20.87,5.15Zm-10-2.53a2.05,2.05,0,0,1,2.16,0l6.68,4.26.08.06H4.16l.08-.05ZM15,21.69H9V16.94a1.21,1.21,0,0,1,1.2-1.21h3.57A1.21,1.21,0,0,1,15,16.94Zm3.69,0H17.05V16.94a3.27,3.27,0,0,0-3.26-3.27H10.22A3.28,3.28,0,0,0,7,16.94v4.75H5.32a2,2,0,0,1-2-2V9H20.69V19.68A2,2,0,0,1,18.68,21.69Z"/><rect class="cls-1" width="24" height="24"/></g></g></svg>