<svg viewBox="0 0 32 32" xmlns="http://www.w3.org/2000/svg">
  <path d="M18.0714 5.59483L24.6905 11.913L27.6905 14.7766C27.9861 15.0588 28.0803 15.4925 27.9283 15.8719C27.7763 16.2513 27.4087 16.5 27 16.5H25V25C25 26.6569 23.6569 28 22 28H10C8.34315 28 7 26.6569 7 25V16.5H5C4.5913 16.5 4.22374 16.2513 4.07173 15.8719C3.91973 15.4925 4.01389 15.0588 4.30952 14.7766L7.30952 11.913L13.9286 5.59483C15.0878 4.48825 16.9122 4.48825 18.0714 5.59483ZM9 15.5V25C9 25.5523 9.44772 26 10 26H14V20C14 19.4477 14.4477 19 15 19H17C17.5523 19 18 19.4477 18 20V26H22C22.5523 26 23 25.5523 23 25V13.0643L16.6905 7.04154C16.3041 6.67268 15.6959 6.67268 15.3095 7.04154L9 13.0643V15.5Z"/>
</svg>
