<svg viewBox="0 0 32 32" xmlns="http://www.w3.org/2000/svg">
  <path
    d="M12 13C12 14.1046 11.1046 15 10 15C8.89543 15 8 14.1046 8 13C8 11.8954 8.89543 11 10 11C11.1046 11 12 11.8954 12 13Z M3 6C3 5.44772 3.44772 5 4 5H28C28.5523 5 29 5.44772 29 6V26C29 26.5523 28.5523 27 28 27H4C3.44772 27 3 26.5523 3 26V6ZM5 23.8801L9.74075 18.3492C10.0304 18.0113 10.5086 17.9054 10.9138 18.0896L15.6989 20.2647L20.7137 13.8822C20.9015 13.6431 21.1879 13.5025 21.4918 13.5C21.7958 13.4975 22.0844 13.6335 22.2761 13.8694L27 19.6834V7H5V23.8801ZM6.67423 25H27V22.855L21.5131 16.1019L16.3011 22.7353L10.7703 20.2213L6.67423 25Z"
  />
</svg>
