<svg viewBox="0 0 32 32" xmlns="http://www.w3.org/2000/svg">
  <path
    d="M19.354 3.10905C19.7528 3.31223 19.968 3.75561 19.8809 4.19458L18.3456 11.9356L24.3537 14.2075C24.6649 14.3252 24.8972 14.5899 24.9734 14.9137C25.0496 15.2375 24.9599 15.578 24.7339 15.8222L12.8339 28.6793C12.5299 29.0077 12.0447 29.0942 11.646 28.891C11.2473 28.6878 11.0321 28.2445 11.1191 27.8055L12.6544 20.0645L6.64631 17.7925C6.33515 17.6749 6.10288 17.4102 6.02664 17.0864C5.95039 16.7626 6.04016 16.4221 6.26612 16.1779L18.1661 3.32078C18.4701 2.99234 18.9553 2.90586 19.354 3.10905ZM8.74232 16.4469L14.1537 18.4933C14.6108 18.6661 14.876 19.1439 14.7809 19.6232L13.7691 24.7245L22.2577 15.5532L16.8463 13.5068C16.3893 13.334 16.1241 12.8562 16.2191 12.3769L17.2309 7.27561L8.74232 16.4469Z"
  />
</svg>
