<svg
  width="26"
  height="25"
  viewBox="0 0 26 25"
  fill="none"
  xmlns="http://www.w3.org/2000/svg"
>
<path
    d="M13.0012 0C5.93931 0 0 4.6743 0 10.6701C0 16.0174 4.70569 20.3571 10.8333 21.1915C10.9743 21.2221 11.1252 21.2712 11.2214 21.3136C11.2123 21.3665 11.2341 21.6118 11.2045 21.8359V21.8371C11.1966 21.8848 11.0656 22.6667 11.0377 22.8298L11.0389 22.8286C10.9924 23.0966 10.8433 23.5446 11.2589 24.1731C11.4667 24.4873 11.935 24.7542 12.3544 24.7619C12.7738 24.7696 13.1258 24.6317 13.5114 24.4197C16.3269 22.8715 19.3858 21.1246 21.796 18.9305C24.2063 16.7365 26 14.0147 26 10.6701C26 4.67452 20.0631 0 13.0012 0ZM13.0012 1.85714C19.2501 1.85714 24.1429 5.92274 24.1429 10.6701C24.1429 13.3581 22.737 15.5624 20.5459 17.557C18.4447 19.4696 15.6502 21.1053 12.9613 22.5916C12.9969 22.3784 13.0411 22.1116 13.0411 22.1116L13.0435 22.0971L13.0459 22.0826C13.0924 21.7343 13.2223 21.2117 12.9492 20.5289L12.948 20.5277V20.5265C12.7415 20.0159 12.3591 19.794 12.0533 19.6475C11.7474 19.501 11.458 19.4257 11.2178 19.3743L11.1815 19.367L11.1441 19.3622C5.70369 18.6464 1.85714 14.9336 1.85714 10.6701C1.85714 5.92296 6.75235 1.85714 13.0012 1.85714ZM10.1079 7.51321C9.75874 7.51321 9.47433 7.79526 9.47433 8.14193V12.9045C9.47433 13.2518 9.75813 13.5332 10.1079 13.5332C10.457 13.5332 10.7414 13.2511 10.7414 12.9045V8.14193C10.7414 7.79526 10.4576 7.51321 10.1079 7.51321ZM12.2866 7.51321C12.2185 7.51321 12.1503 7.52418 12.0847 7.54585C11.826 7.6319 11.6519 7.8714 11.6519 8.14193V12.9045C11.6519 13.2518 11.9369 13.5332 12.2866 13.5332C12.637 13.5332 12.9214 13.2511 12.9214 12.9045V9.95917L15.3819 13.2817C15.5007 13.439 15.6904 13.5332 15.8885 13.5332C15.956 13.5332 16.0236 13.5222 16.0892 13.5006C16.3492 13.4157 16.5233 13.1762 16.5233 12.9045V8.14072C16.5233 7.79405 16.2395 7.51321 15.8897 7.51321C15.5399 7.51321 15.2549 7.79405 15.2549 8.14072V11.0884L12.7932 7.76469C12.6744 7.60746 12.4841 7.51321 12.2866 7.51321ZM5.85677 7.51441C5.50763 7.51441 5.22321 7.79526 5.22321 8.14193V12.9057C5.22321 13.253 5.50701 13.5344 5.85677 13.5344H8.258C8.60776 13.5344 8.89096 13.2511 8.89035 12.9045C8.89035 12.5578 8.60776 12.2758 8.258 12.2758H6.48912V8.14193C6.48912 7.79526 6.20653 7.51441 5.85677 7.51441ZM18.008 7.51441C17.6589 7.51441 17.3744 7.79647 17.3744 8.14313V8.14434V10.5226V10.5238V10.525V12.9045C17.3744 13.2518 17.6595 13.5332 18.008 13.5332H20.4092C20.759 13.5332 21.044 13.2511 21.044 12.9045C21.044 12.5578 20.759 12.2758 20.4092 12.2758H18.6416V11.1513H20.4092C20.7596 11.1513 21.044 10.8693 21.044 10.5226C21.044 10.1753 20.759 9.89388 20.4092 9.89388V9.8963H18.6416V8.77186H20.4092C20.7596 8.77186 21.044 8.4898 21.044 8.14313C21.044 7.79647 20.759 7.51441 20.4092 7.51441H18.008Z"
    fill="#6C727A"
  />
</svg>
