<svg xmlns="http://www.w3.org/2000/svg" viewBox="0 0 24 24"><defs><style>.cls-1{fill:none;}</style></defs><title>List</title><g id="Layer_2" data-name="Layer 2"><g id="Elements_2" data-name="Elements 2"><path d="M18.66,4.6V19.85a1.21,1.21,0,0,1-2.41,0V4.6a1.21,1.21,0,0,1,2.41,0Z"/><path d="M23.73,15.24a1.17,1.17,0,0,1-.36.85l-4.59,4.59a1.86,1.86,0,0,1-1.32.55,1.88,1.88,0,0,1-1.33-.55l-4.59-4.59a1.2,1.2,0,0,1,1.7-1.7l4.22,4.22,4.21-4.22a1.21,1.21,0,0,1,2.06.85Z"/><path d="M9.05,13h0L1.19,13A1,1,0,0,1,1.2,11h0l7.86,0a1,1,0,1,1,0,1.93Z"/><path d="M9.06,8.17h0l-7.86,0a1,1,0,0,1-1-1,1,1,0,0,1,1-1h0l7.86,0a1,1,0,0,1,.95,1A1,1,0,0,1,9.06,8.17Z"/><path d="M9,17.78H9l-7.85,0a1,1,0,0,1,0-1.92h0l7.86,0a1,1,0,0,1,1,1A1,1,0,0,1,9,17.78Z"/><rect class="cls-1" width="24" height="24"/></g></g></svg>