<svg viewBox="0 0 32 32" xmlns="http://www.w3.org/2000/svg">
  <path
    d="M8 8C8 9.10457 7.10457 10 6 10C4.89543 10 4 9.10457 4 8C4 6.89543 4.89543 6 6 6C7.10457 6 8 6.89543 8 8ZM8 16C8 17.1046 7.10457 18 6 18C4.89543 18 4 17.1046 4 16C4 14.8954 4.89543 14 6 14C7.10457 14 8 14.8954 8 16ZM8 24C8 25.1046 7.10457 26 6 26C4.89543 26 4 25.1046 4 24C4 22.8954 4.89543 22 6 22C7.10457 22 8 22.8954 8 24ZM10 8C10 7.44772 10.4477 7 11 7H27C27.5523 7 28 7.44772 28 8C28 8.55228 27.5523 9 27 9H11C10.4477 9 10 8.55228 10 8ZM11.0005 15C10.4482 15 10.0005 15.4477 10.0005 16C10.0005 16.5523 10.4482 17 11.0005 17H26.9997C27.552 17 27.9997 16.5523 27.9997 16C27.9997 15.4477 27.552 15 26.9997 15H11.0005ZM11.0005 23C10.4482 23 10.0005 23.4477 10.0005 24C10.0005 24.5523 10.4482 25 11.0005 25H26.9997C27.552 25 27.9997 24.5523 27.9997 24C27.9997 23.4477 27.552 23 26.9997 23H11.0005Z"
  />
</svg>
