<svg viewBox="0 0 32 32" xmlns="http://www.w3.org/2000/svg">
  <path
    d="M9.37897 5.5C9.37897 2.6005 11.7295 0.25 14.629 0.25C15.306 0.25 15.9548 0.378535 16.5511 0.613219L17.6533 1.04704L14.7482 3.77492C14.4438 4.06071 14.4314 4.54002 14.7206 4.84115L15.2239 5.36528C15.517 5.67047 16.0044 5.67294 16.3005 5.37075L19.1011 2.51306L19.5226 3.59544C19.753 4.18688 19.879 4.82962 19.879 5.5C19.879 8.3995 17.5285 10.75 14.629 10.75C14.2353 10.75 13.8511 10.7065 13.4811 10.624L5.56103 18.7957C4.66942 19.6984 3.2081 19.6857 2.33224 18.7677L1.43457 17.8269C0.578108 16.9292 0.610166 15.508 1.50511 14.6498L9.52856 6.74872C9.43073 6.34792 9.37897 5.9296 9.37897 5.5ZM14.629 1.75C12.5579 1.75 10.879 3.42893 10.879 5.5C10.879 5.93001 10.951 6.3416 11.0832 6.72432L11.2377 7.17191L2.54902 15.727L2.54489 15.7309C2.2451 16.0168 2.23389 16.4917 2.51986 16.7914L3.41752 17.7323C3.70868 18.0374 4.19392 18.0425 4.49135 17.744L13.0344 8.92754L13.479 9.0706C13.8404 9.1869 14.2266 9.25 14.629 9.25C16.7 9.25 18.379 7.57107 18.379 5.5C18.379 5.46469 18.3785 5.42951 18.3775 5.39446L17.3718 6.42065C16.4833 7.32724 15.0212 7.31982 14.142 6.40426L13.6387 5.88013C12.7711 4.97673 12.8083 3.53879 13.7214 2.68142L14.7124 1.75091C14.6846 1.7503 14.6568 1.75 14.629 1.75Z"
  />
</svg>
