<svg viewBox="0 0 32 32" xmlns="http://www.w3.org/2000/svg">
  <path d="M19 9C19 7.34315 17.6569 6 16 6C14.3431 6 13 7.34315 13 9V10.2572L11.0479 8.30511C11.3861 5.87259 13.4744 4 16 4C18.7614 4 21 6.23858 21 9V13C21 14.4461 20.3861 15.7489 19.4046 16.6618L17.9888 15.246C18.6091 14.6964 19 13.8939 19 13V9ZM11.1036 14.0177C11.5058 15.9625 13.0375 17.4942 14.9823 17.8964L11.1036 14.0177ZM18.9448 21.8589C18.265 22.1137 17.6019 22.2842 17 22.3869V26H22C22.5523 26 23 26.4477 23 27C23 27.5523 22.5523 28 22 28H10C9.44772 28 9 27.5523 9 27C9 26.4477 9.44772 26 10 26H15V22.3869C13.605 22.1488 11.8807 21.5464 10.3837 20.375C8.48672 18.8906 7 16.5223 7 13C7 12.4477 7.44772 12 8 12C8.55229 12 9 12.4477 9 13C9 15.8777 10.18 17.676 11.6163 18.8C13.0683 19.9362 14.8268 20.4119 16 20.4977C16.3959 20.4687 16.8584 20.3954 17.3532 20.2673L18.9448 21.8589ZM20.9999 18.2571C22.1426 17.1218 23 15.4531 23 13C23 12.4477 23.4477 12 24 12C24.5523 12 25 12.4477 25 13C25 16.0105 23.914 18.178 22.4139 19.6711L20.9999 18.2571ZM4.7812 4.78117C5.17173 4.39065 5.80489 4.39065 6.19542 4.78117L27.1875 25.7732C27.578 26.1637 27.578 26.7969 27.1875 27.1874C26.7969 27.5779 26.1638 27.5779 25.7732 27.1874L4.78121 6.19539C4.39068 5.80486 4.39068 5.1717 4.7812 4.78117Z"/>
</svg>
