<svg xmlns="http://www.w3.org/2000/svg" viewBox="0 0 32 32">
<path
    fill-rule='evenodd'
    clip-rule='evenodd'
    d="M10,2.7c-1.5,0-2.7,1.2-2.7,2.7v21.3c0,1.5,1.2,2.7,2.7,2.7h12c1.5,0,2.7-1.2,2.7-2.7V5.3
	c0-1.5-1.2-2.7-2.7-2.7H10z M10,4.7C9.6,4.7,9.3,5,9.3,5.3v21.3c0,0.4,0.3,0.7,0.7,0.7h12c0.4,0,0.7-0.3,0.7-0.7V5.3
	c0-0.4-0.3-0.7-0.7-0.7h-3C18.9,5.4,18.3,6,17.5,6h-3c-0.8,0-1.4-0.6-1.5-1.3H10z M16,11c0.6,0,1,0.4,1,1v7c0,0.6-0.4,1-1,1
	c-0.6,0-1-0.4-1-1v-7C15,11.4,15.4,11,16,11z M16,21c0.6,0,1,0.4,1,1s-0.4,1-1,1c-0.6,0-1-0.4-1-1S15.4,21,16,21z"
  />
</svg>
