<svg viewBox="0 0 32 32" xmlns="http://www.w3.org/2000/svg">
	<path
    d="M10.0002 4.66699H22.0002C22.3684 4.66699 22.6668 4.96547 22.6668 5.33366V26.667C22.6668 27.0352 22.3684 27.3337 22.0002 27.3337H10.0002C9.63197 27.3337 9.3335 27.0352 9.3335 26.667V5.33366C9.3335 4.96547 9.63197 4.66699 10.0002 4.66699ZM10.0002 2.66699C8.5274 2.66699 7.3335 3.8609 7.3335 5.33366V26.667C7.3335 28.1398 8.5274 29.3337 10.0002 29.3337H22.0002C23.4729 29.3337 24.6668 28.1397 24.6668 26.667V5.33366C24.6668 3.8609 23.4729 2.66699 22.0002 2.66699H10.0002Z"
  />
	<path
    d="M13.0002 4.5C13.0002 3.67157 13.6718 3 14.5002 3H17.5002C18.3286 3 19.0002 3.67157 19.0002 4.5C19.0002 5.32843 18.3286 6 17.5002 6H14.5002C13.6718 6 13.0002 5.32843 13.0002 4.5Z"
  />
	<path
    d="M20.6469 11.2373C21.0682 11.5945 21.1201 12.2255 20.7629 12.6468L14.8269 19.6468C14.6369 19.8709 14.3578 20.0001 14.064 20C13.7701 19.9999 13.4911 19.8706 13.3012 19.6463L11.2371 17.2096C10.8802 16.7882 10.9324 16.1572 11.3538 15.8002C11.7753 15.4433 12.4063 15.4955 12.7632 15.9169L14.0647 17.4533L19.2375 11.3532C19.5947 10.932 20.2257 10.8801 20.6469 11.2373Z"
  />
</svg>
