<svg viewBox="0 0 32 32" xmlns="http://www.w3.org/2000/svg">
  <path d="M9.93424 7.23619C7.9692 8.78318 5.71282 11.5033 5.49861 15.5526C5.31855 18.9564 6.66747 21.4022 8.30847 23.0998C9.97281 24.8217 11.9241 25.7537 12.8162 26.0511C14.1244 26.4872 16.3872 26.9741 20.1489 25.5635C21.2382 25.155 22.4352 24.2479 23.5333 23.1126C23.9794 22.6515 24.3963 22.1659 24.7708 21.6823C23.8716 21.9727 22.8427 22.2371 21.7524 22.4196C19.9965 22.7135 18.0247 22.8046 16.1459 22.4122C16.068 22.3959 15.9909 22.38 15.9143 22.3642C15.2208 22.2211 14.5789 22.0887 13.9585 21.8126C13.2368 21.4915 12.5895 21.0036 11.7929 20.2069C10.4773 18.8914 9.00719 16.8562 9.00002 13.5243C8.95099 12.4592 9.14444 10.9656 9.43012 9.48626C9.57464 8.73794 9.74707 7.97174 9.93424 7.23619ZM10.7565 4.31903C11.7815 3.78309 12.7474 4.81414 12.4402 5.75363C12.0578 6.92281 11.6719 8.42584 11.3938 9.86549C11.1118 11.3258 10.958 12.6353 10.9987 13.4498L11 13.4748V13.4998C11 16.1534 12.1304 17.716 13.2071 18.7927C13.9104 19.496 14.3581 19.8014 14.7715 19.9853C15.1849 20.1693 15.61 20.2578 16.3679 20.4155C16.4281 20.428 16.4903 20.441 16.5548 20.4544C18.1146 20.7802 19.8214 20.715 21.4223 20.447C23.4671 20.1048 25.2468 19.4477 26.184 18.9662C26.7328 18.6843 27.2774 18.8891 27.5739 19.1527C27.8758 19.4211 28.1793 20.0011 27.8515 20.6199C27.2067 21.8372 26.1752 23.258 24.9709 24.5031C23.7767 25.7377 22.336 26.8793 20.8511 27.4361C16.6128 29.0255 13.8756 28.5124 12.1838 27.9485C11.0426 27.5681 8.79652 26.4824 6.87045 24.4899C4.92104 22.4731 3.28659 19.5077 3.5014 15.447C3.8386 9.07262 8.42589 5.53763 10.7565 4.31903Z"/>
</svg>
