<svg viewBox="0 0 32 32" xmlns="http://www.w3.org/2000/svg">
	<path d="M6.5 5.5H16.5H24.5C25.6046 5.5 26.5 6.39543 26.5 7.5V16V25.5C26.5 26.6046 25.6046 27.5 24.5 27.5H6.5C5.39543 27.5 4.5 26.6046 4.5 25.5V7.5C4.5 6.39543 5.39543 5.5 6.5 5.5ZM6.5 7.5V25.5H24.5V16V7.5H16.5L6.5 7.5ZM21.8321 17.4422C21.8262 17.9945 21.3737 18.4374 20.8215 18.4315C20.2692 18.4256 19.8263 17.9731 19.8322 17.4209L19.8734 13.5586L10.2065 23.2078C9.81557 23.5979 9.1824 23.5973 8.79224 23.2065C8.40208 22.8156 8.40266 22.1824 8.79355 21.7922L18.4559 12.1477L14.6002 12.1888C14.0479 12.1947 13.5954 11.7518 13.5896 11.1996C13.5837 10.6473 14.0266 10.1949 14.5788 10.189L20.8888 10.1216C21.1577 10.1187 21.4165 10.2243 21.6066 10.4144C21.7968 10.6046 21.9023 10.8633 21.8995 11.1322L21.8321 17.4422Z"/>
</svg>
