<svg
  width="27"
  height="22"
  viewBox="0 0 27 22"
  fill="none"
  xmlns="http://www.w3.org/2000/svg"
>
<path
    d="M8.79708 21.6666C18.7176 21.6666 24.1436 13.4584 24.1436 6.34031C24.1436 6.10717 24.1436 5.87508 24.1279 5.64404C25.1835 4.88152 26.0947 3.93737 26.8188 2.85581C25.8344 3.29143 24.7902 3.57711 23.7209 3.70331C24.8469 3.03013 25.6896 1.97132 26.0922 0.723948C25.0334 1.35138 23.8751 1.79357 22.6672 2.03142C20.9953 0.255981 18.3387 -0.178564 16.187 0.971454C14.0353 2.12147 12.9237 4.57005 13.4755 6.94417C9.13873 6.72704 5.09817 4.68137 2.35939 1.31625C0.92781 3.7775 1.65903 6.92617 4.02928 8.50683C3.17093 8.48143 2.33129 8.25019 1.58123 7.83262C1.58123 7.85467 1.58123 7.87778 1.58123 7.90088C1.58193 10.465 3.39177 12.6735 5.90843 13.1812C5.11436 13.3975 4.28121 13.4291 3.473 13.2736C4.1796 15.4679 6.20452 16.9711 8.51211 17.0143C6.60218 18.5134 4.24281 19.3272 1.81363 19.3247C1.38449 19.3239 0.955762 19.298 0.529663 19.247C2.99626 20.8278 5.86627 21.6663 8.79708 21.6624"
    fill="#6C727A"
  />
</svg>
