<svg
  width="16"
  height="16"
  viewBox="0 0 16 16"
  fill="none"
  xmlns="http://www.w3.org/2000/svg"
>
<path
    d="M15.5 1.75V14.25C15.5 14.5815 15.3666 14.8995 15.1291 15.1339C14.8917 15.3683 14.5696 15.5 14.2338 15.5H11.0682C10.7324 15.5 10.4103 15.3683 10.1728 15.1339C9.93536 14.8995 9.80195 14.5815 9.80195 14.25V1.75C9.80195 1.41848 9.93536 1.10054 10.1728 0.866116C10.4103 0.631696 10.7324 0.5 11.0682 0.5H14.2338C14.5696 0.5 14.8917 0.631696 15.1291 0.866116C15.3666 1.10054 15.5 1.41848 15.5 1.75ZM4.93182 0.5H1.76623C1.43041 0.5 1.10834 0.631696 0.870871 0.866116C0.633406 1.10054 0.5 1.41848 0.5 1.75V14.25C0.5 14.5815 0.633406 14.8995 0.870871 15.1339C1.10834 15.3683 1.43041 15.5 1.76623 15.5H4.93182C5.26764 15.5 5.58972 15.3683 5.82718 15.1339C6.06465 14.8995 6.19805 14.5815 6.19805 14.25V1.75C6.19805 1.41848 6.06465 1.10054 5.82718 0.866116C5.58972 0.631696 5.26764 0.5 4.93182 0.5Z"
    fill="white"
  />
</svg>
