<svg width="26" height="26" viewBox="0 0 26 26" fill="none" xmlns="http://www.w3.org/2000/svg">
<path fill-rule="evenodd" clip-rule="evenodd" d="M24 13C24 19.0751 19.0751 24 13 24C6.92487 24 2 19.0751 2 13C2 6.92487 6.92487 2 13 2C19.0751 2 24 6.92487 24 13ZM26 13C26 20.1797 20.1797 26 13 26C5.8203 26 0 20.1797 0 13C0 5.8203 5.8203 0 13 0C20.1797 0 26 5.8203 26 13ZM9.49996 8.99984C9.49996 8.44755 9.94767 7.99984 10.5 7.99984C11.0522 7.99984 11.5 8.44755 11.5 8.99984V16.9998C11.5 17.5521 11.0522 17.9998 10.5 17.9998C9.94767 17.9998 9.49996 17.5521 9.49996 16.9998V8.99984ZM14.4999 8.99984C14.4999 8.44755 14.9476 7.99984 15.4999 7.99984C16.0522 7.99984 16.4999 8.44755 16.4999 8.99984V16.9998C16.4999 17.5521 16.0522 17.9998 15.4999 17.9998C14.9476 17.9998 14.4999 17.5521 14.4999 16.9998V8.99984Z" fill="#6C727A"/>
</svg>
