<svg viewBox="0 0 32 32" xmlns="http://www.w3.org/2000/svg">
  <path
    d="M26 7.66667V24.3333C26 24.7754 25.8221 25.1993 25.5055 25.5118C25.1889 25.8244 24.7595 26 24.3117 26H20.0909C19.6431 26 19.2137 25.8244 18.8971 25.5118C18.5805 25.1993 18.4026 24.7754 18.4026 24.3333V7.66667C18.4026 7.22464 18.5805 6.80072 18.8971 6.48816C19.2137 6.17559 19.6431 6 20.0909 6H24.3117C24.7595 6 25.1889 6.17559 25.5055 6.48816C25.8221 6.80072 26 7.22464 26 7.66667ZM11.9091 6H7.68831C7.24054 6 6.81111 6.17559 6.49449 6.48816C6.17788 6.80072 6 7.22464 6 7.66667V24.3333C6 24.7754 6.17788 25.1993 6.49449 25.5118C6.81111 25.8244 7.24054 26 7.68831 26H11.9091C12.3569 26 12.7863 25.8244 13.1029 25.5118C13.4195 25.1993 13.5974 24.7754 13.5974 24.3333V7.66667C13.5974 7.22464 13.4195 6.80072 13.1029 6.48816C12.7863 6.17559 12.3569 6 11.9091 6Z"
  />
</svg>
