<svg viewBox="0 0 16 16" xmlns="http://www.w3.org/2000/svg">
<path
    fill-rule="evenodd"
    clip-rule="evenodd"
    d="M12 4H10.2013V12H12V4ZM4 4V12H5.7987V4H4ZM13 12.1667V3.83333C13 3.61232 12.9111 3.40036 12.7528 3.24408C12.5944 3.0878 12.3797 3 12.1558 3H10.0455C9.82157 3 9.60686 3.0878 9.44855 3.24408C9.29024 3.40036 9.2013 3.61232 9.2013 3.83333V12.1667C9.2013 12.3877 9.29024 12.5996 9.44855 12.7559C9.60686 12.9122 9.82157 13 10.0455 13H12.1558C12.3797 13 12.5944 12.9122 12.7528 12.7559C12.9111 12.5996 13 12.3877 13 12.1667ZM3.84416 3H5.95455C6.17843 3 6.39314 3.0878 6.55145 3.24408C6.70976 3.40036 6.7987 3.61232 6.7987 3.83333V12.1667C6.7987 12.3877 6.70976 12.5996 6.55145 12.7559C6.39314 12.9122 6.17843 13 5.95455 13H3.84416C3.62027 13 3.40556 12.9122 3.24725 12.7559C3.08894 12.5996 3 12.3877 3 12.1667V3.83333C3 3.61232 3.08894 3.40036 3.24725 3.24408C3.40556 3.0878 3.62027 3 3.84416 3Z"
  />
</svg>
