<svg viewBox="0 0 32 32" xmlns="http://www.w3.org/2000/svg">
  <path
    d="M25.695 5.73492L26.2942 6.34774C27.4657 7.54582 27.4286 9.47124 26.212 10.6234L14.9616 21.2772C14.4996 21.7147 13.9104 21.994 13.2793 22.0746L10.4489 22.4365C9.54406 22.5522 8.80458 21.7244 9.02118 20.8383L9.76024 17.8149C9.89264 17.2732 10.1734 16.7792 10.571 16.3882L21.4465 5.69327C22.6303 4.5292 24.5343 4.54786 25.695 5.73492ZM22.8488 7.11927L20.6731 9.25885L22.6532 11.239L24.8368 9.17119C25.2424 8.78714 25.2547 8.14534 24.8642 7.74598L24.265 7.13316C23.8781 6.73747 23.2434 6.73125 22.8488 7.11927ZM19.2471 10.6612L11.9733 17.8142C11.8408 17.9445 11.7472 18.1092 11.703 18.2898L11.2059 20.3234L13.0256 20.0908C13.236 20.0639 13.4324 19.9708 13.5864 19.825L21.2005 12.6146L19.2471 10.6612ZM6 8.29993V24.9999C6 25.5522 6.44771 25.9999 7 25.9999H23.5333C24.0856 25.9999 24.5333 25.5522 24.5333 24.9999V16.2682C24.5333 15.7159 24.981 15.2682 25.5333 15.2682C26.0856 15.2682 26.5333 15.7159 26.5333 16.2682V24.9999C26.5333 26.6568 25.1902 27.9999 23.5333 27.9999H7C5.34315 27.9999 4 26.6568 4 24.9999V8.29993C4 6.64308 5.34315 5.29993 7 5.29993H10.39H15.78C16.3323 5.29993 16.78 5.74764 16.78 6.29993C16.78 6.85221 16.3323 7.29993 15.78 7.29993H10.39H7C6.44772 7.29993 6 7.74764 6 8.29993Z"
  />
</svg>
