<svg xmlns="http://www.w3.org/2000/svg" viewBox="0 0 24 24"><title>Compose</title><g id="Layer_2" data-name="Layer 2"><g id="Elements_2" data-name="Elements 2"><path d="M19.58,21.33H4.42a1.75,1.75,0,0,1-1.75-1.75V4.42A1.75,1.75,0,0,1,4.42,2.67h8.91a1.34,1.34,0,0,0,1.34-1.34h0A1.34,1.34,0,0,0,13.33,0H4.38A4.39,4.39,0,0,0,0,4.38V19.62A4.39,4.39,0,0,0,4.37,24H19.63A4.39,4.39,0,0,0,24,19.63v-9a1.34,1.34,0,0,0-1.33-1.34h0a1.34,1.34,0,0,0-1.34,1.34v8.91A1.75,1.75,0,0,1,19.58,21.33Z"/><path d="M6.78,16.87a.34.34,0,0,0,.35.35l1.28,0a3.06,3.06,0,0,0,2-.84L21,6.08,18.32,3.4,7.77,13.59a3,3,0,0,0-.94,2.07ZM23.08,4a.73.73,0,0,0,0-1L21.4,1.32a.71.71,0,0,0-1,0L19.08,2.63l2.69,2.68Z"/></g></g></svg>