<svg width="32" height="32" viewBox="0 0 32 32" fill="none" xmlns="http://www.w3.org/2000/svg">
<path fill-rule="evenodd" clip-rule="evenodd" d="M18.75 9C18.75 8.44772 19.1977 8 19.75 8H20.5V6.25C20.5 4.45508 21.9551 3 23.75 3C25.5449 3 27 4.45507 27 6.25V8H27.75C28.3023 8 28.75 8.44772 28.75 9V15C28.75 15.5523 28.3023 16 27.75 16H19.75C19.1977 16 18.75 15.5523 18.75 15V9ZM22.5 6.25C22.5 5.55964 23.0596 5 23.75 5C24.4404 5 25 5.55964 25 6.25V7.97619H22.5V6.25Z" fill="#2F343D"/>
<path d="M16 13.5C16.259 13.5 16.5103 13.4672 16.75 13.4055V15C16.75 15.1492 16.7609 15.2959 16.7819 15.4392C16.5272 15.4792 16.266 15.5 16 15.5C13.2386 15.5 11 13.2614 11 10.5C11 7.73858 13.2386 5.5 16 5.5C16.911 5.5 17.765 5.74362 18.5006 6.16927C18.5002 6.19613 18.5 6.22304 18.5 6.25V6.27202C17.8682 6.56201 17.3544 7.06506 17.0508 7.68917C16.7238 7.56687 16.3697 7.5 16 7.5C14.3431 7.5 13 8.84315 13 10.5C13 12.1569 14.3431 13.5 16 13.5Z" fill="#2F343D"/>
<path fill-rule="evenodd" clip-rule="evenodd" d="M16.9538 17.7093L17.992 17.4312C18.486 17.789 19.0934 18 19.75 18H22.7583C24.1268 18.9055 25 20.4547 25 22.1709V24C25 25.6569 23.6569 27 22 27H10C8.34315 27 7 25.6569 7 24V21.9122C7 19.7419 8.45785 17.8421 10.5543 17.2806C11.3177 17.0761 12.1197 17.0635 12.8891 17.2438L15.0061 17.7399C15.6479 17.8904 16.317 17.8798 16.9538 17.7093ZM11.0718 19.2125C11.5167 19.0933 11.9842 19.0859 12.4327 19.191L14.5497 19.6872C15.5124 19.9128 16.5161 19.897 17.4712 19.6412L19.0221 19.2258C19.4997 19.0978 20.0015 19.0899 20.4828 19.2028L20.6846 19.25C22.0409 19.5679 23 20.7778 23 22.1709V24C23 24.5523 22.5523 25 22 25H10C9.44772 25 9 24.5523 9 24V21.9122C9 20.6471 9.84977 19.5398 11.0718 19.2125Z" fill="#2F343D"/>
</svg>
