<svg viewBox="0 0 32 32" xmlns="http://www.w3.org/2000/svg">
<path
    d="M20.0001 5C20.0001 4.20888 19.7655 3.43552 19.326 2.77772C18.8864 2.11992 18.2617 1.60723 17.5308 1.30448C16.7999 1.00173 15.9956 0.92252 15.2197 1.07686C14.4438 1.2312 13.7311 1.61216 13.1716 2.17157C12.6122 2.73098 12.2313 3.44372 12.0769 4.21964C11.9226 4.99556 12.0018 5.79983 12.3046 6.53074C12.6073 7.26164 13.12 7.88635 13.7778 8.32588C14.4356 8.76541 15.209 9 16.0001 9C17.0609 9 18.0784 8.57857 18.8285 7.82843C19.5786 7.07828 20.0001 6.06087 20.0001 5ZM16.0001 7C15.6045 7 15.2178 6.8827 14.8889 6.66294C14.56 6.44318 14.3037 6.13082 14.1523 5.76537C14.0009 5.39992 13.9613 4.99778 14.0385 4.60982C14.1157 4.22186 14.3062 3.86549 14.5859 3.58579C14.8656 3.30608 15.2219 3.1156 15.6099 3.03843C15.9979 2.96126 16.4 3.00087 16.7654 3.15224C17.1309 3.30362 17.4433 3.55996 17.663 3.88886C17.8828 4.21776 18.0001 4.60444 18.0001 5C18.0001 5.53044 17.7894 6.03914 17.4143 6.41422C17.0392 6.78929 16.5305 7 16.0001 7ZM28.9376 10.9638C28.8237 10.4037 28.5179 9.90099 28.0728 9.54245C27.6278 9.18391 27.0715 8.99204 26.5001 9H5.50008C4.93018 8.99998 4.37738 9.19468 3.93328 9.55183C3.48918 9.90898 3.18043 10.4071 3.05819 10.9638C2.93595 11.5204 3.00756 12.1021 3.26116 12.6125C3.51475 13.1228 3.93511 13.5312 4.45258 13.77H4.46883L10.8126 16.5638L8.18758 26.5288C7.91291 27.1338 7.88984 27.8231 8.12344 28.4452C8.35704 29.0672 8.82818 29.571 9.4332 29.8456C10.0382 30.1203 10.7276 30.1434 11.3496 29.9098C11.9717 29.6762 12.4754 29.205 12.7501 28.6L16.0001 22.9913L19.2501 28.6C19.5389 29.1792 20.0411 29.6239 20.6511 29.8404C21.261 30.0569 21.9312 30.0285 22.5206 29.761C23.11 29.4935 23.5726 29.0078 23.8113 28.4062C24.0499 27.8045 24.0459 27.1338 23.8001 26.535L21.1751 16.57L27.5188 13.7763H27.5351C28.0609 13.5455 28.4891 13.1377 28.7454 12.6238C29.0016 12.11 29.0696 11.5226 28.9376 10.9638ZM26.7126 11.9513L19.5963 15.0838C19.3785 15.1797 19.202 15.3503 19.0987 15.5648C18.9953 15.7792 18.9719 16.0235 19.0326 16.2538L21.8913 27.125C21.9059 27.1832 21.9264 27.2398 21.9526 27.2938C21.9945 27.3835 22.0089 27.4836 21.9938 27.5815C21.9788 27.6794 21.935 27.7706 21.8681 27.8436C21.8011 27.9165 21.714 27.968 21.6178 27.9914C21.5216 28.0148 21.4206 28.0091 21.3276 27.975C21.2033 27.9294 21.1021 27.8363 21.0463 27.7163C21.0337 27.6892 21.0195 27.6629 21.0038 27.6375L16.8651 20.5C16.7772 20.3485 16.651 20.2227 16.4992 20.1352C16.3474 20.0478 16.1753 20.0018 16.0001 20.0018C15.8249 20.0018 15.6528 20.0478 15.501 20.1352C15.3492 20.2227 15.223 20.3485 15.1351 20.5L11.0001 27.6313C10.9844 27.6567 10.9702 27.683 10.9576 27.71C10.9018 27.8301 10.8006 27.9231 10.6763 27.9688C10.5833 28.0028 10.4823 28.0085 10.3861 27.9851C10.2899 27.9617 10.2028 27.9103 10.1358 27.8373C10.0689 27.7643 10.0251 27.6731 10.0101 27.5752C9.99502 27.4774 10.0094 27.3772 10.0513 27.2875C10.0775 27.2335 10.098 27.177 10.1126 27.1188L12.9676 16.25C13.0283 16.0198 13.0048 15.7755 12.9015 15.561C12.7981 15.3466 12.6217 15.176 12.4038 15.08L5.28758 11.9513C5.18543 11.9025 5.10284 11.8206 5.05331 11.7188C5.00379 11.617 4.99026 11.5014 5.01493 11.391C5.03961 11.2805 5.10103 11.1817 5.18916 11.1107C5.27728 11.0397 5.3869 11.0006 5.50008 11H26.5001C26.6136 10.9998 26.7238 11.0382 26.8125 11.1089C26.9013 11.1797 26.9634 11.2785 26.9885 11.3892C27.0137 11.4998 27.0005 11.6158 26.951 11.7179C26.9015 11.8201 26.8188 11.9024 26.7163 11.9513H26.7126Z"
  />
</svg>
