<svg viewBox="0 0 32 32" xmlns="http://www.w3.org/2000/svg">
  <path
    d="M11.1569 6.04199C11.9355 5.9407 12.6966 6.30381 13.109 6.96094L13.1862 7.09668L15.026 10.6064C15.1239 10.7931 15.1921 10.9943 15.2272 11.2021C15.2594 11.3934 15.2629 11.579 15.2457 11.75L15.2438 11.7627C15.1999 12.1734 15.0376 12.5355 14.8209 12.8213L14.693 12.9922C14.6488 13.0536 14.6092 13.1137 14.5738 13.1709L14.4772 13.3428C14.4645 13.3686 14.4545 13.3921 14.4459 13.4131L14.526 13.5566C14.5873 13.6547 14.6638 13.7646 14.7516 13.8838L15.0494 14.2666C15.4845 14.8028 16.0056 15.3595 16.3483 15.7021C16.6054 15.9592 16.9823 16.3156 17.3805 16.6611L17.7819 17C18.0526 17.2197 18.2957 17.4009 18.4918 17.5234V17.5215C18.5474 17.5562 18.5961 17.5831 18.6363 17.6045L18.7067 17.5713C18.8097 17.5209 18.9305 17.4477 19.0572 17.3564L19.2272 17.2275L19.2281 17.2295C19.5115 17.0146 19.8747 16.8481 20.2926 16.8047L20.3024 16.8037C20.4843 16.7858 20.631 16.7954 20.7057 16.8027C20.7491 16.807 20.7871 16.8126 20.818 16.8174C20.8334 16.8198 20.8478 16.8229 20.861 16.8252C20.8677 16.8264 20.8752 16.8279 20.8815 16.8291C20.8845 16.8297 20.8874 16.8305 20.8903 16.8311H20.8981C21.0877 16.8682 21.2728 16.9337 21.444 17.0234L24.9528 18.8633C25.6945 19.2522 26.1156 20.062 26.0074 20.8926C25.8768 21.894 25.4638 23.2158 24.6803 24.2637L24.5182 24.4688C24.0487 25.0372 23.415 25.559 22.6012 25.8145L22.444 25.8604C21.6594 26.0669 20.8313 25.9936 20.0035 25.6504L19.6988 25.5186C18.1746 24.8345 16.5671 23.7377 15.234 22.7129L14.7096 22.3018C13.5136 21.3495 12.5383 20.4624 12.0621 19.9863L11.5631 19.4629C10.9779 18.8302 10.162 17.8895 9.33557 16.8145L8.92346 16.2676C7.95724 14.9609 6.98533 13.4568 6.40002 12.0459L6.27697 11.7148C6.04171 10.9976 6.0101 10.2844 6.18908 9.60449L6.234 9.44824L6.3424 9.15039C6.58143 8.57361 6.95476 8.0968 7.36975 7.71387L7.58068 7.53125C8.65679 6.64267 10.0887 6.1813 11.1569 6.04199ZM11.4147 8.02539C10.6574 8.12419 9.69284 8.4438 8.99084 8.96582L8.85412 9.07227C8.49387 9.36979 8.25117 9.69894 8.14221 10.0459C8.05125 10.3361 8.04026 10.6785 8.17834 11.0957L8.24768 11.2793C8.74406 12.4759 9.60626 13.8268 10.525 15.0703L10.9215 15.5957C11.9758 16.9671 13.0004 18.0964 13.4772 18.5732C13.9543 19.0503 15.0825 20.0738 16.4537 21.1279L16.9791 21.5234C18.2226 22.4421 19.5727 23.3054 20.7692 23.8018C21.2712 24.0099 21.6709 24.0102 22.0026 23.9062C22.3495 23.7973 22.6787 23.5556 22.9762 23.1953C23.4886 22.5748 23.8263 21.6978 23.9733 20.9473L24.024 20.6338L20.5143 18.7949L20.4987 18.7939C20.49 18.7949 20.4795 18.7971 20.4684 18.8018L20.4332 18.8232L20.2447 18.9648C20.0966 19.0725 19.9331 19.1812 19.7604 19.2773L19.5846 19.3682C19.2871 19.5136 18.8779 19.6625 18.4371 19.6211L18.2975 19.6006C17.9744 19.5355 17.6606 19.3607 17.4332 19.2188C17.2855 19.1265 17.1324 19.0211 16.9791 18.9082L16.5221 18.5527C15.9197 18.064 15.3124 17.4943 14.9342 17.1162C14.5561 16.7381 13.985 16.1303 13.4957 15.5273C13.2521 15.2271 13.0153 14.9107 12.8307 14.6152C12.6888 14.388 12.514 14.0749 12.4488 13.752L12.4283 13.6123C12.3868 13.1717 12.5349 12.7624 12.6803 12.4648C12.7962 12.2278 12.9402 12.0021 13.0836 11.8047L13.2252 11.6162C13.2437 11.5929 13.2536 11.5673 13.2555 11.5498C13.2562 11.5427 13.2558 11.5374 13.2555 11.5352L11.4147 8.02539Z"
  />
  <path
    d="M22.9996 14C23.5519 14 23.9996 14.4477 23.9996 15C23.9996 15.5523 23.5519 16 22.9996 16C22.4475 15.9998 21.9996 15.5521 21.9996 15C21.9996 14.4479 22.4475 14.0002 22.9996 14Z"
  />
  <path
    d="M22.9996 4C23.8219 4 24.6319 4.23569 25.3131 4.68457C25.9954 5.13435 26.5214 5.78131 26.7946 6.54395C27.0683 7.30854 27.0683 8.13581 26.7946 8.90039C26.5214 9.66302 25.9954 10.309 25.3131 10.7588C25.1674 10.8548 25.0133 10.93 24.8746 10.9883C24.2636 11.2453 23.9998 11.6571 23.9996 11.9814V12C23.9996 12.5523 23.5519 13 22.9996 13C22.4475 12.9998 21.9996 12.5521 21.9996 12V11.9814C21.9998 10.5405 23.0832 9.57192 24.0992 9.14453C24.1682 9.11553 24.203 9.09507 24.2125 9.08887C24.5552 8.86295 24.7933 8.5562 24.9117 8.22559C25.0293 7.89702 25.0294 7.54632 24.9117 7.21777C24.7933 6.88715 24.5552 6.58039 24.2125 6.35449C23.8689 6.12809 23.4439 6 22.9996 6C22.5554 6.00008 22.1303 6.12804 21.7867 6.35449C21.4442 6.58041 21.2059 6.88719 21.0875 7.21777C20.9699 7.54623 20.9701 7.8971 21.0875 8.22559C21.2737 8.74544 21.0038 9.31858 20.484 9.50488C19.9642 9.69081 19.3909 9.42021 19.2047 8.90039C18.931 8.13589 18.931 7.30846 19.2047 6.54395C19.4778 5.78137 20.004 5.13437 20.6862 4.68457C21.3673 4.23564 22.1774 4.00008 22.9996 4Z"
  />
</svg>
