<svg xmlns="http://www.w3.org/2000/svg" viewBox="0 0 24 24"><title>Call</title><g id="Layer_2" data-name="Layer 2"><g id="Elements_2" data-name="Elements 2"><path d="M18.6,7a3.41,3.41,0,0,0-2.05-1.73,2.13,2.13,0,0,0-1.41,0,6.8,6.8,0,0,0-2.8,3.82h0a2.13,2.13,0,0,0,1.05,1.83,1,1,0,0,0,1.38-.27,1,1,0,0,0,.16-.74,1,1,0,0,0-.42-.63,1.31,1.31,0,0,1-.17-.13,6.67,6.67,0,0,1,1.58-2,1.4,1.4,0,0,1,.89.68,1.34,1.34,0,0,1-.06,1,14.46,14.46,0,0,1-3.13,4.81,14.56,14.56,0,0,1-4.81,3.13,1.3,1.3,0,0,1-1,.05,1.48,1.48,0,0,1-.7-.94,7.78,7.78,0,0,1,2-1.53,1.12,1.12,0,0,1,.12.17,1,1,0,0,0,.64.42,1,1,0,0,0,.74-.16,1,1,0,0,0,.42-.63,1,1,0,0,0-.16-.74,2,2,0,0,0-1.83-1.05,6.76,6.76,0,0,0-3.81,2.79,2.07,2.07,0,0,0,0,1.41,3.32,3.32,0,0,0,1.73,2,2.82,2.82,0,0,0,1.22.27,3.56,3.56,0,0,0,1.36-.28A16.88,16.88,0,0,0,15,15a16.48,16.48,0,0,0,3.55-5.45,3.65,3.65,0,0,0,.28-1.37A2.8,2.8,0,0,0,18.6,7Z"/><path d="M19.25,24H4.75A4.75,4.75,0,0,1,0,19.25V4.75A4.75,4.75,0,0,1,4.75,0h14.5A4.75,4.75,0,0,1,24,4.75v14.5A4.75,4.75,0,0,1,19.25,24ZM4.75,2.26A2.5,2.5,0,0,0,2.26,4.75v14.5a2.5,2.5,0,0,0,2.49,2.49h14.5a2.5,2.5,0,0,0,2.49-2.49V4.75a2.5,2.5,0,0,0-2.49-2.49Z"/></g></g></svg>