<svg viewBox="0 0 32 32" xmlns="http://www.w3.org/2000/svg">
  <path
    d="M15.9994 11L16.7231 11.0166C17.5843 11.0502 18.8258 11.1387 20.1703 11.3145L20.8491 11.4102C22.4563 11.6509 24.207 12.0265 25.6186 12.6104L25.9399 12.7578C26.6134 13.0986 27.1394 13.5802 27.4936 14.1875L27.5727 14.3301L27.7065 14.6172C27.9454 15.1941 28.0182 15.7951 27.9955 16.3594L27.976 16.6377C27.8435 18.027 27.1572 19.3659 26.5004 20.2197C26.0215 20.842 25.2265 21.1232 24.4702 20.9502L24.3198 20.9092L20.5366 19.7285C20.3353 19.6657 20.1449 19.5714 19.9731 19.4492C19.8149 19.3367 19.6816 19.2074 19.5727 19.0742L19.5649 19.0645C19.3054 18.7429 19.1645 18.372 19.1157 18.0166L19.1147 18.0176L19.0854 17.8057C19.0732 17.7309 19.0588 17.6602 19.0434 17.5947L18.9897 17.4053C18.9803 17.3779 18.9711 17.354 18.9623 17.333L18.8041 17.2891C18.6914 17.263 18.56 17.239 18.4135 17.2168L17.9321 17.1562C17.2453 17.0848 16.4831 17.0596 15.9985 17.0596C15.6348 17.0596 15.1162 17.0741 14.5903 17.1113L14.0668 17.1562C13.7199 17.1924 13.4201 17.236 13.1948 17.2881L13.1957 17.2891C13.1319 17.3038 13.0792 17.3197 13.0356 17.333L13.0092 17.4053C12.9719 17.5139 12.9377 17.6513 12.9125 17.8057L12.8842 18.0176L12.8823 18.0166C12.8338 18.3689 12.6949 18.7432 12.4301 19.0693L12.4233 19.0771C12.3073 19.2185 12.1971 19.3147 12.1391 19.3623C12.1053 19.3901 12.0745 19.4131 12.0493 19.4316C12.0365 19.441 12.0242 19.4493 12.0131 19.457C12.0075 19.461 12.0017 19.4652 11.9965 19.4688C11.9939 19.4705 11.9912 19.4719 11.9887 19.4736L11.9848 19.4766L11.9828 19.4785C11.8225 19.5864 11.6459 19.6709 11.4614 19.7285L7.67914 20.9092C6.87956 21.1587 6.00932 20.8835 5.49847 20.2197C4.8827 19.4192 4.24009 18.1925 4.05316 16.8975L4.02289 16.6377C3.95292 15.9038 4.03138 15.0871 4.42621 14.3311L4.50531 14.1875C4.91404 13.4866 5.55125 12.9531 6.37933 12.6104L6.68792 12.4883C8.24948 11.8942 10.1611 11.5325 11.8285 11.3145L12.4907 11.2344C14.0097 11.062 15.3261 11.0001 15.9994 11ZM15.9985 13C15.3238 13.0001 13.8023 13.0736 12.0873 13.2979L11.436 13.3896C9.90699 13.6193 8.34202 13.9639 7.14496 14.459C6.64272 14.6668 6.35968 14.9488 6.19867 15.2568C6.03033 15.5792 5.96875 15.9831 6.01312 16.4482C6.08957 17.2493 6.47105 18.1076 6.89789 18.7422L7.08343 19L10.8657 17.8193L10.8774 17.8086C10.8829 17.8018 10.8884 17.7925 10.893 17.7812L10.9028 17.7412L10.936 17.5078C10.9646 17.3269 11.0038 17.1346 11.058 16.9443L11.1176 16.7559C11.2252 16.4427 11.4094 16.048 11.7504 15.7656L11.8637 15.6816C12.1382 15.4992 12.4834 15.4012 12.7446 15.3408C12.9144 15.3016 13.0972 15.2678 13.2856 15.2393L13.8598 15.167C14.6313 15.0867 15.4637 15.0596 15.9985 15.0596C16.5332 15.0596 17.3668 15.0866 18.1391 15.167C18.5236 15.207 18.9148 15.2624 19.2543 15.3408C19.5155 15.4012 19.8607 15.4992 20.1352 15.6816L20.2485 15.7656C20.5896 16.0479 20.7737 16.4426 20.8813 16.7559C20.967 17.0056 21.0247 17.2667 21.0629 17.5078L21.0961 17.7412C21.0996 17.7707 21.1105 17.7949 21.1215 17.8086C21.1263 17.8145 21.1305 17.8181 21.1323 17.8193L24.9155 19C25.3811 18.3947 25.837 17.4867 25.9643 16.6211L25.9858 16.4482C26.0301 15.983 25.9686 15.5792 25.8002 15.2568C25.6593 14.9873 25.4254 14.7374 25.0327 14.54L24.8539 14.459C23.6569 13.9639 22.0919 13.6193 20.5629 13.3896L19.9116 13.2979C18.1961 13.0736 16.6728 13 15.9985 13Z"
  />
</svg>
