<svg viewBox="0 0 32 32" xmlns="http://www.w3.org/2000/svg">
    <path
    d="M25.7929 4.79289C26.1834 4.40237 26.8166 4.40237 27.2071 4.79289C27.5976 5.18342 27.5976 5.81658 27.2071 6.20711L6.20711 27.2071C5.81658 27.5976 5.18342 27.5976 4.79289 27.2071C4.40237 26.8166 4.40237 26.1834 4.79289 25.7929L25.7929 4.79289ZM17.9879 17.7834L16.5908 19.1805C16.836 19.365 17.086 19.5384 17.3262 19.681C17.6137 19.8516 18.0399 20.0741 18.4816 20.0942C18.9886 20.1172 19.4643 19.9285 19.8088 19.7512C20.1757 19.5624 20.521 19.3192 20.8008 19.0967C20.8337 19.0705 20.8675 19.0582 20.8909 19.0548C20.9035 19.0529 20.91 19.0538 20.9124 19.0544L24.6966 20.9005C24.5223 21.8171 24.0597 22.9871 23.3719 23.7949C23.021 24.207 22.647 24.4836 22.266 24.6174C21.9036 24.7447 21.4722 24.7662 20.9331 24.565C19.4199 24.0003 17.7017 22.904 16.1928 21.7756C15.7545 21.4478 15.3397 21.1218 14.9594 20.8118L13.5723 22.199C14.0156 22.5641 14.5048 22.9509 15.0237 23.339C16.5802 24.503 18.4752 25.7315 20.2506 26.394C21.1967 26.7471 22.099 26.7452 22.913 26.4592C23.7083 26.1799 24.3533 25.6534 24.8582 25.0606C25.854 23.8911 26.4405 22.3061 26.6413 21.1154C26.7888 20.2408 26.2733 19.4976 25.6058 19.1719L21.768 17.2997C21.0052 16.9276 20.1598 17.1122 19.5857 17.5688C19.3667 17.7429 19.1312 17.9044 18.9156 18.0154C18.7414 18.105 18.6365 18.1323 18.5933 18.1405L18.5904 18.1393C18.5594 18.1268 18.4738 18.092 18.3226 18.0022C18.2202 17.9415 18.1079 17.8678 17.9879 17.7834ZM9.80114 18.4276L11.1883 17.0405C10.8783 16.6602 10.5524 16.2455 10.2246 15.8072C9.09618 14.2983 7.99986 12.5801 7.43513 11.0669C7.23398 10.5278 7.2555 10.0964 7.38278 9.73402C7.51662 9.35302 7.79321 8.97901 8.20526 8.62814C9.01305 7.94028 10.1831 7.4777 11.0997 7.30339L12.9458 11.0876C12.9464 11.09 12.9473 11.0965 12.9454 11.1091C12.942 11.1326 12.9297 11.1663 12.9035 11.1992C12.681 11.479 12.4378 11.8243 12.249 12.1912C12.0717 12.5357 11.8829 13.0114 11.906 13.5184C11.9261 13.9601 12.1486 14.3863 12.3192 14.6738C12.4618 14.914 12.6351 15.1639 12.8196 15.4091L14.2167 14.012C14.1323 13.8921 14.0587 13.7797 13.9979 13.6774C13.9082 13.5262 13.8734 13.4406 13.8608 13.4096L13.8596 13.4067C13.8679 13.3635 13.8952 13.2586 13.9848 13.0844C14.0958 12.8688 14.2573 12.6333 14.4314 12.4143C14.888 11.8402 15.0726 10.9948 14.7005 10.232L12.8283 6.39422C12.5026 5.72666 11.7594 5.21121 10.8848 5.35869C9.69407 5.55948 8.10905 6.14601 6.93961 7.14183C6.34674 7.64668 5.82033 8.29167 5.54094 9.08703C5.255 9.90103 5.25309 10.8033 5.60617 11.7494C6.26872 13.5248 7.49721 15.4198 8.66121 16.9763C9.04924 17.4952 9.43605 17.9843 9.80114 18.4276Z"
  />
</svg>
