<svg viewBox="0 0 32 32" xmlns="http://www.w3.org/2000/svg">
  <path
    d="M11.1568 6.0417C11.9355 5.94042 12.6965 6.30352 13.109 6.96064L13.1861 7.09638L15.026 10.6062C15.1238 10.7928 15.192 10.9941 15.2272 11.2019C15.2595 11.3933 15.2629 11.5795 15.2457 11.7507L15.2438 11.7624C15.1999 12.1731 15.0375 12.5352 14.8209 12.821L14.693 12.9919C14.6488 13.0532 14.6092 13.1135 14.5738 13.1706L14.4772 13.3425C14.4646 13.3683 14.4545 13.3919 14.4459 13.4128L14.526 13.5564C14.5873 13.6545 14.6637 13.7642 14.7516 13.8835L15.0494 14.2663C15.4845 14.8024 16.0056 15.3592 16.3483 15.7019C16.6054 15.959 16.9823 16.3162 17.3805 16.6618L17.7819 16.9997C18.0526 17.2194 18.2957 17.4006 18.4918 17.5232C18.5474 17.5579 18.5961 17.5828 18.6364 17.6042L18.7067 17.572C18.8097 17.5216 18.9306 17.4483 19.0573 17.3571L19.2272 17.2273L19.2282 17.2292C19.5115 17.0143 19.8748 16.8478 20.2926 16.8044L20.3024 16.8034C20.4843 16.7855 20.631 16.7961 20.7057 16.8034C20.7491 16.8077 20.7872 16.8123 20.818 16.8171C20.8334 16.8195 20.8478 16.8226 20.861 16.8249C20.8677 16.8261 20.8753 16.8277 20.8815 16.8288C20.8845 16.8294 20.8874 16.8302 20.8903 16.8308C20.8918 16.8311 20.8937 16.8315 20.8952 16.8317H20.8981C21.0877 16.8689 21.2729 16.9334 21.444 17.0232L24.9528 18.863C25.6946 19.2519 26.1156 20.0618 26.0075 20.8923C25.8769 21.8937 25.4638 23.2155 24.6803 24.2634L24.5182 24.4685C24.0487 25.0369 23.415 25.5588 22.6012 25.8142L22.444 25.8601C21.6594 26.0666 20.8314 25.9933 20.0036 25.6501L19.6989 25.5183C18.1747 24.8342 16.5671 23.7384 15.234 22.7136L14.7096 22.3015C13.5136 21.3492 12.5383 20.4621 12.0621 19.986L11.5631 19.4626C10.9779 18.8299 10.1619 17.8901 9.33555 16.8151L8.92344 16.2673C7.95719 14.9606 6.9853 13.4565 6.39999 12.0456L6.27694 11.7146C6.0417 10.9974 6.01014 10.285 6.18905 9.60518L6.23397 9.44795L6.34237 9.1501C6.58137 8.57348 6.95484 8.09742 7.36972 7.71455L7.58066 7.53096C8.65676 6.64243 10.0888 6.181 11.1568 6.0417ZM11.4147 8.0251C10.6574 8.1239 9.69283 8.4435 8.99082 8.96553L8.8541 9.07197C8.49377 9.36955 8.25111 9.69955 8.14218 10.0466C8.05139 10.3367 8.04038 10.6785 8.17832 11.0954L8.24765 11.279C8.74404 12.4755 9.60625 13.8265 10.525 15.07L10.9215 15.5954C11.9758 16.9668 13.0003 18.0961 13.4772 18.573C13.9543 19.05 15.0825 20.0735 16.4537 21.1276L16.9791 21.5232C18.2225 22.4418 19.5727 23.3051 20.7692 23.8015C21.2711 24.0096 21.671 24.0108 22.0026 23.9069C22.3496 23.798 22.6787 23.5553 22.9762 23.195C23.4886 22.5746 23.8263 21.6985 23.9733 20.948L24.0241 20.6345L20.5143 18.7946L20.4987 18.7937C20.49 18.7946 20.4795 18.7978 20.4684 18.8025L20.4332 18.8239L20.2448 18.9655C20.0967 19.0731 19.933 19.181 19.7604 19.2771L19.5846 19.3679C19.2871 19.5133 18.8779 19.6623 18.4371 19.6208L18.2975 19.6003C17.9744 19.5353 17.6606 19.3604 17.4332 19.2185C17.2855 19.1262 17.1324 19.0208 16.9791 18.9079L16.5221 18.5525C15.92 18.0639 15.3124 17.495 14.9342 17.1169C14.5561 16.7388 13.985 16.13 13.4957 15.5271C13.2522 15.2269 13.0153 14.9104 12.8307 14.6149C12.6888 14.3877 12.5139 14.0746 12.4488 13.7517L12.4283 13.612C12.3868 13.1714 12.5349 12.7621 12.6803 12.4646C12.7962 12.2275 12.9402 12.0018 13.0836 11.8044L13.2252 11.6159C13.2435 11.5928 13.2535 11.568 13.2555 11.5505C13.2562 11.5429 13.2558 11.537 13.2555 11.5349L11.4147 8.0251Z"
  />
</svg>
