<svg viewBox="0 0 32 32" xmlns="http://www.w3.org/2000/svg">
<path
    d="M13.3284 13.555L14.3273 13.5095L13.3284 13.555ZM14.134 11.847L13.3513 11.2245V11.2245L14.134 11.847ZM14.2936 10.672L15.1923 10.2336V10.2336L14.2936 10.672ZM12.3755 6.74024L11.4767 7.17869L12.3755 6.74024ZM11.4494 6.22697L11.2832 5.24089V5.24089L11.4494 6.22697ZM6.8121 11.4385L5.87521 11.7882H5.87521L6.8121 11.4385ZM27.7071 5.70711C28.0977 5.31658 28.0977 4.68342 27.7071 4.29289C27.3166 3.90237 26.6834 3.90237 26.2929 4.29289L27.7071 5.70711ZM20.2929 10.2929C19.9024 10.6834 19.9024 11.3166 20.2929 11.7071C20.6834 12.0976 21.3166 12.0976 21.7071 11.7071L20.2929 10.2929ZM21.7071 4.29289C21.3166 3.90237 20.6834 3.90237 20.2929 4.29289C19.9024 4.68342 19.9024 5.31658 20.2929 5.70711L21.7071 4.29289ZM26.2929 11.7071C26.6834 12.0976 27.3166 12.0976 27.7071 11.7071C28.0977 11.3166 28.0977 10.6834 27.7071 10.2929L26.2929 11.7071ZM19.1116 19.3384L19.157 18.3394L19.1116 19.3384ZM20.8196 18.5328L21.4421 19.3155L20.8196 18.5328ZM21.9946 18.3732L22.433 17.4744L21.9946 18.3732ZM25.9264 20.2913L25.4879 21.19L25.9264 20.2913ZM26.4396 21.2173L27.4257 21.3836L26.4396 21.2173ZM21.2281 25.8547L20.8784 26.7915L21.2281 25.8547ZM16.4871 16.1795C16.1045 15.7969 15.5273 15.1772 15.0488 14.5744C14.8085 14.2718 14.6089 13.9931 14.4726 13.7634C14.3101 13.4896 14.3235 13.4257 14.3273 13.5095L12.3294 13.6005C12.35 14.053 12.5779 14.4896 12.7527 14.7842C12.9537 15.1227 13.2143 15.4803 13.4823 15.8179C14.0205 16.4958 14.6523 17.1731 15.0729 17.5937L16.4871 16.1795ZM14.3273 13.5095C14.3274 13.511 14.3336 13.3997 14.4591 13.1559C14.5728 12.935 14.7382 12.6937 14.9166 12.4694L13.3513 11.2245C13.1234 11.5111 12.8742 11.8649 12.6808 12.2407C12.4992 12.5937 12.3057 13.081 12.3294 13.6005L14.3273 13.5095ZM15.1923 10.2336L13.2742 6.30179L11.4767 7.17869L13.3948 11.1105L15.1923 10.2336ZM11.2832 5.24089C10.0633 5.4466 8.43942 6.0475 7.24133 7.06771C6.63393 7.58493 6.09462 8.24572 5.80839 9.06056C5.51545 9.89451 5.51349 10.8189 5.87521 11.7882L7.74899 11.0889C7.5429 10.5367 7.56495 10.0946 7.69536 9.72341C7.83247 9.33308 8.11584 8.9499 8.53798 8.59044C9.39896 7.85728 10.6616 7.37394 11.6157 7.21305L11.2832 5.24089ZM5.87521 11.7882C6.554 13.6071 7.81259 15.5485 9.0051 17.1431C10.2051 18.7478 11.3937 20.0742 11.993 20.6735L13.4072 19.2593C12.882 18.7341 11.7553 17.4812 10.6068 15.9454C9.45073 14.3995 8.32755 12.6392 7.74899 11.0889L5.87521 11.7882ZM13.2742 6.30179C12.9406 5.61788 12.1792 5.0898 11.2832 5.24089L11.6157 7.21305C11.5935 7.21679 11.5696 7.21652 11.5468 7.21219C11.5247 7.20798 11.508 7.20081 11.497 7.19453C11.4767 7.18291 11.4746 7.17424 11.4767 7.17869L13.2742 6.30179ZM14.9166 12.4694C15.3844 11.8811 15.5736 11.0151 15.1923 10.2336L13.3948 11.1105C13.3928 11.1064 13.3974 11.1108 13.3943 11.1322C13.3907 11.1562 13.3781 11.1908 13.3513 11.2245L14.9166 12.4694ZM26.2929 4.29289L20.2929 10.2929L21.7071 11.7071L27.7071 5.70711L26.2929 4.29289ZM20.2929 5.70711L26.2929 11.7071L27.7071 10.2929L21.7071 4.29289L20.2929 5.70711ZM15.0729 17.5937C15.4935 18.0143 16.1708 18.6461 16.8486 19.1843C17.1863 19.4524 17.5438 19.713 17.8824 19.914C18.1769 20.0888 18.6135 20.3168 19.0661 20.3374L19.157 18.3394C19.2409 18.3432 19.1771 18.3567 18.9033 18.1942C18.6735 18.0578 18.3948 17.8582 18.0922 17.6179C17.4895 17.1394 16.8697 16.5621 16.4871 16.1795L15.0729 17.5937ZM19.0661 20.3374C19.5856 20.361 20.0729 20.1676 20.4258 19.986C20.8017 19.7925 21.1555 19.5434 21.4421 19.3155L20.1972 17.7501C19.9729 17.9285 19.7316 18.0939 19.5107 18.2076C19.2669 18.3331 19.1556 18.3394 19.157 18.3394L19.0661 20.3374ZM21.5561 19.2719L25.4879 21.19L26.3648 19.3925L22.433 17.4744L21.5561 19.2719ZM25.4535 21.051C25.2927 22.0051 24.8093 23.2678 24.0762 24.1288C23.7167 24.5509 23.3335 24.8343 22.9432 24.9714C22.572 25.1018 22.1299 25.1238 21.5777 24.9178L20.8784 26.7915C21.8477 27.1533 22.7721 27.1513 23.606 26.8584C24.4209 26.5721 25.0817 26.0328 25.5989 25.4254C26.6191 24.2273 27.22 22.6035 27.4257 21.3836L25.4535 21.051ZM21.5777 24.9178C20.0274 24.3392 18.2671 23.216 16.7212 22.0599C15.1854 20.9113 13.9325 19.7846 13.4072 19.2593L11.993 20.6735C12.5923 21.2728 13.9187 22.4615 15.5234 23.6615C17.1181 24.8541 19.0595 26.1127 20.8784 26.7915L21.5777 24.9178ZM25.4879 21.19C25.4924 21.1922 25.4837 21.1901 25.4721 21.1697C25.4658 21.1587 25.4586 21.1421 25.4544 21.1199C25.4501 21.0972 25.4498 21.0732 25.4535 21.051L27.4257 21.3836C27.5768 20.4875 27.0487 19.7262 26.3648 19.3925L25.4879 21.19ZM21.4421 19.3155C21.4758 19.2886 21.5104 19.276 21.5344 19.2725C21.5558 19.2693 21.5602 19.2739 21.5561 19.2719L22.433 17.4744C21.6515 17.0932 20.7854 17.2823 20.1972 17.7501L21.4421 19.3155Z"
  />
</svg>
