<svg viewBox="0 0 32 32" xmlns="http://www.w3.org/2000/svg">
  <path
    d="M11.1569 6.04192C11.9355 5.94062 12.6966 6.30373 13.109 6.96086L13.1862 7.09563L15.026 10.6064C15.1239 10.7931 15.1921 10.9942 15.2272 11.2021C15.2594 11.3933 15.2629 11.5789 15.2457 11.7499L15.2438 11.7626C15.1999 12.1734 15.0376 12.5354 14.8209 12.8212L14.693 12.9921C14.6488 13.0535 14.6092 13.1137 14.5739 13.1708L14.4772 13.3427C14.4645 13.3686 14.4545 13.3921 14.4459 13.413L14.526 13.5556C14.5873 13.6537 14.6637 13.7644 14.7516 13.8837L15.0494 14.2665C15.4845 14.8027 16.0056 15.3594 16.3483 15.7021C16.6054 15.9592 16.9824 16.3155 17.3805 16.6611L17.7819 16.9999C18.0527 17.2196 18.2957 17.4008 18.4918 17.5234V17.5214C18.5473 17.556 18.5962 17.582 18.6364 17.6034L18.7067 17.5712C18.8097 17.5208 18.9305 17.4476 19.0573 17.3564L19.2272 17.2265L19.2282 17.2294C19.5115 17.0146 19.8747 16.848 20.2926 16.8046L20.3024 16.8036C20.4843 16.7857 20.631 16.7953 20.7057 16.8027C20.7491 16.8069 20.7871 16.8126 20.818 16.8173C20.8334 16.8197 20.8478 16.8228 20.861 16.8251C20.8677 16.8263 20.8753 16.8269 20.8815 16.828C20.8845 16.8286 20.8873 16.8304 20.8903 16.831H20.8981C21.0877 16.8681 21.2728 16.9336 21.444 17.0234L24.9528 18.8632C25.6945 19.2522 26.1156 20.062 26.0075 20.8925C25.8768 21.8939 25.4638 23.2157 24.6803 24.2636L24.5182 24.4687C24.0487 25.0371 23.415 25.559 22.6012 25.8144L22.444 25.8603C21.6594 26.0668 20.8313 25.9935 20.0035 25.6503L19.6989 25.5185C18.1746 24.8344 16.5672 23.7376 15.234 22.7128L14.7096 22.3017C13.5136 21.3494 12.5383 20.4624 12.0621 19.9863L11.5631 19.4628C10.9779 18.8301 10.162 17.8894 9.33558 16.8144L8.92347 16.2675C7.95726 14.9609 6.98535 13.4567 6.40003 12.0458L6.27698 11.7148C6.04172 10.9976 6.01011 10.2843 6.18909 9.60442L6.23401 9.44817L6.34241 9.15032C6.58144 8.5735 6.95475 8.09674 7.36976 7.71379L7.58069 7.53117C8.65681 6.64257 10.0887 6.18122 11.1569 6.04192ZM11.4147 8.02532C10.6575 8.12412 9.69285 8.44373 8.99085 8.96574L8.85413 9.07219C8.49385 9.36974 8.25116 9.69884 8.14222 10.0458C8.05126 10.3361 8.04024 10.6784 8.17835 11.0956L8.24769 11.2792C8.74401 12.4756 9.60641 13.8259 10.525 15.0693L10.9215 15.5956C11.9758 16.967 13.0004 18.0964 13.4772 18.5732C13.9544 19.0502 15.0825 20.0738 16.4537 21.1279L16.9791 21.5234C18.2226 22.4421 19.5727 23.3053 20.7692 23.8017C21.2712 24.0098 21.6709 24.0101 22.0026 23.9062C22.3495 23.7972 22.6787 23.5555 22.9762 23.1952C23.4886 22.5747 23.8263 21.6978 23.9733 20.9472L24.0241 20.6337L20.5143 18.7948L20.4987 18.7939C20.49 18.7948 20.4795 18.797 20.4684 18.8017L20.4332 18.8232L20.2448 18.9648C20.0966 19.0724 19.9331 19.1811 19.7604 19.2773L19.5846 19.3681C19.2871 19.5135 18.8779 19.6625 18.4371 19.621L18.2975 19.6005C17.9744 19.5355 17.6606 19.3607 17.4332 19.2187C17.2855 19.1264 17.1324 19.021 16.9791 18.9081L16.5221 18.5527C15.9198 18.0639 15.3124 17.4943 14.9342 17.1161C14.5561 16.7381 13.985 16.1302 13.4957 15.5273C13.2521 15.227 13.0153 14.9107 12.8307 14.6152C12.6888 14.3879 12.514 14.0748 12.4489 13.7519L12.4283 13.6122C12.3868 13.1717 12.535 12.7623 12.6803 12.4648C12.7962 12.2278 12.9402 12.002 13.0836 11.8046L13.2252 11.6152C13.2436 11.5919 13.2536 11.5672 13.2555 11.5497C13.2562 11.5426 13.2558 11.5374 13.2555 11.5351L11.4147 8.02532Z"
  />
  <path
    d="M25.2926 5.29289C25.6831 4.90237 26.3171 4.90237 26.7076 5.29289C27.0978 5.68337 27.0978 6.31652 26.7076 6.70696L22.4137 10.9999H24.9996C25.5519 10.9999 25.9996 11.4476 25.9996 11.9999C25.9996 12.5522 25.5519 12.9999 24.9996 12.9999H19.9996L19.8981 12.995C19.875 12.9927 19.8523 12.9882 19.8297 12.9843C19.8219 12.983 19.8141 12.9819 19.8063 12.9804C19.7834 12.9759 19.7612 12.9698 19.7389 12.9638C19.7291 12.9612 19.7193 12.9589 19.7096 12.956C19.699 12.9528 19.6888 12.9488 19.6783 12.9452C19.5977 12.9179 19.5198 12.8805 19.4469 12.832C19.338 12.7594 19.2437 12.6669 19.1705 12.5585L19.1647 12.5497C19.1593 12.5416 19.1552 12.5326 19.15 12.5243C19.1228 12.4804 19.098 12.4348 19.0778 12.3866C19.0706 12.3696 19.0644 12.3522 19.0582 12.3349C19.0428 12.2915 19.0295 12.247 19.0201 12.2011L19.0182 12.1913C19.0059 12.1282 18.9996 12.064 18.9996 11.9999V6.99992C18.9996 6.44778 19.4476 6.00016 19.9996 5.99992C20.5519 5.99992 20.9996 6.44764 20.9996 6.99992V9.58586L25.2926 5.29289Z"
  />
</svg>
