<svg viewBox="0 0 32 32" xmlns="http://www.w3.org/2000/svg">
<path d="M25.6087 19.168L21.7687 17.298C21.4168 17.1328 21.0254 17.0704 20.6397 17.1182C20.2539 17.166 19.8896 17.3219 19.5887 17.568C19.3757 17.7329 19.1519 17.8832 18.9187 18.018C18.813 18.069 18.7024 18.1093 18.5887 18.138C18.4947 18.0995 18.4043 18.0526 18.3187 17.998C18.0452 17.826 17.7815 17.6391 17.5287 17.438C16.9387 16.968 16.3387 16.438 15.9587 16.038C15.5787 15.638 15.0287 15.038 14.5587 14.468C14.3576 14.2152 14.1707 13.9515 13.9987 13.678C13.9441 13.5924 13.8972 13.502 13.8587 13.408C13.8874 13.2943 13.9276 13.1837 13.9787 13.078C14.1135 12.8448 14.2638 12.621 14.4287 12.408C14.6748 12.1071 14.8307 11.7428 14.8785 11.357C14.9263 10.9713 14.8639 10.5799 14.6987 10.228L12.8287 6.38802C12.6526 6.03533 12.3684 5.7481 12.0177 5.56822C11.6669 5.38834 11.2678 5.3252 10.8787 5.38802C9.43894 5.63032 8.08371 6.23226 6.93867 7.13802C6.30184 7.66777 5.81845 8.35834 5.53867 9.13802C5.24245 10.0044 5.2673 10.9484 5.60867 11.798C6.39091 13.6586 7.41652 15.4072 8.65867 16.998C9.5551 18.2078 10.5306 19.357 11.5787 20.438C12.6539 21.4786 13.7964 22.4473 14.9987 23.338C16.5988 24.5825 18.3576 25.6082 20.2287 26.388C21.0774 26.7339 22.023 26.7588 22.8887 26.458C23.6502 26.1705 24.3227 25.6877 24.8387 25.058C25.7552 23.9161 26.3676 22.5606 26.6187 21.118C26.6807 20.7277 26.6161 20.3279 26.4343 19.977C26.2526 19.626 25.9632 19.3426 25.6087 19.168ZM23.3687 23.788C23.0816 24.1569 22.7021 24.4432 22.2687 24.618C21.8296 24.7561 21.3563 24.7384 20.9287 24.568C19.2349 23.8465 17.6416 22.9087 16.1887 21.778C15.069 20.918 14.0036 19.9896 12.9987 18.998C12.0195 17.979 11.1044 16.9002 10.2587 15.768C9.12743 14.3173 8.19268 12.7235 7.47867 11.028C7.29643 10.6035 7.2751 10.1271 7.41867 9.68802C7.5935 9.25458 7.87984 8.87508 8.24867 8.58802C9.08277 7.93784 10.0597 7.49564 11.0987 7.29802L12.9987 11.088C13.0035 11.1178 13.0035 11.1482 12.9987 11.178C12.7508 11.49 12.5331 11.8248 12.3487 12.178C12.1191 12.5833 12.0018 13.0424 12.0087 13.508C12.051 13.9187 12.1916 14.3132 12.4187 14.658C12.6354 15.0051 12.8725 15.339 13.1287 15.658C13.6587 16.318 14.2687 16.988 14.6787 17.398C15.0887 17.808 15.7587 18.398 16.4187 18.948C16.7377 19.2042 17.0716 19.4413 17.4187 19.658C17.7635 19.8851 18.158 20.0257 18.5687 20.068C19.0343 20.0749 19.4934 19.9576 19.8987 19.728C20.2519 19.5436 20.5867 19.3259 20.8987 19.078C20.9253 19.0559 20.9558 19.039 20.9887 19.028L24.6987 20.898C24.4953 21.9547 24.039 22.9463 23.3687 23.788Z" />
</svg>
