<svg viewBox="0 0 32 32" xmlns="http://www.w3.org/2000/svg">
    <path d="M12.8283 6.39422C12.5026 5.72666 11.7595 5.21121 10.8848 5.35869C9.69411 5.55948 8.10909 6.14601 6.93966 7.14183C6.34678 7.64668 5.82037 8.29167 5.54098 9.08703C5.25504 9.90103 5.25313 10.8033 5.60621 11.7494C6.26877 13.5248 7.49725 15.4198 8.66125 16.9763C9.83256 18.5426 10.9928 19.8373 11.5777 20.4223L12.9581 19.0419C12.4455 18.5292 11.3457 17.3063 10.2246 15.8072C9.09622 14.2983 7.9999 12.5801 7.43518 11.0669C7.23402 10.5278 7.25554 10.0964 7.38282 9.73402C7.51666 9.35302 7.79325 8.97901 8.2053 8.62814C9.01309 7.94028 10.1831 7.4777 11.0997 7.30339L12.9458 11.0876C12.9464 11.09 12.9473 11.0965 12.9455 11.1091C12.942 11.1326 12.9297 11.1663 12.9035 11.1992C12.6811 11.479 12.4379 11.8243 12.249 12.1912C12.0717 12.5357 11.883 13.0114 11.906 13.5184C11.9262 13.9601 12.1486 14.3863 12.3192 14.6738C12.5154 15.0042 12.7698 15.3532 13.0314 15.6828C13.5567 16.3445 14.1734 17.0056 14.5839 17.4161L15.9643 16.0357C15.5909 15.6623 15.0274 15.0574 14.5604 14.469C14.3259 14.1736 14.1311 13.9016 13.998 13.6774C13.9082 13.5262 13.8735 13.4406 13.8609 13.4096L13.8597 13.4067C13.8679 13.3635 13.8952 13.2586 13.9849 13.0844C14.0958 12.8688 14.2573 12.6333 14.4314 12.4143C14.888 11.8402 15.0726 10.9948 14.7005 10.232L12.8283 6.39422ZM25.6058 19.1719C26.2734 19.4976 26.7888 20.2408 26.6413 21.1154C26.4406 22.3061 25.854 23.8911 24.8582 25.0606C24.3534 25.6534 23.7084 26.1799 22.913 26.4592C22.099 26.7452 21.1968 26.7471 20.2506 26.394C18.4752 25.7315 16.5802 24.503 15.0237 23.339C13.4574 22.1677 12.1627 21.0073 11.5777 20.4223L12.9581 19.0419C13.4708 19.5546 14.6937 20.6545 16.1928 21.7756C17.7017 22.904 19.4199 24.0003 20.9332 24.565C21.4722 24.7662 21.9037 24.7447 22.266 24.6174C22.647 24.4836 23.021 24.207 23.3719 23.7949C24.0598 22.9871 24.5223 21.8171 24.6967 20.9005L20.9124 19.0544C20.9101 19.0538 20.9035 19.0529 20.8909 19.0548C20.8675 19.0582 20.8338 19.0705 20.8008 19.0967C20.5211 19.3192 20.1758 19.5624 19.8089 19.7512C19.4644 19.9285 18.9887 20.1172 18.4817 20.0942C18.0399 20.0741 17.6138 19.8516 17.3263 19.681C16.9958 19.4848 16.6468 19.2304 16.3172 18.9688C15.6556 18.4435 14.9945 17.8267 14.5839 17.4161L15.9643 16.0357C16.3378 16.4092 16.9427 16.9728 17.531 17.4398C17.8264 17.6743 18.0984 17.8691 18.3227 18.0022C18.4739 18.092 18.5595 18.1268 18.5905 18.1394L18.5934 18.1405C18.6365 18.1323 18.7414 18.105 18.9156 18.0154C19.1313 17.9044 19.3668 17.7429 19.5857 17.5688C20.1599 17.1122 21.0052 16.9276 21.768 17.2997L25.6058 19.1719Z" />
    <path d="M23.5858 7L19.2929 11.2929C18.9024 11.6834 18.9024 12.3166 19.2929 12.7071C19.6835 13.0976 20.3166 13.0976 20.7071 12.7071L25 8.41421V11C25 11.5523 25.4478 12 26 12C26.5523 12 27 11.5523 27 11V6C27 5.86441 26.9731 5.73512 26.9242 5.61722C26.8765 5.50195 26.8063 5.3938 26.7136 5.29945C26.7093 5.29506 26.705 5.29071 26.7006 5.2864C26.6062 5.19374 26.4981 5.12357 26.3828 5.07588C26.2649 5.02699 26.1356 5 26 5H21C20.4478 5 20 5.44772 20 6C20 6.55228 20.4478 7 21 7H23.5858Z" />
</svg>
