<svg viewBox="0 0 32 32" xmlns="http://www.w3.org/2000/svg">
<path
    d="M6.95508 20.5898L10.9927 19.1968C11.3583 19.0649 11.6791 18.8322 11.9181 18.5256C12.1571 18.2191 12.3045 17.8511 12.3432 17.4644C12.3772 17.1972 12.4292 16.9326 12.4988 16.6724C12.5374 16.5616 12.5872 16.455 12.6473 16.3542C12.741 16.315 12.838 16.2843 12.9372 16.2623C13.2522 16.1906 13.5708 16.1363 13.8918 16.0997C14.6413 16.0148 15.4404 15.9653 15.9919 15.9794C16.5434 15.9936 17.3566 16.0289 18.092 16.0997C18.413 16.1363 18.7316 16.1906 19.0466 16.2623C19.1458 16.2843 19.2428 16.315 19.3365 16.3542C19.3966 16.455 19.4464 16.5616 19.485 16.6724C19.5546 16.9326 19.6066 17.1972 19.6406 17.4644C19.6793 17.8511 19.8267 18.2191 20.0657 18.5256C20.3047 18.8322 20.6255 19.0649 20.9911 19.1968L25.0287 20.5898C25.4026 20.7147 25.8066 20.7168 26.1819 20.596C26.5571 20.4752 26.8839 20.2376 27.1147 19.918C27.9614 18.7287 28.4941 17.3447 28.6633 15.8946C28.739 15.0697 28.5925 14.2396 28.239 13.4904C27.8358 12.6683 27.1507 12.0184 26.3086 11.659C24.4398 10.8965 22.4782 10.3853 20.475 10.1387C18.9856 9.91717 17.4833 9.79434 15.9778 9.77105C14.4817 9.79558 12.9888 9.91841 11.5088 10.1387C9.49743 10.3903 7.52849 10.9086 5.654 11.6802C4.80932 12.0358 4.12308 12.6868 3.7236 13.5116C3.38842 14.2535 3.25429 15.0704 3.33469 15.8805C3.49409 17.336 4.01954 18.7275 4.86204 19.9251C5.09418 20.2449 5.42262 20.482 5.79927 20.6016C6.17591 20.7212 6.58096 20.7171 6.95508 20.5898ZM5.27216 15.739C5.21434 15.2753 5.28021 14.8044 5.46308 14.3743C5.67598 13.9662 6.02313 13.644 6.44596 13.4622C8.15385 12.7747 9.94356 12.3112 11.7705 12.0833C13.1703 11.8997 14.5801 11.8028 15.9919 11.7934C17.4048 11.8216 18.8147 11.9373 20.2133 12.1399C22.0391 12.3658 23.827 12.8318 25.5308 13.5258C25.9598 13.6971 26.3117 14.0189 26.5207 14.4309C26.7036 14.861 26.7695 15.3318 26.7116 15.7956C26.5816 16.8452 26.2035 17.8486 25.6086 18.723L21.5851 17.3866C21.5606 17.3689 21.5391 17.3475 21.5215 17.323C21.4762 16.9271 21.3933 16.5364 21.274 16.1562C21.1497 15.7074 20.9081 15.2998 20.574 14.9754C20.2536 14.7149 19.8753 14.5354 19.4709 14.4521C19.0722 14.3599 18.6685 14.2915 18.2617 14.247C17.4203 14.1551 16.5152 14.1127 15.9353 14.1127C15.3555 14.1127 14.4645 14.1693 13.6089 14.247C13.2022 14.2915 12.7984 14.3599 12.3998 14.4521C11.9954 14.5354 11.617 14.7149 11.2967 14.9754C10.9626 15.2998 10.7209 15.7074 10.5967 16.1562C10.4774 16.5364 10.3945 16.9271 10.3492 17.323C10.346 17.3574 10.3364 17.391 10.3209 17.4219L6.37525 18.723C5.7719 17.8321 5.3934 16.8082 5.27216 15.739Z"
  />
</svg>
