<svg viewBox="0 0 32 32" xmlns="http://www.w3.org/2000/svg">
  <path
    d="M25.2931 5.29289C25.6837 4.90237 26.3167 4.90237 26.7072 5.29289C27.0976 5.68342 27.0977 6.31646 26.7072 6.70696L5.7072 27.707C5.3167 28.0975 4.68367 28.0974 4.29314 27.707C3.90261 27.3164 3.90261 26.6834 4.29314 26.2929L25.2931 5.29289Z"
  />
  <path
    d="M20.7052 16.8027C20.7485 16.8069 20.7867 16.8126 20.8176 16.8173C20.833 16.8197 20.8483 16.8228 20.8615 16.8251C20.8679 16.8262 20.8751 16.827 20.881 16.828C20.8839 16.8286 20.8871 16.8303 20.8898 16.831H20.8976C21.0872 16.8681 21.2724 16.9337 21.4435 17.0234L24.9523 18.8632C25.6941 19.2521 26.1151 20.0619 26.007 20.8925C25.8763 21.8939 25.4634 23.2158 24.6799 24.2636L24.5177 24.4687C24.0483 25.0369 23.4152 25.5589 22.6017 25.8144L22.4435 25.8603C21.6592 26.0666 20.8307 25.9934 20.0031 25.6503L19.6994 25.5185C18.1752 24.8344 16.5667 23.7376 15.2336 22.7128L14.7092 22.3017C14.5638 22.1859 14.4237 22.0682 14.2853 21.955L15.7052 20.5351C15.9443 20.7287 16.194 20.9285 16.4533 21.1279L16.9787 21.5234C18.2221 22.4421 19.5732 23.3053 20.7697 23.8017C21.2714 24.0096 21.6716 24.01 22.0031 23.9062C22.3498 23.7972 22.6794 23.5553 22.9767 23.1952C23.489 22.5747 23.8259 21.6977 23.9728 20.9472L24.0236 20.6337L20.5148 18.7948L20.4982 18.7939C20.4897 18.7948 20.4788 18.7971 20.4679 18.8017L20.4328 18.8232L20.2443 18.9648C20.0962 19.0724 19.9326 19.1812 19.7599 19.2773L19.5842 19.3681C19.2867 19.5134 18.8773 19.6625 18.4367 19.621L18.297 19.6005C17.9743 19.5354 17.661 19.3605 17.4338 19.2187C17.3525 19.1679 17.2693 19.1123 17.1857 19.0546L18.6369 17.6034L18.7062 17.5712C18.8092 17.5208 18.9311 17.4476 19.0578 17.3564L19.2277 17.2265V17.2294C19.511 17.0146 19.8745 16.848 20.2922 16.8046L20.3029 16.8036C20.4843 16.7858 20.6305 16.7953 20.7052 16.8027Z"
  />
  <path
    d="M11.1564 6.04192C11.9351 5.94055 12.6961 6.30378 13.1086 6.96086L13.1857 7.09563L15.0265 10.6064C15.1243 10.793 15.1916 10.9944 15.2267 11.2021C15.259 11.3933 15.2624 11.5789 15.2453 11.7499L15.2433 11.7626C15.1994 12.1734 15.0372 12.5354 14.8205 12.8212L14.6926 12.9921C14.6484 13.0534 14.6087 13.1137 14.5734 13.1708L14.5568 13.1991L12.9533 14.8027C12.9105 14.7395 12.8688 14.6769 12.8302 14.6152C12.6884 14.3879 12.5136 14.0747 12.4484 13.7519L12.4279 13.6122C12.3864 13.1716 12.5355 12.7623 12.6808 12.4648C12.7967 12.2277 12.9407 12.002 13.0842 11.8046L13.2248 11.6152C13.2432 11.5919 13.2532 11.5672 13.2551 11.5497C13.2557 11.5426 13.2554 11.5374 13.2551 11.5351L11.4142 8.02532C10.6571 8.12421 9.69221 8.44387 8.9904 8.96574L8.85368 9.07219C8.49353 9.36969 8.25068 9.6989 8.14177 10.0458C8.05086 10.336 8.03988 10.6785 8.1779 11.0956L8.24724 11.2792C8.74358 12.4757 9.60689 13.8258 10.5256 15.0693L10.9211 15.5956C11.1048 15.8347 11.2887 16.0659 11.4679 16.288L10.0461 17.7099C9.81398 17.4254 9.57439 17.1256 9.33513 16.8144L8.92302 16.2675C7.95684 14.9609 6.98487 13.4567 6.39958 12.0458L6.27653 11.7148C6.04131 10.9976 6.0097 10.2843 6.18864 9.60442L6.23357 9.44817L6.34196 9.15032C6.58095 8.57358 6.95438 8.09672 7.36931 7.71379L7.58025 7.53117C8.65623 6.64263 10.0883 6.1813 11.1564 6.04192Z"
  />
</svg>
