<svg viewBox="0 0 32 32" xmlns="http://www.w3.org/2000/svg">
<path
    d="M22.4142 11L26.707 6.70711C27.0976 6.31658 27.0976 5.68342 26.707 5.29289C26.3165 4.90237 25.6834 4.90237 25.2928 5.29289L20.9999 9.58579V7C20.9999 6.44772 20.5522 6 19.9999 6C19.4477 6 18.9999 6.44772 18.9999 7V12C18.9999 12.1356 19.0269 12.2649 19.0758 12.3828C19.1235 12.498 19.1937 12.6062 19.2863 12.7005C19.2906 12.7049 19.295 12.7093 19.2994 12.7136C19.3937 12.8063 19.5019 12.8764 19.6172 12.9241C19.7351 12.973 19.8644 13 19.9999 13H24.9999C25.5522 13 25.9999 12.5523 25.9999 12C25.9999 11.4477 25.5522 11 24.9999 11H22.4142Z"
  />
<path
    d="M25.6087 19.1681L21.7687 17.2981C21.4168 17.1328 21.0254 17.0705 20.6397 17.1182C20.2539 17.166 19.8896 17.322 19.5887 17.5681C19.3757 17.7329 19.1519 17.8833 18.9187 18.0181C18.813 18.0691 18.7024 18.1093 18.5887 18.1381C18.4947 18.0995 18.4043 18.0526 18.3187 17.9981C18.0452 17.8261 17.7815 17.6391 17.5287 17.4381C16.9387 16.9681 16.3387 16.4381 15.9587 16.0381C15.5787 15.6381 15.0287 15.0381 14.5587 14.4681C14.3576 14.2152 14.1707 13.9515 13.9987 13.6781C13.9441 13.5924 13.8972 13.502 13.8587 13.4081C13.8874 13.2943 13.9276 13.1837 13.9787 13.0781C14.1135 12.8449 14.2638 12.621 14.4287 12.4081C14.6748 12.1072 14.8307 11.7428 14.8785 11.357C14.9263 10.9713 14.8639 10.5799 14.6987 10.2281L12.8287 6.38806C12.6526 6.03536 12.3684 5.74814 12.0177 5.56825C11.6669 5.38837 11.2678 5.32524 10.8787 5.38806C9.43894 5.63035 8.08371 6.23229 6.93867 7.13806C6.30184 7.6678 5.81845 8.35837 5.53867 9.13806C5.24245 10.0045 5.2673 10.9484 5.60867 11.7981C6.39091 13.6586 7.41652 15.4072 8.65867 16.9981C9.5551 18.2078 10.5306 19.357 11.5787 20.4381C12.6539 21.4786 13.7964 22.4474 14.9987 23.3381C16.5988 24.5825 18.3576 25.6082 20.2287 26.3881C21.0774 26.7339 22.023 26.7588 22.8887 26.4581C23.6502 26.1705 24.3227 25.6877 24.8387 25.0581C25.7552 23.9161 26.3676 22.5606 26.6187 21.1181C26.6807 20.7278 26.6161 20.3279 26.4343 19.977C26.2526 19.6261 25.9632 19.3426 25.6087 19.1681ZM23.3687 23.7881C23.0816 24.1569 22.7021 24.4432 22.2687 24.6181C21.8296 24.7561 21.3563 24.7384 20.9287 24.5681C19.2349 23.8465 17.6416 22.9087 16.1887 21.7781C15.069 20.9181 14.0036 19.9896 12.9987 18.9981C12.0195 17.979 11.1044 16.9003 10.2587 15.7681C9.12743 14.3173 8.19268 12.7235 7.47867 11.0281C7.29643 10.6035 7.2751 10.1272 7.41867 9.68806C7.5935 9.25461 7.87984 8.87512 8.24867 8.58806C9.08277 7.93787 10.0597 7.49567 11.0987 7.29806L12.9987 11.0881C13.0035 11.1179 13.0035 11.1483 12.9987 11.1781C12.7508 11.49 12.5331 11.8249 12.3487 12.1781C12.1191 12.5833 12.0018 13.0424 12.0087 13.5081C12.051 13.9188 12.1916 14.3132 12.4187 14.6581C12.6354 15.0051 12.8725 15.339 13.1287 15.6581C13.6587 16.3181 14.2687 16.9881 14.6787 17.3981C15.0887 17.8081 15.7587 18.3981 16.4187 18.9481C16.7377 19.2043 17.0716 19.4413 17.4187 19.6581C17.7635 19.8851 18.158 20.0257 18.5687 20.0681C19.0343 20.0749 19.4934 19.9576 19.8987 19.7281C20.2519 19.5436 20.5867 19.326 20.8987 19.0781C20.9253 19.056 20.9558 19.039 20.9887 19.0281L24.6987 20.8981C24.4953 21.9547 24.039 22.9463 23.3687 23.7881Z"
  />
</svg>
