<svg viewBox="0 0 32 32" xmlns="http://www.w3.org/2000/svg">
  <path
    d="M16.4305 4.99988C16.9828 4.0433 18.2063 3.71615 19.1629 4.26844L24.9608 7.61609C25.9173 8.16836 26.2454 9.39097 25.6932 10.3475L20.6834 19.0253L22.0008 22.6083C22.2913 23.3983 22.0567 24.2857 21.4129 24.828C20.7688 25.3704 19.8531 25.4512 19.1239 25.0302L13.9276 22.0302L10.9286 27.2264C10.6525 27.7046 10.0406 27.8685 9.56234 27.5927C9.08405 27.3165 8.92 26.7047 9.19613 26.2264L12.1952 21.0302L6.99984 18.0302C6.27062 17.6091 5.88347 16.7761 6.03109 15.9471C6.17885 15.1185 6.82956 14.4715 7.65902 14.328L11.4207 13.6776L16.4305 4.99988Z"
  />
</svg>
