<svg viewBox="0 0 32 32" xmlns="http://www.w3.org/2000/svg">
  <path
    d="M16.4305 5.0006C16.9828 4.04402 18.2063 3.71591 19.1629 4.26818L24.9617 7.61584C25.918 8.16822 26.2454 9.3918 25.6932 10.3483L20.6834 19.025L22.0008 22.608C22.2913 23.3981 22.0567 24.2854 21.4129 24.8278C20.7688 25.3701 19.8531 25.4509 19.1238 25.0299L13.9285 22.0299L10.9285 27.2262C10.6524 27.7045 10.0406 27.8685 9.56232 27.5924C9.08403 27.3163 8.91997 26.7045 9.19611 26.2262L12.1961 21.0299L6.99982 18.0299C6.2708 17.6088 5.88347 16.7758 6.03107 15.9469C6.17894 15.1184 6.82971 14.4712 7.659 14.3278L11.4207 13.6774L16.4305 5.0006ZM12.6854 15.4879L7.99982 16.2985L14.0574 19.7955L14.0623 19.7985L14.0662 19.8004L20.1238 23.2985L18.4832 18.8356L23.9617 9.34826L18.1629 6.0006L12.6854 15.4879Z"
  />
</svg>
