<svg viewBox="0 0 32 32" xmlns="http://www.w3.org/2000/svg">
  <path
    d="M16 29.0001C8.82031 29.0001 3.00001 23.1798 3.00001 16.0001C3.00001 8.82042 8.82031 3.00012 16 3.00012C23.1797 3.00012 29 8.82042 29 16.0001C29 23.1798 23.1797 29.0001 16 29.0001ZM14.1202 11.1622C13.9691 11.0563 13.7942 11.0001 13.6157 11.0001C13.0916 11.0001 12.6667 11.4744 12.6667 12.0594V20.6074C12.6667 20.8066 12.717 21.0017 12.8119 21.1705C13.0905 21.666 13.6763 21.8156 14.1202 21.5046L20.222 17.2306C20.343 17.1458 20.4454 17.0316 20.5213 16.8965C20.8 16.401 20.6659 15.7472 20.222 15.4362L14.1202 11.1622Z"
  />
</svg>
