<svg
  width="13"
  height="16"
  viewBox="0 0 13 16"
  fill="none"
  xmlns="http://www.w3.org/2000/svg"
>
<path
    d="M13 8C13.0005 8.19587 12.949 8.38854 12.8507 8.55926C12.7523 8.72997 12.6104 8.87293 12.4386 8.97423L1.79636 15.3302C1.61694 15.4374 1.41144 15.496 1.20108 15.4998C0.990724 15.5036 0.783143 15.4525 0.599773 15.3518C0.418149 15.2527 0.266852 15.1081 0.161439 14.9329C0.0560266 14.7578 0.000303474 14.5584 0 14.3552V1.64478C0.000303474 1.44163 0.0560266 1.24222 0.161439 1.06707C0.266852 0.891912 0.418149 0.747331 0.599773 0.648189C0.783143 0.547484 0.990724 0.496395 1.20108 0.500198C1.41144 0.504001 1.61694 0.562559 1.79636 0.669823L12.4386 7.02577C12.6104 7.12706 12.7523 7.27002 12.8507 7.44074C12.949 7.61146 13.0005 7.80412 13 8Z"
    fill="white"
  />
</svg>
