<svg viewBox="0 0 32 32" xmlns="http://www.w3.org/2000/svg">
  <path
    d="M25.3333 16C25.334 16.2612 25.2654 16.5181 25.1342 16.7457C25.0031 16.9733 24.8138 17.1639 24.5848 17.299L10.3952 25.7736C10.1559 25.9166 9.88191 25.9947 9.60144 25.9997C9.32097 26.0048 9.04419 25.9367 8.7997 25.8024C8.55753 25.6702 8.3558 25.4775 8.21525 25.2439C8.0747 25.0104 8.0004 24.7445 8 24.4736V7.52637C8.0004 7.2555 8.0747 6.98963 8.21525 6.75609C8.3558 6.52255 8.55753 6.32977 8.7997 6.19759C9.04419 6.06331 9.32097 5.99519 9.60144 6.00026C9.88191 6.00533 10.1559 6.08341 10.3952 6.22643L24.5848 14.701C24.8138 14.8361 25.0031 15.0267 25.1342 15.2543C25.2654 15.4819 25.334 15.7388 25.3333 16Z"
  />
</svg>
