<svg viewBox="0 0 32 32" xmlns="http://www.w3.org/2000/svg">
<path
    d="M17.6813 7.30819L14.6419 10.3476H8.78186L8.76762 10.3477C8.30838 10.3542 7.87022 10.541 7.54757 10.8676L4.51335 13.8925L4.51185 13.894C4.28795 14.1182 4.1291 14.3989 4.05225 14.7063C3.97541 15.0136 3.98345 15.3361 4.07552 15.6393C4.16759 15.9424 4.34024 16.2149 4.57503 16.4276C4.8096 16.6401 5.09833 16.7852 5.40873 16.8471L9.3353 17.6343C9.49478 17.6663 9.653 17.6584 9.79965 17.6175L14.8892 22.7071C14.9513 22.7692 15.0195 22.8213 15.0918 22.8637L15.8068 26.4302C15.8687 26.7407 16.0136 27.0285 16.2261 27.2631C16.4389 27.4979 16.7113 27.6705 17.0145 27.7626C17.3177 27.8547 17.6401 27.8627 17.9475 27.7859C18.2549 27.709 18.5356 27.5502 18.7598 27.3263L21.7861 24.2905C22.1127 23.9679 22.2996 23.5297 22.3061 23.0705L22.3062 23.0563V17C22.3062 16.9096 22.2942 16.8221 22.2717 16.7388L24.6918 14.3188C28.1456 10.8649 28.1441 7.34408 27.9153 5.76382C27.8571 5.33907 27.6615 4.94495 27.3583 4.64171C27.0551 4.33848 26.6609 4.14289 26.2362 4.08473C24.6559 3.85595 21.1351 3.85438 17.6813 7.30819ZM19.0955 8.7224C21.9748 5.84308 24.7875 5.89824 25.9376 6.06237C26.1018 7.21248 26.1569 10.0252 23.2776 12.9045L15.5964 20.5858L11.4142 16.4037L19.0955 8.7224ZM12.6419 12.3476L9.38497 15.6045L6.25776 14.9775L8.89587 12.3476H12.6419ZM16.9653 22.0452L20.3062 18.7044V22.9422L17.6762 25.5804L16.9804 22.1097C16.9761 22.0879 16.971 22.0664 16.9653 22.0452Z"
  />
<path
    d="M8.94765 21.8656C8.0472 22.3865 7.54103 23.3395 7.26718 24.2954C7.21261 24.4858 7.16906 24.6705 7.13433 24.8438C7.30762 24.8091 7.4923 24.7655 7.68278 24.711C8.63861 24.4371 9.5916 23.9309 10.1125 23.0305C10.3891 22.5524 11.0009 22.3891 11.4789 22.6657C11.9569 22.9423 12.1203 23.554 11.8437 24.032C10.949 25.5785 9.41295 26.2957 8.23362 26.6336C7.6315 26.8061 7.08322 26.8915 6.68551 26.9342C6.48564 26.9557 6.32111 26.9666 6.20349 26.9722C6.14462 26.975 6.09729 26.9765 6.06294 26.9773L6.02127 26.978L6.00802 26.9781L6.00335 26.9781L6.00151 26.9781C6.00115 26.9781 6 26.9781 6 25.9781V26.9781C5.73478 26.9781 5.48043 26.8728 5.29289 26.6852C5.10536 26.4977 5 26.2426 5 25.9774L5 25.9748L5.00002 25.9701L5.00014 25.9569L5.00085 25.9152C5.00163 25.8809 5.00311 25.8335 5.00591 25.7746C5.01153 25.657 5.02249 25.4925 5.04395 25.2926C5.08665 24.8949 5.17203 24.3466 5.34453 23.7445C5.68241 22.5652 6.39967 21.0291 7.9461 20.1344C8.42415 19.8579 9.03588 20.0212 9.31245 20.4992C9.58902 20.9773 9.42569 21.589 8.94765 21.8656ZM6 25.9781L5 25.9774C5 25.9778 5 25.9781 6 25.9781Z"
  />
</svg>
