<svg viewBox="0 0 32 32" xmlns="http://www.w3.org/2000/svg">
  <path
    d="M15.7072 4.74714C16.1108 4.64064 16.5356 4.64437 16.9372 4.75792L24.5996 6.9241C25.511 7.18175 26.2013 7.98092 26.2716 8.9597C27.0374 19.6204 20.5093 25.2229 17.7525 27.0914C16.7196 27.7915 15.4 27.7936 14.3645 27.0995C11.5907 25.24 4.98635 19.6436 5.72352 8.98094C5.79242 7.98438 6.50353 7.17558 7.43455 6.92992L15.7072 4.74714ZM16.3931 6.68249C16.3358 6.66627 16.2751 6.66574 16.2174 6.68095L7.9448 8.86374C7.80729 8.90002 7.72608 9.01297 7.71876 9.11888C7.05297 18.749 12.9755 23.7605 15.4781 25.4382C15.8377 25.6793 16.2729 25.6781 16.6304 25.4358C19.111 23.7546 24.9689 18.7393 24.2767 9.103C24.2692 8.99807 24.1897 8.88659 24.0555 8.84867L16.3931 6.68249Z"
  />
</svg>
