<svg viewBox="0 0 32 32" xmlns="http://www.w3.org/2000/svg">
  <path
    d="M15.2403 17.3047L13.1308 22.6992C13.044 22.9212 13.3172 23.1043 13.478 22.9318L20.9406 14.9246C21.0695 14.7863 20.9747 14.5558 20.7888 14.5558H16.9371C16.8023 14.5558 16.7022 14.4268 16.7314 14.2908L17.8122 9.26594C17.8595 9.0457 17.5913 8.90555 17.4477 9.07551L11.0524 16.6444C10.9334 16.7853 11.0302 17.0054 11.2111 17.0054H15.0449C15.1943 17.0054 15.2962 17.1616 15.2403 17.3047Z"
  />
  <path
    d="M29 16C29 23.1797 23.1797 29 16 29C8.8203 29 3 23.1797 3 16C3 8.8203 8.8203 3 16 3C23.1797 3 29 8.8203 29 16ZM27 16C27 9.92487 22.0751 5 16 5C9.92487 5 5 9.92487 5 16C5 22.0751 9.92487 27 16 27C22.0751 27 27 22.0751 27 16Z"
  />
</svg>
