<svg viewBox="0 0 32 32" xmlns="http://www.w3.org/2000/svg">
  <path
    d="M27.693 20.8553L22.694 25.7214C22.3057 26.0993 21.6872 26.0993 21.2989 25.7214L16.2999 20.8553C15.9041 20.47 15.8956 19.8369 16.2808 19.4412C16.666 19.0454 17.2992 19.0369 17.6949 19.4221L20.9964 22.6359L20.9964 7C20.9964 6.44771 21.4442 6 21.9964 6C22.5487 6 22.9964 6.44772 22.9964 7L22.9964 22.6359L26.298 19.4221C26.6937 19.0369 27.3268 19.0454 27.7121 19.4412C28.0973 19.8369 28.0888 20.47 27.693 20.8553Z M16.4975 10.4331H3.00001C2.44772 10.4331 2.00001 9.98539 2.00001 9.4331C2.00001 8.88082 2.44772 8.43311 3.00001 8.43311H16.4975C17.0498 8.43311 17.4975 8.88082 17.4975 9.43311C17.4975 9.98539 17.0498 10.4331 16.4975 10.4331Z M13.498 16.7591L3.00001 16.7591C2.44772 16.7591 2.00001 16.3114 2.00001 15.7591C2.00001 15.2069 2.44772 14.7591 3.00001 14.7591L13.498 14.7591C14.0503 14.7591 14.498 15.2069 14.498 15.7591C14.498 16.3114 14.0503 16.7591 13.498 16.7591Z M10.9985 22.5986L3.00001 22.5986C2.44772 22.5986 2.00001 22.1508 2.00001 21.5986C2.00001 21.0463 2.44772 20.5986 3.00001 20.5986L10.9985 20.5986C11.5508 20.5986 11.9985 21.0463 11.9985 21.5986C11.9985 22.1508 11.5508 22.5986 10.9985 22.5986Z"
  />
</svg>
