<svg viewBox="0 0 32 32" xmlns="http://www.w3.org/2000/svg">
  <path
    d="M15.1721 10C15.1721 6.13401 18.3061 3 22.1721 3C23.0748 3 23.9399 3.17138 24.7349 3.48429L26.2045 4.06272L22.331 7.69989C21.9252 8.08094 21.9087 8.72003 22.2942 9.12154L22.9653 9.82037C23.3561 10.2273 24.0059 10.2306 24.4008 9.82766L28.1349 6.01742L28.697 7.46059C29.0041 8.24917 29.1721 9.10616 29.1721 10C29.1721 13.866 26.0381 17 22.1721 17C21.6472 17 21.1349 16.9421 20.6417 16.832L10.0815 27.7276C8.89268 28.9312 6.94425 28.9143 5.77644 27.6903L4.57955 26.4358C3.4376 25.2389 3.48034 23.344 4.6736 22.1997L15.3715 11.665C15.2411 11.1306 15.1721 10.5728 15.1721 10ZM22.1721 5C19.4107 5 17.1721 7.23858 17.1721 10C17.1721 10.5733 17.2682 11.1221 17.4444 11.6324L17.6504 12.2292L6.06548 23.636L6.05998 23.6412C5.66025 24.0225 5.64531 24.6556 6.0266 25.0552L7.22349 26.3097C7.6117 26.7166 8.25869 26.7233 8.65525 26.3254L20.046 14.5701L20.6388 14.7608C21.1207 14.9159 21.6356 15 22.1721 15C24.9335 15 27.1721 12.7614 27.1721 10C27.1721 9.95292 27.1714 9.90601 27.1702 9.85927L25.8292 11.2275C24.6446 12.4363 22.6951 12.4264 21.5228 11.2057L20.8517 10.5068C19.695 9.30231 19.7445 7.38505 20.962 6.2419L22.2833 5.00121C22.2463 5.0004 22.2093 5 22.1721 5Z"
  />
</svg>
