<svg viewBox="0 0 32 32" xmlns="http://www.w3.org/2000/svg">
  <path
    d="M24.0134 14C22.9089 14 22.0134 13.1046 22.0134 12C22.0134 10.8954 22.9089 10 24.0134 10C25.118 10 26.0134 10.8954 26.0134 12C26.0134 13.1046 25.118 14 24.0134 14Z"
  />
  <path
    d="M16.0134 14C14.9089 14 14.0134 13.1046 14.0134 12C14.0134 10.8954 14.9089 10 16.0134 10C17.118 10 18.0134 10.8954 18.0134 12C18.0134 13.1046 17.118 14 16.0134 14Z"
  />
  <path
    d="M8.01343 14C6.90886 14 6.01343 13.1046 6.01343 12C6.01343 10.8954 6.90886 10 8.01343 10C9.118 10 10.0134 10.8954 10.0134 12C10.0134 13.1046 9.118 14 8.01343 14Z"
  />
  <path
    d="M24.0134 22C22.9089 22 22.0134 21.1046 22.0134 20C22.0134 18.8954 22.9089 18 24.0134 18C25.118 18 26.0134 18.8954 26.0134 20C26.0134 21.1046 25.118 22 24.0134 22Z"
  />
  <path
    d="M16.0134 22C14.9089 22 14.0134 21.1046 14.0134 20C14.0134 18.8954 14.9089 18 16.0134 18C17.118 18 18.0134 18.8954 18.0134 20C18.0134 21.1046 17.118 22 16.0134 22Z"
  />
  <path
    d="M8.01343 22C6.90886 22 6.01343 21.1046 6.01343 20C6.01343 18.8954 6.90886 18 8.01343 18C9.118 18 10.0134 18.8954 10.0134 20C10.0134 21.1046 9.118 22 8.01343 22Z"
  />
</svg>
