<svg viewBox="0 0 32 32" xmlns="http://www.w3.org/2000/svg">
<path
    d="M9.46152 6H22.5385L23.2631 8.27273H23.2565L24 10.2727C24 11.5624 23.0217 12.4545 22 12.4545C20.9783 12.4545 20 11.5624 20 10.2727C20 9.69534 19.5523 9.22727 19 9.22727C18.4477 9.22727 18 9.69534 18 10.2727C18 11.5624 17.0217 12.4545 16 12.4545C14.9783 12.4545 14 11.5624 14 10.2727C14 9.69534 13.5523 9.22727 13 9.22727C12.4477 9.22727 12 9.69534 12 10.2727C12 11.5624 11.0217 12.4545 10 12.4545C8.97828 12.4545 8 11.5624 8 10.2727L8.74355 8.27273H8.73688L9.46152 6ZM6.63768 8.27273L6 10.2727C6 11.3333 6.37764 12.3016 7 13.0388V24.0006C7 25.6574 8.34315 27.0006 10 27.0006H22C23.6569 27.0006 25 25.6574 25 24.0006V13.0388C25.6224 12.3016 26 11.3333 26 10.2727L25.3623 8.27273L24.222 4.69623C24.0898 4.28154 23.7045 4 23.2692 4H8.73076C8.2955 4 7.91023 4.28154 7.77801 4.69623L6.63768 8.27273ZM9 14.3228C9.31962 14.4088 9.6547 14.4545 10 14.4545C11.1947 14.4545 12.2671 13.907 13 13.0388C13.7329 13.907 14.8053 14.4545 16 14.4545C17.1947 14.4545 18.2671 13.907 19 13.0388C19.7329 13.907 20.8053 14.4545 22 14.4545C22.3453 14.4545 22.6804 14.4088 23 14.3228V24.0006C23 24.5528 22.5523 25.0006 22 25.0006H18V24V21V19H16H14V21V24V25.0006H10C9.44772 25.0006 9 24.5528 9 24.0006V14.3228Z"
  />
</svg>
