<svg viewBox="0 0 32 32" xmlns="http://www.w3.org/2000/svg">
  <path d="M16.5651 17.1317H8.58063C7.95023 17.1317 7.43918 16.6206 7.43918 15.9902C7.43918 15.3598 7.95023 14.8488 8.58063 14.8488H11.7991C11.1257 14.1378 10.7891 13.2826 10.7891 12.2831C10.7891 11.046 11.2817 10.0247 12.2671 9.21912C13.2597 8.40637 14.5471 8 16.1295 8C17.2083 8 18.1685 8.20858 19.0101 8.62574C19.8588 9.04291 20.5133 9.6183 20.9736 10.3519C21.2501 10.7859 21.4449 11.2438 21.5579 11.7256C21.6891 12.2854 21.2087 12.7578 20.6337 12.7578C20.0588 12.7578 19.6181 12.2803 19.4516 11.73C19.3073 11.253 19.0522 10.8512 18.6864 10.5246C18.0822 9.97793 17.2299 9.70461 16.1295 9.70461C15.1081 9.70461 14.3098 9.93118 13.7344 10.3843C13.1662 10.8302 12.8821 11.4524 12.8821 12.2507C12.8821 12.8909 13.1518 13.4339 13.6912 13.8798C14.1214 14.2251 14.7854 14.5481 15.6832 14.8488H23.4194C24.0498 14.8488 24.5608 15.3598 24.5608 15.9902C24.5608 16.6206 24.0498 17.1317 23.4194 17.1317H20.606C20.8291 17.3572 21.0164 17.5967 21.1678 17.8501C21.5274 18.4399 21.7072 19.1339 21.7072 19.9323C21.7072 21.2054 21.2109 22.2267 20.2184 22.9963C19.2258 23.7587 17.8988 24.1399 16.2374 24.1399C15.1585 24.1399 14.1515 23.9349 13.2165 23.5249C12.2815 23.1078 11.5587 22.5396 11.048 21.8203C10.7424 21.3838 10.5296 20.9115 10.4095 20.4035C10.2772 19.8439 10.7589 19.3713 11.3339 19.3713C11.9089 19.3713 12.3485 19.8515 12.5353 20.3952C12.7015 20.8788 12.9969 21.2891 13.4215 21.6261C14.1264 22.1727 15.065 22.4461 16.2374 22.4461C17.3306 22.4461 18.1685 22.2231 18.7511 21.7772C19.3337 21.3312 19.625 20.7235 19.625 19.9539C19.625 19.1843 19.3553 18.5909 18.8159 18.1737C18.368 17.8214 17.6177 17.4741 16.5651 17.1317Z"/>
</svg>
