<svg xmlns="http://www.w3.org/2000/svg" viewBox="0 0 24 24"><defs><style>.cls-1{fill:none;}</style></defs><title>Brightness</title><g id="Layer_2" data-name="Layer 2"><g id="Elements_2" data-name="Elements 2"><path d="M1.32,13.07H3.45a1.07,1.07,0,0,0,0-2.14H1.32a1.07,1.07,0,0,0,0,2.14Zm19.23,0h2.13a1.07,1.07,0,0,0,0-2.14H20.55a1.07,1.07,0,1,0,0,2.14ZM10.93,1.32V3.45a1.07,1.07,0,1,0,2.14,0V1.32a1.07,1.07,0,0,0-2.14,0Zm0,19.23v2.13a1.07,1.07,0,0,0,2.14,0V20.55a1.07,1.07,0,1,0-2.14,0ZM5.58,4.07A1.07,1.07,0,0,0,4.07,5.58L5.21,6.71a1.06,1.06,0,0,0,1.5-1.5ZM18.79,17.29a1.06,1.06,0,0,0-1.5,1.5l1.13,1.14a1.07,1.07,0,0,0,1.51-1.51ZM19.93,5.58a1.07,1.07,0,0,0-1.51-1.51L17.29,5.21a1.06,1.06,0,0,0,1.5,1.5ZM6.71,18.79a1.06,1.06,0,0,0-1.5-1.5L4.07,18.42a1.07,1.07,0,0,0,1.51,1.51Z"/><path d="M12,8.8A3.2,3.2,0,1,1,8.8,12,3.2,3.2,0,0,1,12,8.8m0-2.14A5.34,5.34,0,1,0,17.34,12,5.34,5.34,0,0,0,12,6.66Z"/><rect class="cls-1" width="24" height="24"/></g></g></svg>