<svg viewBox="0 0 32 32" xmlns="http://www.w3.org/2000/svg">
  <path d="M15 3.6665C15 3.11422 15.4477 2.6665 16 2.6665C16.5523 2.6665 17 3.11422 17 3.6665V6.99984C17 7.55212 16.5523 7.99984 16 7.99984C15.4477 7.99984 15 7.55212 15 6.99984V3.6665ZM24.0638 6.70698C24.4543 6.31646 25.0875 6.31646 25.478 6.70698C25.8685 7.09751 25.8685 7.73067 25.478 8.1212L23.1213 10.4778C22.7308 10.8684 22.0976 10.8684 21.7071 10.4778C21.3166 10.0873 21.3166 9.45415 21.7071 9.06362L24.0638 6.70698ZM10.4805 21.707C10.8711 22.0975 10.8711 22.7307 10.4805 23.1212L8.12132 25.4804C7.7308 25.8709 7.09763 25.8709 6.70711 25.4804C6.31658 25.0899 6.31658 24.4567 6.70711 24.0662L9.06633 21.707C9.45686 21.3165 10.09 21.3165 10.4805 21.707ZM15 24.9999C15 24.4476 15.4477 23.9999 16 23.9999C16.5523 23.9999 17 24.4476 17 24.9999V28.3332C17 28.8855 16.5523 29.3332 16 29.3332C15.4477 29.3332 15 28.8855 15 28.3332V24.9999ZM6.62502 6.6248C7.01554 6.23427 7.64871 6.23427 8.03923 6.6248L10.3939 8.97947C10.7844 9.36999 10.7844 10.0032 10.3939 10.3937C10.0034 10.7842 9.37021 10.7842 8.97969 10.3937L6.62502 8.03901C6.2345 7.64849 6.2345 7.01532 6.62502 6.6248ZM21.7071 23.1212C21.3166 22.7306 21.3166 22.0975 21.7071 21.7069C22.0976 21.3164 22.7308 21.3164 23.1213 21.7069L25.4753 24.061C25.8659 24.4515 25.8659 25.0846 25.4753 25.4752C25.0848 25.8657 24.4516 25.8657 24.0611 25.4752L21.7071 23.1212ZM2.7 15.9999C2.7 15.4476 3.14772 14.9999 3.7 14.9999H7.03333C7.58562 14.9999 8.03333 15.4476 8.03333 15.9999C8.03333 16.5522 7.58562 16.9999 7.03333 16.9999H3.7C3.14772 16.9999 2.7 16.5522 2.7 15.9999ZM25 16.9999C24.4477 16.9999 24 16.5522 24 15.9999C24 15.4476 24.4477 14.9999 25 14.9999H28.3333C28.8856 14.9999 29.3333 15.4476 29.3333 15.9999C29.3333 16.5522 28.8856 16.9999 28.3333 16.9999H25ZM20.838 15.9998C20.838 13.3278 18.6719 11.1617 15.9999 11.1617C13.3279 11.1617 11.1618 13.3278 11.1618 15.9998C11.1618 18.6718 13.3279 20.8379 15.9999 20.8379C18.6719 20.8379 20.838 18.6718 20.838 15.9998ZM22.6666 15.9998C22.6666 19.6817 19.6818 22.6665 15.9999 22.6665C12.318 22.6665 9.33326 19.6817 9.33326 15.9998C9.33326 12.3179 12.318 9.33313 15.9999 9.33313C19.6818 9.33313 22.6666 12.3179 22.6666 15.9998Z"/>
</svg>
