<svg viewBox="0 0 32 32" xmlns="http://www.w3.org/2000/svg">
  <path
    d="M17.0127 4.02281C17.6414 3.92707 18.2782 4.13609 18.7279 4.58581L29.0739 14.9317C29.8549 15.7128 29.8549 16.9791 29.0739 17.7601L17.7601 29.0739C16.9791 29.8549 15.7128 29.8549 14.9317 29.0739L4.58581 18.7279C4.13609 18.2782 3.92707 17.6414 4.02281 17.0127L4.02281 5.69897C4.15456 4.83367 4.83367 4.15456 5.69896 4.02281L17.0127 4.02281ZM17.3137 6.00002H6.00002V17.3137L16.3459 27.6596L27.6596 16.3459L17.3137 6.00002Z"
  />
  <path
    d="M9.5 9.5C8.91421 10.0858 8.91421 11.0355 9.5 11.6213C10.0858 12.2071 11.0355 12.2071 11.6213 11.6213C12.2071 11.0355 12.2071 10.0858 11.6213 9.5C11.0355 8.91421 10.0858 8.91421 9.5 9.5Z"
  />
</svg>
