<svg viewBox="0 0 32 32" xmlns="http://www.w3.org/2000/svg">
    <path fill-rule="evenodd" clip-rule="evenodd" d="M18.7501 9C18.7501 8.44771 19.1977 8 19.7501 8H20.5V6.25C20.5 4.45507 21.955 3 23.7501 3C25.5449 3 27 4.45507 27 6.25V8H27.7501C28.3022 8 28.7501 8.44771 28.7501 9V15C28.7501 15.5523 28.3022 16 27.7501 16H19.7501C19.1977 16 18.7501 15.5523 18.7501 15V9ZM22.5 6.25C22.5 5.55965 23.0597 5 23.7501 5C24.4403 5 25 5.55965 25 6.25V7.97619H22.5V6.25Z" />
    <path d="M17.412 7.12C17.1213 7.04174 16.8155 7 16.5 7C14.567 7 13 8.56701 13 10.5C13 12.433 14.567 14 16.5 14C16.584 14 16.6674 13.997 16.7501 13.9912V11.9793C16.6686 11.9929 16.5851 12 16.5 12C15.6716 12 15 11.3284 15 10.5C15 9.67157 15.6716 9 16.5 9C16.5851 9 16.6686 9.0071 16.7501 9.02074V9C16.7501 8.28824 16.9979 7.63437 17.412 7.12Z" />
    <path d="M15.4044 15.6338C15.8695 15.8122 16.3696 15.8614 16.8531 15.7826C17.0462 16.4992 17.4982 17.1098 18.1027 17.5077C17.0051 17.9238 15.7895 17.9235 14.6883 17.5011L14.2183 17.321C13.817 17.167 13.3713 17.1774 12.9777 17.3501C12.3837 17.6104 12 18.1974 12 18.8459V23C12 23.5523 12.4477 24 13 24H20C20.5523 24 21 23.5523 21 23V19.0918C21 18.6906 20.8712 18.3107 20.6461 18H22.8426C22.9454 18.3488 23 18.7157 23 19.0918V23C23 24.6568 21.6568 26 20 26H13C11.3431 26 10 24.6568 10 23V18.8459C10 17.4034 10.8535 16.0975 12.1748 15.5182C13.0503 15.1345 14.0419 15.1112 14.9344 15.4536L15.4044 15.6338Z" />
    <path d="M27.2723 18H27.7501C28.3056 18 28.8261 17.849 29.2723 17.5856V18.8053C29.2723 20.4621 27.9291 21.8053 26.2723 21.8053H24V19.8053H26.2723C26.8246 19.8053 27.2723 19.3574 27.2723 18.8053V18Z" />
    <path fill-rule="evenodd" clip-rule="evenodd" d="M8.78698 13C7.13012 13 5.78698 11.6568 5.78698 10C5.78698 8.34315 7.13012 7 8.78698 7C10.4438 7 11.787 8.34315 11.787 10C11.787 11.6568 10.4438 13 8.78698 13ZM8.78698 11C8.2347 11 7.78698 10.5523 7.78698 10C7.78698 9.44771 8.2347 9 8.78698 9C9.33926 9 9.78698 9.44771 9.78698 10C9.78698 10.5523 9.33926 11 8.78698 11Z" />
    <path d="M19.5147 20H19.5397V20.0558C19.5312 20.0373 19.5229 20.0187 19.5147 20Z" />
    <path d="M11.1748 14.5182C11.2538 14.4836 11.3338 14.4519 11.4146 14.4231C10.8549 14.262 10.2579 14.2721 9.70133 14.4549L9.2581 14.6005C8.79287 14.7534 8.28941 14.7428 7.83097 14.5707L7.68866 14.5173C7.03031 14.2701 6.30733 14.255 5.63925 14.4745C4.37159 14.8909 3.51469 16.0744 3.51469 17.4086V18.8053C3.51469 20.4621 4.85785 21.8053 6.51469 21.8053H9.00001V19.8053H6.51469C5.96242 19.8053 5.51469 19.3574 5.51469 18.8053V17.4086C5.51469 16.9384 5.81669 16.5214 6.26345 16.3746C6.49889 16.2973 6.75369 16.3026 6.9857 16.3898L7.12801 16.443C7.79172 16.6923 8.50428 16.7659 9.19794 16.6627C9.52289 15.7198 10.229 14.9328 11.1748 14.5182Z" />
    <path d="M13.2723 20H13.2474V20.0558C13.2558 20.0373 13.2642 20.0187 13.2723 20Z" />
</svg>
