<svg viewBox="0 0 32 32" xmlns="http://www.w3.org/2000/svg">
  <path
    d="M11.6699 15.3867C12.4752 15.1245 13.347 15.1326 14.1504 15.415L14.75 15.626C15.5404 15.9039 16.4051 15.8846 17.1826 15.5723L17.335 15.5107C18.1784 15.1719 19.1077 15.1222 19.9785 15.3643C20.067 15.3889 20.155 15.4166 20.2422 15.4473C20.9404 15.6928 21.5392 16.1145 22 16.6504C22.5575 17.2986 22.9118 18.1144 22.9854 18.9951C22.9949 19.109 23 19.2241 23 19.3398V23C23 23.3105 22.9528 23.6099 22.8652 23.8916C22.7256 24.3407 22.4816 24.743 22.1641 25.0742C22.083 25.1587 21.9986 25.2399 21.9082 25.3145C21.8342 25.3755 21.7575 25.4334 21.6777 25.4873C21.5181 25.5952 21.3474 25.6877 21.168 25.7637C20.8089 25.9156 20.4144 26 20 26H12L11.8457 25.9961C11.7433 25.9909 11.6424 25.98 11.543 25.9648C11.2946 25.9269 11.0564 25.8586 10.832 25.7637C10.6526 25.6877 10.4819 25.5952 10.3223 25.4873C10.2426 25.4334 10.1658 25.3755 10.0918 25.3145C10.0014 25.2399 9.91697 25.1587 9.83594 25.0742C9.51839 24.743 9.27438 24.3407 9.13477 23.8916C9.04719 23.6099 9.00003 23.3105 9 23V19.0635C9 19.0424 9.00161 19.0211 9.00195 19C9.01716 18.0679 9.36667 17.1956 9.95605 16.5205C10.3491 16.0702 10.8474 15.707 11.4258 15.4746C11.5063 15.4423 11.5879 15.4134 11.6699 15.3867ZM13.3242 17.2529C12.9973 17.1703 12.654 17.1777 12.3311 17.2744C12.2771 17.2906 12.2235 17.3089 12.1709 17.3301C12.116 17.3521 12.0626 17.3766 12.0107 17.4033C12.0071 17.4052 12.0036 17.4073 12 17.4092C11.3902 17.7292 11.0001 18.3646 11 19.0635V23C11 23.5523 11.4477 24 12 24H20C20.5523 24 21 23.5523 21 23V19.3398C20.9999 18.5961 20.6128 17.9188 20 17.5361C19.9921 17.5312 19.9836 17.5273 19.9756 17.5225C19.927 17.493 19.8774 17.4651 19.8262 17.4395C19.8084 17.4305 19.7906 17.4215 19.7725 17.4131C19.7098 17.3839 19.6453 17.3573 19.5791 17.334C19.4574 17.2912 19.3329 17.2592 19.207 17.2393C18.8923 17.1894 18.5694 17.2117 18.2627 17.3037C18.2015 17.3221 18.1408 17.3432 18.0811 17.3672L17.9287 17.4277C17.6219 17.551 17.3064 17.6456 16.9863 17.7109C16.586 17.7927 16.1785 17.8285 15.7715 17.8193L15.5273 17.8086C15.2021 17.7866 14.8781 17.7357 14.5596 17.6553C14.48 17.6352 14.4011 17.6126 14.3223 17.5889C14.2435 17.5651 14.1649 17.5401 14.0869 17.5127L13.4863 17.3018C13.4329 17.283 13.3787 17.2667 13.3242 17.2529Z"
  />
  <path
    d="M5.44336 14.332C6.03871 14.0662 6.71591 14.05 7.32324 14.2871L7.57031 14.3838C7.82867 14.4847 8.11684 14.4773 8.37012 14.3643L8.39648 14.3525C9.02184 14.0734 9.73315 14.0566 10.3711 14.3057C10.5698 14.3833 10.7543 14.4845 10.9229 14.6045C10.0688 14.9768 9.35774 15.5742 8.85156 16.3135C8.19654 16.5179 7.48843 16.4983 6.84277 16.2461L6.5957 16.1504C6.48682 16.1079 6.36552 16.1106 6.25879 16.1582C6.10138 16.2285 6.00001 16.3852 6 16.5576V18.0957C6.00002 18.5951 6.40488 19 6.9043 19H8.00195C8.00168 19.0211 8 19.0424 8 19.0635V21H6.9043C5.30031 21 4.00002 19.6997 4 18.0957V16.5576C4.00001 15.5961 4.56541 14.7241 5.44336 14.332Z"
  />
  <path
    d="M27.4502 13.2129C27.8001 13.6555 28 14.2095 28 14.793V18C28 19.6569 26.6569 21 25 21H24V19.3398L23.9961 19.1367C23.9943 19.091 23.9884 19.0454 23.9854 19H25C25.5523 19 26 18.5523 26 18V14.793C26 14.6955 25.9737 14.6021 25.9268 14.5205C26.3485 14.2079 26.7783 13.8574 27.1885 13.4717C27.2759 13.3894 27.3616 13.3014 27.4502 13.2129Z"
  />
  <path
    d="M16.001 6C15.9977 6.60015 16.0232 7.27321 16.0928 8.00488C16.062 8.00348 16.0311 8 16 8C14.8954 8 14 8.89543 14 10C14 11.1046 14.8954 12 16 12C16.457 12 16.8761 11.8439 17.2129 11.5859C17.592 12.1746 18.0367 12.6937 18.4756 13.1396C17.7944 13.6775 16.9353 14 16 14C13.7909 14 12 12.2091 12 10C12 7.79086 13.7918 6 16.001 6Z"
  />
  <path
    d="M8 7C9.65685 7 11 8.34315 11 10C11 11.6569 9.65685 13 8 13C6.34315 13 5 11.6569 5 10C5 8.34315 6.34315 7 8 7ZM8 9C7.44772 9 7 9.44772 7 10C7 10.5523 7.44772 11 8 11C8.55228 11 9 10.5523 9 10C9 9.44772 8.55228 9 8 9Z"
  />
  <path
    d="M22.9999 3C24.3982 3 26.7874 3.32396 27.807 3.90895C27.9527 4.49405 28.1565 6.27806 27.807 8.73468C27.4574 11.1917 24.4566 13.2688 23 14C21.5433 13.2687 18.5426 11.1916 18.193 8.73468C17.8435 6.27815 18.0473 4.4941 18.193 3.90895C19.2126 3.32397 21.6015 3.00006 22.9999 3Z"
  />
</svg>
