<svg
  width="25"
  height="24"
  viewBox="0 0 25 24"
  fill="none"
  xmlns="http://www.w3.org/2000/svg"
>
<path
    d="M24.0422 12C24.0422 15.1826 22.778 18.2348 20.5275 20.4853C18.2771 22.7357 15.2248 24 12.0422 24C8.85964 24 5.80739 22.7357 3.55696 20.4853C1.30652 18.2348 0.0422363 15.1826 0.0422363 12C0.0422363 8.8174 1.30652 5.76516 3.55696 3.51472C5.80739 1.26428 8.85964 0 12.0422 0C15.2248 0 18.2771 1.26428 20.5275 3.51472C22.778 5.76516 24.0422 8.8174 24.0422 12ZM12.4727 8.859C11.3057 9.345 8.97174 10.35 5.47374 11.874C4.90674 12.099 4.60824 12.321 4.58124 12.537C4.53624 12.9015 4.99374 13.0455 5.61624 13.242L5.87874 13.3245C6.49074 13.524 7.31574 13.7565 7.74324 13.7655C8.13324 13.7745 8.56674 13.6155 9.04524 13.2855C12.3137 11.079 14.0012 9.9645 14.1062 9.9405C14.1812 9.9225 14.2862 9.9015 14.3552 9.9645C14.4257 10.026 14.4182 10.1445 14.4107 10.176C14.3657 10.3695 12.5702 12.0375 11.6417 12.9015C11.3522 13.1715 11.1467 13.362 11.1047 13.4055C11.0123 13.5 10.9182 13.593 10.8227 13.6845C10.2527 14.2335 9.82674 14.6445 10.8452 15.3165C11.3357 15.6405 11.7287 15.906 12.1202 16.173C12.5462 16.464 12.9722 16.7535 13.5242 17.1165C13.6637 17.2065 13.7987 17.304 13.9292 17.397C14.4257 17.751 14.8742 18.069 15.4247 18.018C15.7457 17.988 16.0772 17.688 16.2452 16.788C16.6427 14.6625 17.4242 10.059 17.6042 8.1615C17.6152 8.00376 17.6087 7.84529 17.5847 7.689C17.5706 7.56288 17.5096 7.44669 17.4137 7.3635C17.2773 7.26928 17.1145 7.22047 16.9487 7.224C16.4987 7.2315 15.8042 7.473 12.4727 8.859Z"
    fill="#6C727A"
  />
</svg>
