<svg xmlns="http://www.w3.org/2000/svg" viewBox="0 0 24 24"><defs><style>.cls-1{fill:none;}</style></defs><title>Video</title><g id="Layer_2" data-name="Layer 2"><g id="Elements_2" data-name="Elements 2"><path d="M15.84,5.49v13a1.43,1.43,0,0,1-1.43,1.43H4.35a1.43,1.43,0,0,1-1.43-1.43v-13A1.43,1.43,0,0,1,4.35,4.06H14.41A1.43,1.43,0,0,1,15.84,5.49ZM14.11,1.2H4.65A4.41,4.41,0,0,0,.25,5.6V18.4a4.41,4.41,0,0,0,4.4,4.4h9.46a4.41,4.41,0,0,0,4.4-4.4V14.7l2.7,2.7a1.49,1.49,0,0,0,2.54-1V7.65A1.49,1.49,0,0,0,21.21,6.6l-2.7,2.7V5.6A4.41,4.41,0,0,0,14.11,1.2Z"/><rect class="cls-1" width="24" height="24"/></g></g></svg>