<svg viewBox="0 0 32 32" xmlns="http://www.w3.org/2000/svg">
  <path
    d="M16 12C16.0563 12 16.1113 12.0057 16.165 12.0146C16.1738 12.0161 16.1827 12.0169 16.1914 12.0186L16.2012 12.0205C16.211 12.0225 16.2207 12.025 16.2305 12.0273C16.251 12.0322 16.2717 12.0368 16.292 12.043C16.3408 12.0578 16.3873 12.0778 16.4326 12.0996C16.4466 12.1063 16.4609 12.1127 16.4746 12.1201C16.6454 12.2125 16.7862 12.3528 16.8789 12.5234C16.8866 12.5376 16.8935 12.552 16.9004 12.5664C16.9222 12.6116 16.9412 12.6584 16.9561 12.707C16.9612 12.7238 16.9645 12.7409 16.9688 12.7578C16.9801 12.8034 16.9903 12.8497 16.9951 12.8975C16.9985 12.9312 17 12.9654 17 13V18C17 18.5523 16.5523 19 16 19C15.4477 19 15 18.5523 15 18V15.4141L10.707 19.707C10.3165 20.0975 9.68348 20.0975 9.29297 19.707C8.90246 19.3165 8.90249 18.6835 9.29297 18.293L13.5859 14H11C10.4477 14 10 13.5523 10 13C10 12.4477 10.4477 12 11 12H16Z"
  />
  <path
    fill-rule="evenodd"
    clip-rule="evenodd"
    d="M22 7C23.1046 7 24 7.89543 24 9V12.5L26.9922 10.7549C28.3255 9.97712 30 10.9388 30 12.4824V19.5176C30 21.0129 28.4286 21.9627 27.1182 21.3135L26.9922 21.2451L24 19.499V23C24 24.0357 23.2128 24.887 22.2041 24.9893L22 25H4L3.7959 24.9893C2.85435 24.8938 2.1062 24.1457 2.01074 23.2041L2 23V9C2 7.89543 2.89543 7 4 7H22ZM4 23H22V9H4V23ZM24 14.8154V17.1846L28 19.5176V12.4824L24 14.8154Z"
  />
</svg>
