<svg viewBox="0 0 32 32" xmlns="http://www.w3.org/2000/svg">
  <path
    d="M4.44444 9C4.20554 9 4 9.19693 4 9.45455V22.5455C4 22.8031 4.20554 23 4.44445 23H21.7778C22.0167 23 22.2222 22.8031 22.2222 22.5455V19.6364C22.2222 19.2804 22.4115 18.9512 22.7191 18.7721C23.0268 18.593 23.4064 18.591 23.716 18.7668L27.0279 20.6473C27.0561 20.6633 27.0835 20.6807 27.11 20.6994C27.3216 20.8484 27.5957 20.8716 27.787 20.8023C27.874 20.7708 27.9221 20.7284 27.9472 20.6946C27.968 20.6666 28 20.6098 28 20.4884V11.5116C28 11.397 27.9696 11.3457 27.9497 11.3197C27.9244 11.2866 27.8732 11.2421 27.779 11.2089C27.5686 11.1347 27.2952 11.1687 27.1143 11.2976C27.0865 11.3174 27.0577 11.3358 27.028 11.3527L23.716 13.2332C23.4064 13.409 23.0268 13.407 22.7191 13.2279C22.4115 13.0488 22.2222 12.7196 22.2222 12.3636V9.45455C22.2222 9.19693 22.0167 9 21.7778 9H4.44444ZM2 9.45455C2 8.10552 3.08786 7 4.44444 7H21.7778C23.1344 7 24.2222 8.10552 24.2222 9.45455V10.6459L26.0012 9.63572C26.7328 9.13869 27.6686 9.04907 28.4445 9.32286C29.287 9.62015 30 10.3804 30 11.5116V20.4884C30 21.6011 29.3174 22.3751 28.4681 22.6827C27.6825 22.9672 26.7456 22.8666 26.0029 22.3652L24.2222 21.3541V22.5455C24.2222 23.8945 23.1344 25 21.7778 25H4.44445C3.08786 25 2 23.8945 2 22.5455V9.45455Z"
  />
  <path
    d="M15.2929 12.2929C15.6834 11.9024 16.3166 11.9024 16.7071 12.2929C17.0976 12.6834 17.0976 13.3166 16.7071 13.7071L14.4142 16L16.7071 18.2929C17.0976 18.6834 17.0976 19.3166 16.7071 19.7071C16.3166 20.0976 15.6834 20.0976 15.2929 19.7071L13 17.4142L10.7071 19.7071C10.3166 20.0976 9.68342 20.0976 9.29289 19.7071C8.90237 19.3166 8.90237 18.6834 9.29289 18.2929L11.5858 16L9.29289 13.7071C8.90237 13.3166 8.90237 12.6834 9.29289 12.2929C9.68342 11.9024 10.3166 11.9024 10.7071 12.2929L13 14.5858L15.2929 12.2929Z"
  />
</svg>
