<svg viewBox="0 0 32 32" xmlns="http://www.w3.org/2000/svg">
  <path
    d="M9 7H17C17.5523 7 18 7.44772 18 8C18 8.55228 17.5523 9 17 9H9C8.44772 9 8 8.55228 8 8C8 7.44772 8.44772 7 9 7Z M5.33333 10.6665H21.3333C22.0697 10.6665 22.6667 11.2635 22.6667 11.9998V15.9998L25.7239 12.9426C26.5638 12.1027 28 12.6976 28 13.8855V22.1142C28 23.3021 26.5638 23.897 25.7239 23.057L22.6667 19.9998V23.9998C22.6667 24.7362 22.0697 25.3332 21.3333 25.3332H5.33333C4.59695 25.3332 4 24.7362 4 23.9998V11.9998C4 11.2635 4.59695 10.6665 5.33333 10.6665Z"
  />
</svg>
