<svg viewBox="0 0 32 32" xmlns="http://www.w3.org/2000/svg">
  <path d="M27.0665 4.7852C27.457 5.17573 27.457 5.80889 27.0665 6.19942L6.18382 27.0821C5.7933 27.4726 5.16013 27.4726 4.76961 27.0821C4.37908 26.6916 4.37908 26.0584 4.76961 25.6679L25.6523 4.7852C26.0428 4.39468 26.676 4.39468 27.0665 4.7852ZM9.33333 5.33347H17.3333C18.0697 5.33347 18.6667 5.78118 18.6667 6.33347C18.6667 6.88575 18.0697 7.33347 17.3333 7.33347H9.33333C8.59695 7.33347 8 6.88575 8 6.33347C8 5.78118 8.59695 5.33347 9.33333 5.33347ZM17.9429 9.66647L15.9429 11.6665H5.33333C5.14924 11.6665 5 11.8157 5 11.9998V22.6093L3.0641 24.5452C3.02219 24.3703 3 24.1876 3 23.9998V11.9998C3 10.7111 4.04467 9.66647 5.33333 9.66647H17.9429ZM11.7606 24.3331H21.3333C21.5174 24.3331 21.6667 24.1839 21.6667 23.9998V21.3331C21.6667 20.9777 21.8554 20.649 22.1623 20.4697C22.4692 20.2904 22.8482 20.2875 23.1578 20.4621L26.215 22.1859C26.2941 22.2305 26.3668 22.2857 26.431 22.3499C26.641 22.5599 27 22.4112 27 22.1142V13.8854C27 13.5885 26.641 13.4397 26.431 13.6497C26.3668 13.7139 26.2941 13.7691 26.215 13.8137L23.1578 15.5375C22.8482 15.7121 22.4692 15.7092 22.1623 15.5299C21.8554 15.3507 21.6667 15.0219 21.6667 14.6665V14.4271L23.6667 12.4271V12.9546L25.1285 12.1303C26.6103 10.8181 29 11.8584 29 13.8854V22.1142C29 24.1412 26.6103 25.1815 25.1285 23.8693L23.6667 23.045V23.9998C23.6667 25.2885 22.622 26.3331 21.3333 26.3331H9.76058L11.7606 24.3331Z"/>
</svg>
