<svg viewBox="0 0 32 32" xmlns="http://www.w3.org/2000/svg">
  <path
    d="M15.293 12.293C15.6835 11.9024 16.3165 11.9024 16.707 12.293C17.0976 12.6835 17.0976 13.3165 16.707 13.707L12.4141 18H15C15.5523 18 16 18.4477 16 19C16 19.5523 15.5523 20 15 20H10C9.93757 20 9.87664 19.9934 9.81738 19.9824C9.81349 19.9817 9.80955 19.9812 9.80566 19.9805C9.78948 19.9773 9.77371 19.9727 9.75781 19.9688C9.74149 19.9647 9.72512 19.9609 9.70898 19.9561C9.70681 19.9554 9.70432 19.9558 9.70215 19.9551C9.67092 19.9454 9.64018 19.9345 9.61035 19.9219C9.59531 19.9155 9.58106 19.9075 9.56641 19.9004C9.52661 19.8812 9.48769 19.8597 9.4502 19.835C9.44703 19.8329 9.44357 19.8312 9.44043 19.8291C9.30762 19.7393 9.19799 19.6181 9.12109 19.4766L9.12012 19.4746C9.11269 19.4609 9.10634 19.4466 9.09961 19.4326C9.09268 19.4182 9.08438 19.4044 9.07812 19.3896C9.0655 19.3598 9.05465 19.3291 9.04492 19.2979C9.04431 19.2959 9.04357 19.294 9.04297 19.292C9.0303 19.2503 9.02176 19.2077 9.01465 19.165C9.01121 19.1443 9.00703 19.1236 9.00488 19.1025C9.00145 19.0688 9 19.0346 9 19V14C9 13.4477 9.44772 13 10 13C10.5523 13 11 13.4477 11 14V16.5859L15.293 12.293Z"
  />
  <path
    fill-rule="evenodd"
    clip-rule="evenodd"
    d="M22 7C23.1046 7 24 7.89543 24 9V12.5L26.9922 10.7549C28.3255 9.97712 30 10.9388 30 12.4824V19.5176C30 21.0129 28.4286 21.9627 27.1182 21.3135L26.9922 21.2451L24 19.499V23C24 24.0357 23.2128 24.887 22.2041 24.9893L22 25H4L3.7959 24.9893C2.85435 24.8938 2.1062 24.1457 2.01074 23.2041L2 23V9C2 7.89543 2.89543 7 4 7H22ZM4 23H22V9H4V23ZM24 14.8154V17.1846L28 19.5176V12.4824L24 14.8154Z"
  />
</svg>
