<svg viewBox="0 0 32 32" xmlns="http://www.w3.org/2000/svg">
  <path
    d="M20.7574 7H4.44444C3.08786 7 2 8.10552 2 9.45455V22.5455C2 23.4153 2.45226 24.1839 3.13721 24.6201L4.75736 23H4.44445C4.20554 23 4 22.8031 4 22.5455V9.45455C4 9.19693 4.20554 9 4.44444 9H18.7574L20.7574 7Z"
  />
  <path
    d="M22.9244 13.3183L27.0248 9.21788C27.5049 9.12857 28.0008 9.16631 28.4445 9.32286C29.287 9.62015 30 10.3804 30 11.5116V20.4884C30 21.6011 29.3174 22.3751 28.4681 22.6827C27.6825 22.9672 26.7456 22.8666 26.0029 22.3652L24.2222 21.3541V22.5455C24.2222 23.8945 23.1344 25 21.7778 25H11.2426L13.2426 23H21.7778C22.0167 23 22.2222 22.8031 22.2222 22.5455V19.6364C22.2222 19.2804 22.4115 18.9512 22.7191 18.7721C23.0268 18.593 23.4064 18.591 23.716 18.7668L27.0279 20.6473C27.0561 20.6633 27.0835 20.6807 27.11 20.6994C27.3216 20.8484 27.5957 20.8716 27.787 20.8023C27.874 20.7708 27.9221 20.7284 27.9472 20.6946C27.968 20.6666 28 20.6098 28 20.4884V11.5116C28 11.397 27.9696 11.3457 27.9497 11.3197C27.9244 11.2866 27.8732 11.2421 27.779 11.2089C27.5686 11.1347 27.2952 11.1687 27.1143 11.2976C27.0865 11.3174 27.0577 11.3358 27.028 11.3527L23.716 13.2332C23.4724 13.3715 23.1855 13.3997 22.9244 13.3183Z"
  />
  <path
    d="M25.2929 5.29289C25.6834 4.90237 26.3166 4.90237 26.7071 5.29289C27.0976 5.68342 27.0976 6.31658 26.7071 6.70711L5.70711 27.7071C5.31658 28.0976 4.68342 28.0976 4.29289 27.7071C3.90237 27.3166 3.90237 26.6834 4.29289 26.2929L25.2929 5.29289Z"
  />
</svg>
