<svg viewBox="0 0 32 32" xmlns="http://www.w3.org/2000/svg">
  <path
    d="M27.0665 4.78523C26.676 4.39471 26.0428 4.39471 25.6523 4.78523L4.76961 25.6679C4.37908 26.0584 4.37908 26.6916 4.76961 27.0821C5.16013 27.4726 5.7933 27.4726 6.18382 27.0821L27.0665 6.19945C27.457 5.80892 27.457 5.17576 27.0665 4.78523ZM21.0826 15.0112C21.2788 16.7776 21.16 18.5703 20.7264 20.3049L20.3632 21.7576C20.2293 22.2934 20.555 22.8364 21.0908 22.9703C21.6266 23.1043 22.1695 22.7785 22.3035 22.2427L22.6667 20.7899C23.2837 18.3219 23.3382 15.75 22.8301 13.2636L21.0826 15.0112ZM25.5363 12.0601C26.4557 15.0481 26.4185 18.2488 25.4299 21.2148L24.3847 24.3504C24.21 24.8744 24.4932 25.4407 25.0171 25.6154C25.5411 25.79 26.1074 25.5068 26.282 24.9829L27.3273 21.8472C28.4477 18.4858 28.4899 14.8584 27.4479 11.4719L26.7829 9.31081L25.1828 10.911L25.5363 12.0601ZM15.3333 20.7604V24.667H13.3333C12.7809 24.667 12.2592 24.5324 11.7998 24.294L10.3432 25.7506C11.196 26.329 12.2252 26.667 13.3333 26.667H16C16.7364 26.667 17.3333 26.07 17.3333 25.3337V18.7604L15.3333 20.7604ZM4 21.3337C4 21.9505 4.41884 22.4695 4.98764 22.6217L6.94238 20.667H6V11.3337H8.16802H9.71844L10.1049 9.83218C10.475 8.39406 11.7829 7.33366 13.3333 7.33366H15.3333V12.276L17.3333 10.276V6.66699C17.3333 5.93061 16.7364 5.33366 16 5.33366H13.3333C10.8482 5.33366 8.76008 7.03336 8.16802 9.33366H5.33333C4.59695 9.33366 4 9.93061 4 10.667V21.3337Z"
  />
</svg>
