<svg viewBox="0 0 32 32" xmlns="http://www.w3.org/2000/svg">
  <path d="M18.75 15C18.75 15.5523 19.1977 16 19.75 16H27.75C27.9079 16 28.0572 15.9634 28.19 15.8983C28.5217 15.7355 28.75 15.3944 28.75 15V9C28.75 8.44772 28.3023 8 27.75 8H27V6.25C27 4.45507 25.5449 3 23.75 3C21.9551 3 20.5 4.45507 20.5 6.25V8H19.75C19.1977 8 18.75 8.44772 18.75 9V15ZM25 6.25V7.97619H22.5V6.25C22.5 5.55964 23.0596 5 23.75 5C24.4404 5 25 5.55964 25 6.25ZM8.16802 22.667H5.33333C4.59695 22.667 4 22.07 4 21.3337V10.667C4 9.93061 4.59695 9.33366 5.33333 9.33366H8.16802C8.76008 7.03336 10.8482 5.33366 13.3333 5.33366H16C16.7364 5.33366 17.3333 5.93061 17.3333 6.66699V25.3337C17.3333 26.07 16.7364 26.667 16 26.667H13.3333C10.8482 26.667 8.76008 24.9673 8.16802 22.667ZM6 20.667H9.71844L10.1049 22.1685C10.475 23.6066 11.7829 24.667 13.3333 24.667H15.3333V7.33366H13.3333C11.7829 7.33366 10.475 8.39406 10.1049 9.83218L9.71844 11.3337H6V20.667ZM21.1149 18H23.1219C23.0482 18.938 22.8964 19.8714 22.6667 20.7904L22.3035 22.2432C22.1695 22.779 21.6266 23.1047 21.0908 22.9708C20.555 22.8368 20.2293 22.2939 20.3632 21.7581L20.7264 20.3054C20.9163 19.5457 21.0458 18.7749 21.1149 18ZM28.1329 17.9758C28.0075 17.9918 27.8797 18 27.75 18H26.1215C26.0101 19.0878 25.7795 20.1659 25.4299 21.2148L24.3847 24.3504C24.21 24.8744 24.4932 25.4407 25.0171 25.6153C25.5411 25.79 26.1074 25.5068 26.282 24.9829L27.3273 21.8472C27.7479 20.5853 28.0166 19.2859 28.1329 17.9758Z" />
</svg>
