<svg viewBox="0 0 32 32" xmlns="http://www.w3.org/2000/svg">
  <path
    d="M9.71844 20.667H8.16802H6V11.3337H8.16802H9.71844L10.1049 9.83218C10.475 8.39406 11.7829 7.33366 13.3333 7.33366H15.3333V24.667H13.3333C11.7829 24.667 10.475 23.6066 10.1049 22.1685L9.71844 20.667ZM5.33333 22.667H8.16802C8.76008 24.9673 10.8482 26.667 13.3333 26.667H16C16.7364 26.667 17.3333 26.07 17.3333 25.3337V6.66699C17.3333 5.93061 16.7364 5.33366 16 5.33366H13.3333C10.8482 5.33366 8.76008 7.03336 8.16802 9.33366H5.33333C4.59695 9.33366 4 9.93061 4 10.667V21.3337C4 22.07 4.59695 22.667 5.33333 22.667ZM27.7071 12.2929C27.3166 11.9024 26.6834 11.9024 26.2929 12.2929L24 14.5858L21.7071 12.2929C21.3166 11.9024 20.6834 11.9024 20.2929 12.2929C19.9024 12.6834 19.9024 13.3166 20.2929 13.7071L22.5858 16L20.2929 18.2929C19.9024 18.6834 19.9024 19.3166 20.2929 19.7071C20.6834 20.0976 21.3166 20.0976 21.7071 19.7071L24 17.4142L26.2929 19.7071C26.6834 20.0976 27.3166 20.0976 27.7071 19.7071C28.0976 19.3166 28.0976 18.6834 27.7071 18.2929L25.4142 16L27.7071 13.7071C28.0976 13.3166 28.0976 12.6834 27.7071 12.2929Z"
  />
</svg>
