<svg viewBox="0 0 32 32" xmlns="http://www.w3.org/2000/svg">
  <path d="M9.71844 20.667H8.16802H6V11.3337H8.16802H9.71844L10.1049 9.83218C10.475 8.39406 11.7829 7.33366 13.3333 7.33366H15.3333V24.667H13.3333C11.7829 24.667 10.475 23.6066 10.1049 22.1685L9.71844 20.667ZM5.33333 22.667H8.16802C8.76008 24.9673 10.8482 26.667 13.3333 26.667H16C16.7364 26.667 17.3333 26.07 17.3333 25.3337V6.66699C17.3333 5.93061 16.7364 5.33366 16 5.33366H13.3333C10.8482 5.33366 8.76008 7.03336 8.16802 9.33366H5.33333C4.59695 9.33366 4 9.93061 4 10.667V21.3337C4 22.07 4.59695 22.667 5.33333 22.667ZM21.0908 10.3634C20.555 10.4973 20.2292 11.0402 20.3632 11.576L20.7264 13.0288C21.3235 15.4174 21.3235 17.9163 20.7264 20.3049L20.3632 21.7576C20.2292 22.2934 20.555 22.8364 21.0908 22.9703C21.6266 23.1043 22.1695 22.7785 22.3035 22.2427L22.6666 20.7899C23.3434 18.0829 23.3434 15.2508 22.6666 12.5437L22.3035 11.091C22.1695 10.5552 21.6266 10.2294 21.0908 10.3634ZM26.2891 7.7064C26.1267 7.17854 25.5671 6.88229 25.0392 7.04471C24.5114 7.20713 24.2151 7.76671 24.3775 8.29457L25.5363 12.0605C26.4557 15.0486 26.4185 18.2493 25.4299 21.2152L24.3846 24.3509C24.21 24.8749 24.4931 25.4412 25.0171 25.6158C25.541 25.7905 26.1073 25.5073 26.282 24.9834L27.3272 21.8477C28.4477 18.4863 28.4899 14.8589 27.4479 11.4724L26.2891 7.7064Z"/>
</svg>
