<svg
  width="24"
  height="25"
  viewBox="0 0 24 25"
  fill="none"
  xmlns="http://www.w3.org/2000/svg"
>
<path
    fill-rule="evenodd"
    clip-rule="evenodd"
    d="M20.5041 3.50448C19.3969 2.39017 18.0797 1.50664 16.6286 0.905081C15.1775 0.303524 13.6215 -0.00409628 12.0507 4.11878e-05C5.46122 4.11878e-05 0.103139 5.36042 0.100274 11.9493C0.0976233 14.0463 0.647853 16.1069 1.6955 17.9234L0 24.1157L6.33504 22.454C8.08699 23.4081 10.0501 23.9081 12.0449 23.9083H12.0501C18.6361 23.9083 23.9976 18.5473 23.9999 11.9585C24.0049 10.3882 23.6985 8.83256 23.0984 7.38146C22.4984 5.93037 21.6166 4.61264 20.5041 3.50448ZM12.0507 21.8902H12.0449C10.2661 21.8904 8.51996 21.4123 6.98941 20.5059L6.6267 20.2904L2.86727 21.2765L3.87116 17.6094L3.63451 17.2335C2.64128 15.651 2.1155 13.82 2.11779 11.9516C2.11779 6.47547 6.5757 2.01985 12.0547 2.01985C14.6891 2.02137 17.215 3.06921 19.0768 4.93291C20.9387 6.7966 21.9841 9.32352 21.983 11.9579C21.9807 17.4346 17.5251 21.8902 12.0507 21.8902ZM17.4987 14.4516C17.2002 14.302 15.7322 13.5795 15.4583 13.4775C15.1844 13.3755 14.9856 13.3285 14.7867 13.627C14.5879 13.9256 14.0155 14.6011 13.8413 14.7977C13.6671 14.9942 13.4929 15.0223 13.1944 14.8727C12.8958 14.7232 11.9338 14.408 10.793 13.3904C9.90538 12.5991 9.30603 11.621 9.13127 11.3219C8.9565 11.0228 9.11293 10.8635 9.26248 10.7128C9.39656 10.5787 9.56101 10.3638 9.70999 10.1896C9.85897 10.0154 9.90939 9.89053 10.0085 9.6917C10.1077 9.49287 10.0584 9.3181 9.98388 9.16855C9.9094 9.019 9.31233 7.54926 9.06308 6.95106C8.8207 6.36889 8.57489 6.44797 8.39153 6.4388C8.21963 6.4302 8.01793 6.42791 7.81853 6.42791C7.66715 6.43201 7.51826 6.46736 7.38119 6.53175C7.24413 6.59614 7.12186 6.68818 7.02207 6.80208C6.74875 7.10061 5.97749 7.82316 5.97749 9.29289C5.97749 10.7626 7.04728 12.1825 7.19626 12.3819C7.34524 12.5813 9.30202 15.597 12.2959 16.8902C12.8519 17.1302 13.4201 17.3406 13.9983 17.5205C14.714 17.7497 15.3649 17.7154 15.8789 17.6386C16.4519 17.5532 17.646 16.9166 17.8947 16.2193C18.1433 15.5219 18.1433 14.9237 18.0666 14.7988C17.9898 14.6739 17.7973 14.6011 17.4987 14.4516Z"
    fill="#6C727A"
  />
</svg>
