<svg xmlns="http://www.w3.org/2000/svg" viewBox="0 0 24 24"><title>Zocial</title><g id="Layer_2" data-name="Layer 2"><g id="Elements_2" data-name="Elements 2"><path d="M19.25,24H4.75A4.75,4.75,0,0,1,0,19.25V4.75A4.75,4.75,0,0,1,4.75,0h14.5A4.75,4.75,0,0,1,24,4.75v14.5A4.75,4.75,0,0,1,19.25,24ZM4.75,2.26A2.5,2.5,0,0,0,2.26,4.75v14.5a2.5,2.5,0,0,0,2.49,2.49h14.5a2.5,2.5,0,0,0,2.49-2.49V4.75a2.5,2.5,0,0,0-2.49-2.49Z"/><path d="M16,15.66H10.59l6.47-5.82a.86.86,0,0,0,.23-.95L15.92,5.33a.84.84,0,0,0-.8-.55H6.52l.76,1.78L8,8.34h5.38L6.94,14.16a.87.87,0,0,0-.22.95l1.36,3.56h0a.85.85,0,0,0,.81.55h8.59Z"/></g></g></svg>