<svg width="13" height="13" viewBox="0 0 13 13" fill="none" xmlns="http://www.w3.org/2000/svg">
<path fill-rule="evenodd" clip-rule="evenodd" d="M6.16675 12.1666C9.48046 12.1666 12.1667 9.48033 12.1667 6.16663C12.1667 2.85292 9.48046 0.166626 6.16675 0.166626C2.85304 0.166626 0.166748 2.85292 0.166748 6.16663C0.166748 9.48033 2.85304 12.1666 6.16675 12.1666ZM7.00008 2.66663C7.00008 2.20639 6.62698 1.83329 6.16675 1.83329C5.70651 1.83329 5.33341 2.20639 5.33341 2.66663V6.16663V6.56715L5.64617 6.81735L8.14617 8.81735C8.50555 9.10486 9.02996 9.04659 9.31747 8.68721C9.60498 8.32782 9.54671 7.80341 9.18732 7.5159L7.00008 5.76611V2.66663Z" fill="#F3BE08"/>
</svg>
