<svg width="13" height="13" viewBox="0 0 13 13" fill="none" xmlns="http://www.w3.org/2000/svg">
    <path fill-rule="evenodd" clip-rule="evenodd" d="M12.116 6.95028L10.4634 6.73471C10.4875 6.54952 10.5001 6.35996 10.5001 6.16663C10.5001 5.9733 10.4875 5.78373 10.4634 5.59855L12.116 5.38297C12.1495 5.63945 12.1667 5.90102 12.1667 6.16663C12.1667 6.43223 12.1495 6.6938 12.116 6.95028ZM11.7115 3.8699L10.1719 4.50832C10.0262 4.15694 9.83516 3.82818 9.60561 3.52947L10.9271 2.51392C11.2444 2.92679 11.5092 3.38211 11.7115 3.8699ZM9.81945 1.40623L8.80391 2.72776C8.5052 2.49822 8.17644 2.30717 7.82505 2.16145L8.46348 0.621909C8.95126 0.824186 9.40658 1.08896 9.81945 1.40623ZM6.9504 0.21734L6.73483 1.87001C6.54964 1.84585 6.36008 1.83329 6.16675 1.83329C5.97342 1.83329 5.78386 1.84585 5.59867 1.87001L5.38309 0.21734C5.63957 0.183884 5.90115 0.166626 6.16675 0.166626C6.43235 0.166626 6.69392 0.183884 6.9504 0.21734ZM3.87002 0.621909L4.50844 2.16145C4.15706 2.30717 3.8283 2.49822 3.52959 2.72776L2.51404 1.40623C2.92691 1.08895 3.38224 0.824186 3.87002 0.621909ZM1.40635 2.51392L2.72788 3.52947C2.49834 3.82818 2.30729 4.15694 2.16157 4.50832L0.622032 3.8699C0.824308 3.38211 1.08908 2.92679 1.40635 2.51392ZM0.217462 5.38297C0.184006 5.63945 0.166748 5.90102 0.166748 6.16663C0.166748 6.43223 0.184006 6.6938 0.217462 6.95028L1.87013 6.73471C1.84597 6.54952 1.83341 6.35996 1.83341 6.16663C1.83341 5.9733 1.84597 5.78373 1.87013 5.59855L0.217462 5.38297ZM0.622031 8.46335L2.16157 7.82493C2.30729 8.17631 2.49834 8.50508 2.72788 8.80379L1.40635 9.81933C1.08908 9.40646 0.824308 8.95114 0.622031 8.46335ZM2.51404 10.927L3.52959 9.60549C3.8283 9.83504 4.15706 10.0261 4.50844 10.1718L3.87002 11.7113C3.38224 11.5091 2.92691 11.2443 2.51404 10.927ZM5.38309 12.1159L5.59867 10.4632C5.78386 10.4874 5.97342 10.5 6.16675 10.5C6.36008 10.5 6.54964 10.4874 6.73483 10.4632L6.9504 12.1159C6.69392 12.1494 6.43235 12.1666 6.16675 12.1666C5.90115 12.1666 5.63957 12.1494 5.38309 12.1159ZM8.46348 11.7113L7.82505 10.1718C8.17644 10.0261 8.5052 9.83504 8.80391 9.60549L9.81945 10.927C9.40658 11.2443 8.95126 11.5091 8.46348 11.7113ZM10.9271 9.81933L9.60561 8.80379C9.83516 8.50508 10.0262 8.17631 10.1719 7.82493L11.7115 8.46336C11.5092 8.95114 11.2444 9.40646 10.9271 9.81933Z" fill="#9EA2A8"/>
</svg>
