<svg viewBox="0 0 33 32" xmlns="http://www.w3.org/2000/svg">
    <path d="M14.9854 4C18.2434 4 20.6495 4.9068 22.4071 6.20787L21.0222 7.59279C19.5996 6.61716 17.6551 5.93477 14.9854 5.93477C10.9314 5.93477 8.49068 7.60902 7.03131 9.64402C5.53657 11.7284 5.0289 14.2586 5.0289 15.9311V15.975L5.02495 16.0187C4.79595 18.5477 5.45498 20.4914 6.64318 21.9718L5.27195 23.343C3.70387 21.4711 2.83037 18.9979 3.10194 15.8869C3.11056 13.9053 3.69936 10.979 5.46744 8.51353C7.28407 5.98032 10.3033 4 14.9854 4ZM25.7669 10.3906L24.2978 11.8596C24.8136 13.1919 24.9419 14.3135 24.9419 14.6412V14.6468C24.9419 15.2567 24.9419 15.6403 24.7349 16.4021C24.5133 17.218 24.0556 18.4536 23.0927 20.7094C22.9145 21.1268 23.0053 21.5213 23.1321 21.7855C23.2519 22.0352 23.4308 22.2356 23.5881 22.385C23.9078 22.6885 24.346 22.9738 24.7927 23.2246C25.0391 23.363 25.3645 23.5057 25.6555 23.6333L25.7131 23.6586C26.043 23.8034 26.3609 23.9444 26.6385 24.0928C26.7456 24.1501 26.8354 24.2027 26.9096 24.25C26.7501 24.3509 26.5335 24.4651 26.2551 24.5864C25.5377 24.899 24.5262 25.2095 23.3211 25.4654C20.9112 25.977 17.8609 26.2422 15.0918 25.9333C13.7247 25.7808 12.3784 25.4794 11.1376 25.0199L9.65187 26.5056C11.301 27.2249 13.1048 27.6583 14.879 27.8563C17.891 28.1923 21.1511 27.9037 23.7198 27.3583C25.0041 27.0856 26.149 26.7417 27.0224 26.3612C27.4571 26.1717 27.8542 25.9605 28.1742 25.7255C28.4687 25.5091 28.8222 25.1835 28.9744 24.725C29.2055 24.0291 28.8821 23.4591 28.574 23.1269C28.2794 22.8092 27.8832 22.5663 27.5442 22.3851C27.1907 22.1961 26.8058 22.0266 26.4851 21.8858C26.1394 21.7341 25.8934 21.6259 25.7334 21.536C25.4236 21.3621 25.1884 21.2067 25.0301 21.0807C25.887 19.0554 26.3493 17.8123 26.5941 16.9112C26.8683 15.9017 26.8689 15.3179 26.8689 14.6412C26.8689 14.0129 26.6486 12.2818 25.7669 10.3906ZM26.1791 4.79289C26.5696 4.40237 27.2028 4.40237 27.5933 4.79289C27.9838 5.18342 27.9838 5.81658 27.5933 6.20711L6.25996 27.5404C5.86944 27.931 5.23627 27.931 4.84575 27.5404C4.45523 27.1499 4.45523 26.5168 4.84575 26.1262L26.1791 4.79289Z" fill="#6C727A"/>
</svg>
