<svg xmlns="http://www.w3.org/2000/svg" viewBox="0 0 24 24"><defs><style>.cls-1{fill:none;}</style></defs><title>Quote</title><g id="Layer_2" data-name="Layer 2"><g id="Elements_2" data-name="Elements 2"><path d="M7.05,5.3V7.63l1.68.24a14.2,14.2,0,0,1,10.19,6A21.77,21.77,0,0,0,9,11.85h-2v2.71L2.42,9.93,7.05,5.3m.61-2.83a1.32,1.32,0,0,0-.94.39L.59,9a1.33,1.33,0,0,0,0,1.88L6.72,17A1.34,1.34,0,0,0,9,16.07V13.81c6.68,0,11.35,2.14,14.69,6.82C22.36,14,18.36,7.27,9,5.93V3.81A1.34,1.34,0,0,0,7.66,2.47Z"/><rect class="cls-1" width="24" height="24"/></g></g></svg>