<svg viewBox="0 0 24 24">
  <path d="M4.8,6.59912258 C6.44201182,4.41361758 9.05592187,3 12,3 C16.9705627,3 21,7.02943725 21,12 C21,16.9705627 16.9705627,21 12,21 C7.33318671,21 3.49598971,17.4479904 3.04443772,12.9 L4.85570438,12.9 C5.29859266,16.4516804 8.32834411,19.2 12,19.2 C15.9764502,19.2 19.2,15.9764502 19.2,12 C19.2,8.0235498 15.9764502,4.8 12,4.8 C9.33498352,4.8 7.00814572,6.24791507 5.76323181,8.4 L7.5,8.4 C7.99705627,8.4 8.4,8.80294373 8.4,9.3 C8.4,9.79705627 7.99705627,10.2 7.5,10.2 L3.9,10.2 C3.40294373,10.2 3,9.79705627 3,9.3 L3,5.7 C3,5.20294373 3.40294373,4.8 3.9,4.8 C4.39705627,4.8 4.8,5.20294373 4.8,5.7 L4.8,6.59912258 Z" />
</svg>
