<?xml version="1.0" standalone="no"?>
<!DOCTYPE svg PUBLIC "-//W3C//DTD SVG 1.1//EN" "http://www.w3.org/Graphics/SVG/1.1/DTD/svg11.dtd" >
<svg xmlns="http://www.w3.org/2000/svg">
<defs>
  <font id="RocketChat" horiz-adv-x="1152">
    <font-face font-family="RocketChat"
      units-per-em="1024" ascent="1024"
      descent="0" />
    <missing-glyph horiz-adv-x="0" />
    <glyph glyph-name="arrow-back"
      unicode="&#x2989;"
      horiz-adv-x="1024" d="M374.6272 726.62752C362.1312 739.1241600000001 341.8688 739.1241600000001 329.3728 726.62752L137.37248 534.6272C124.87584 522.1312 124.87584 501.8688 137.37248 489.3728L329.3728 297.3728C341.8688 284.8768 362.1312 284.8768 374.6272 297.3728C387.1232 309.8688 387.1232 330.1312000000001 374.6272 342.6272L237.25472 480H816V352C816 334.3264000000001 830.3264 320 848 320C865.6736 320 880 334.3264000000001 880 352V512C880 529.6736000000001 865.6736 544 848 544H237.25472L374.6272 681.3728C387.1232 693.8688 387.1232 714.1305600000001 374.6272 726.62752z" />
    <glyph glyph-name="arrow-back-mirror"
      unicode="&#x298A;"
      horiz-adv-x="1024" d="M649.3728 726.62752C661.8688 739.1241600000001 682.1312 739.1241600000001 694.6272 726.62752L886.62752 534.6272C899.12416 522.1312 899.12416 501.8688 886.62752 489.3728L694.6272 297.3728C682.1312 284.8768 661.8688 284.8768 649.3728 297.3728C636.8768 309.8688 636.8768 330.1312000000001 649.3728 342.6272L786.74528 480H208V352C208 334.3264000000001 193.6736 320 176 320C158.3264 320 144 334.3264000000001 144 352V512C144 529.6736000000001 158.3264 544 176 544H786.74528L649.3728 681.3728C636.8768 693.8688 636.8768 714.1305600000001 649.3728 726.62752z" />
    <glyph glyph-name="arrow-down"
      unicode="&#xE002;"
      horiz-adv-x="1024" d="M726.88 497.936C739.2352 485.2992 739.008 465.04 726.3712 452.6816L534.4032 264.9664C521.9648 252.8032 502.0928 252.8032 489.6576 264.9664L297.68736 452.6816C285.05152 465.04 284.82464 485.2992 297.18048 497.936C309.53664 510.5696 329.7952 510.7968 342.432 498.4416L480.0288 363.8912000000001L480.0288 736C480.0288 753.67328 494.3584 768 512.0288 768C529.7024 768 544.0288 753.67328 544.0288 736L544.0288 363.8912000000001L681.6288 498.4416C694.2624 510.7968 714.5248 510.5696 726.88 497.936z" />
    <glyph glyph-name="arrow-collapse"
      unicode="&#xE095;"
      horiz-adv-x="1024" d="M550.0384 781.4940799999999C550.2272 799.16608 564.7072 813.3392 582.3776 813.15072C600.0512 812.96192 614.224 798.48288 614.0352 780.81056L612.7168 657.3216L806.1568 850.76064C818.6528 863.2576 838.912 863.2576 851.4112 850.76064C863.9072 838.264 863.9072 818.00256 851.4112 805.5059200000001L657.9712 612.0672L781.4592 613.3856000000001C799.1328 613.5744 813.6096 599.4015999999999 813.7984 581.7312C813.9872 564.0576 799.8144 549.5776000000001 782.144 549.3888L580.224 547.232C571.6192 547.1424 563.3376 550.5183999999999 557.2544 556.6048000000001C551.168 562.688 547.792 570.9696 547.8816 579.5744L550.0384 781.4940799999999zM474.6272 241.8496C474.4384 224.1760000000001 459.9584 210.0032 442.288 210.192C424.6144 210.3808 410.4416 224.8608000000001 410.6304 242.5344L411.9488 366.0224L218.51072 172.5824C206.01408 160.0864 185.75264 160.0864 173.256 172.5824C160.75904 185.0784 160.75904 205.3408 173.256 217.8368000000001L366.6944 411.2768L243.20608 409.9584C225.53376 409.7696 211.05472 423.9424 210.86624 441.6128C210.67744 459.2864 224.85056 473.7664 242.52256 473.9552L444.4448 476.1088C453.0496 476.2016 461.328 472.8256 467.4112 466.7392C473.4976 460.6528 476.8736 452.3744 476.784 443.7696L474.6272 241.8496z" />
    <glyph glyph-name="arrow-down-box"
      unicode="&#xE0B0;"
      horiz-adv-x="1024" d="M329.3728 473.3728C316.87584 485.8688 316.87584 506.1312 329.3728 518.6272C341.8688 531.1232 362.1312 531.1232 374.6272 518.6272L480 413.2544000000001L480 832C480 849.67296 494.3264 864 512 864C529.6736 864 544 849.67296 544 832L544 413.2544000000001L649.3728 518.6272C661.8688 531.1232 682.1312 531.1232 694.6272 518.6272C707.1232 506.1312 707.1232 485.8688 694.6272 473.3728L534.6272 313.3728C522.1312 300.8768 501.8688 300.8768 489.3728 313.3728L329.3728 473.3728zM112 160V672C112 689.6736000000001 126.32704 704 144 704H240C257.67296 704 272 689.6736000000001 272 672C272 654.3263999999999 257.67296 640 240 640H176L176 192L880 192V640H816C798.3264 640 784 654.3263999999999 784 672C784 689.6736000000001 798.3264 704 816 704H912C929.6736 704 944 689.6736000000001 944 672V160C944 142.3264 929.6736 128 912 128L144 128C126.32704 128 112 142.3264 112 160z" />
    <glyph glyph-name="arrow-expand"
      unicode="&#xE098;"
      horiz-adv-x="1024" d="M858.624 625.8496C858.4352 608.1759999999999 843.9584 594.0032 826.2848 594.192C808.6144 594.3808 794.4384 608.8607999999999 794.6272 626.5344L795.9488 750.02144L602.5088 556.5824C590.0128 544.0864 569.7504 544.0864 557.2544 556.5824C544.7584 569.0784 544.7584 589.3408 557.2544 601.8368L750.6912 795.27616L627.2032 793.95744C609.5328 793.76896 595.0528 807.94208 594.864 825.6140800000001C594.6752 843.28608 608.848 857.76512 626.5216 857.95392L828.4416 860.11008C837.0464 860.20192 845.3248 856.82432 851.4112 850.7392C857.4944 844.6544 860.8736 836.37504 860.7808 827.7702400000001L858.624 625.8496zM166.04096 397.4784C166.22976 415.1520000000001 180.7088 429.3248 198.3808 429.136C216.05312 428.9472 230.22624 414.4672000000001 230.03744 396.7936L228.71872 273.3056000000001L422.1568 466.7456C434.6528 479.2415999999999 454.9152 479.2415999999999 467.4112 466.7456C479.9072 454.2496 479.9072 433.9872000000001 467.4112 421.4912000000001L273.97344 228.0512L397.4624 229.3696C415.1328 229.5584 429.6128 215.3856 429.8016 197.7152C429.9904 180.0416 415.8176000000001 165.5616 398.144 165.3728L196.22464 163.2192C187.61984 163.1264 179.34048 166.5024 173.25568 172.5888C167.17056 178.6752 163.79296 186.9536000000001 163.8848 195.5584L166.04096 397.4784z" />
    <glyph glyph-name="arrow-fall"
      unicode="&#xE099;"
      horiz-adv-x="1024" d="M576 352C558.3264 352 544 337.6736 544 320C544 302.3264000000001 558.3264 288 576 288H800C817.6736 288 832 302.3264000000001 832 320V528C832 545.6736000000001 817.6736 560 800 560C782.3264 560 768 545.6736000000001 768 528V397.2544000000001L534.6272 630.6272C522.1312 643.1232 501.8688 643.1232 489.3728 630.6272L416 557.2544L246.62752 726.62752C234.13056 739.1241600000001 213.86944 739.1241600000001 201.37248 726.62752C188.87584 714.1305600000001 188.87584 693.8688 201.37248 681.3728L393.3728 489.3728C405.8688 476.8768 426.1312 476.8768 438.6272 489.3728L512 562.7456L722.7456 352H576z" />
    <glyph glyph-name="arrow-jump"
      unicode="&#x298B;"
      horiz-adv-x="1024" d="M256.00096 816C256.00096 833.67296 270.32768 848 288.00096 848H560C577.6736 848 592 833.67296 592 816V301.2544000000001L681.3728 390.6272C693.8688 403.1232 714.1312 403.1232 726.6272 390.6272C739.1264 378.1312000000001 739.1264 357.8688 726.6272 345.3728L582.6272 201.3728C570.1312 188.8768 549.8688 188.8768 537.3728 201.3728L393.3728 345.3728C380.8768 357.8688 380.8768 378.1312000000001 393.3728 390.6272C405.8688 403.1232 426.1312 403.1232 438.6272 390.6272L528 301.2544000000001V784H320V592C320 574.3263999999999 305.67392 560 288.00096 560C270.32768 560 256.00096 574.3263999999999 256.00096 592V816z" />
    <glyph glyph-name="arrow-jump-mirror"
      unicode="&#x298C;"
      horiz-adv-x="1024" d="M767.9990399999999 816C767.9990399999999 833.67296 753.67232 848 735.9990399999999 848H464C446.3264000000001 848 432 833.67296 432 816V301.2544000000001L342.6272 390.6272C330.1312000000001 403.1232 309.8688 403.1232 297.3728 390.6272C284.8736 378.1312000000001 284.8736 357.8688 297.3728 345.3728L441.3728 201.3728C453.8688 188.8768 474.1312 188.8768 486.6272 201.3728L630.6272 345.3728C643.1232 357.8688 643.1232 378.1312000000001 630.6272 390.6272C618.1312 403.1232 597.8688 403.1232 585.3728 390.6272L496 301.2544000000001V784H704V592C704 574.3263999999999 718.32608 560 735.9990399999999 560C753.67232 560 767.9990399999999 574.3263999999999 767.9990399999999 592V816z" />
    <glyph glyph-name="arrow-loop"
      unicode="&#xE0B1;"
      horiz-adv-x="1024" d="M297.37248 918.62752C309.86944 931.12416 330.1312 931.12416 342.6272 918.62752C355.1232 906.13056 355.1232 885.8694399999999 342.6272 873.37248L237.25472 768H848C865.6736 768 880 753.67296 880 736V624C880 606.3263999999999 865.6736 592 848 592C830.3264 592 816 606.3263999999999 816 624V704H237.25472L342.6272 598.6272C355.1232 586.1312 355.1232 565.8688 342.6272 553.3728C330.1312 540.8768 309.86944 540.8768 297.37248 553.3728L137.37248 713.37248C124.87584 725.8694399999999 124.87584 746.1305600000001 137.37248 758.62752L297.37248 918.62752zM710.6272 105.3728C698.1312 92.8768 677.8688 92.8768 665.3728 105.3728C652.8768 117.8688 652.8768 138.1312 665.3728 150.6272L770.7456 256H160C142.32704 256 128 270.3264000000001 128 288V400C128 417.6736 142.32704 432 160 432C177.67328 432 192 417.6736 192 400V320H770.7456L665.3728 425.3728C652.8768 437.8688 652.8768 458.1312 665.3728 470.6272C677.8688 483.1232 698.1312 483.1232 710.6272 470.6272L870.6272 310.6272C883.1232 298.1312000000001 883.1232 277.8688 870.6272 265.3728L710.6272 105.3728z" />
    <glyph glyph-name="arrow-return"
      unicode="&#x298D;"
      horiz-adv-x="1024" d="M374.6272 297.3728C362.1312 284.8768 341.8688 284.8768 329.3728 297.3728L137.37248 489.3728C124.87584 501.8688 124.87584 522.1312 137.37248 534.6272L329.3728 726.62752C341.8688 739.1241600000001 362.1312 739.1241600000001 374.6272 726.62752C387.1232 714.1305600000001 387.1232 693.8688 374.6272 681.3728L237.25472 544H816V736H624C606.3264 736 592 750.32672 592 768C592 785.67328 606.3264 800 624 800H848C865.6736 800 880 785.67328 880 768V512C880 494.3264 865.6736 480 848 480H237.25472L374.6272 342.6272C387.1232 330.1312000000001 387.1232 309.8688 374.6272 297.3728z" />
    <glyph glyph-name="arrow-return-mirror"
      unicode="&#x298E;"
      horiz-adv-x="1024" d="M649.3728 297.3728C661.8688 284.8768 682.1312 284.8768 694.6272 297.3728L886.62752 489.3728C899.12416 501.8688 899.12416 522.1312 886.62752 534.6272L694.6272 726.62752C682.1312 739.1241600000001 661.8688 739.1241600000001 649.3728 726.62752C636.8768 714.1305600000001 636.8768 693.8688 649.3728 681.3728L786.74528 544H208V736H400C417.6736 736 432 750.32672 432 768C432 785.67328 417.6736 800 400 800H176C158.3264 800 144 785.67328 144 768V512C144 494.3264 158.3264 480 176 480H786.74528L649.3728 342.6272C636.8768 330.1312000000001 636.8768 309.8688 649.3728 297.3728z" />
    <glyph glyph-name="arrow-rise"
      unicode="&#xE0A1;"
      horiz-adv-x="1024" d="M576 672C558.3264 672 544 686.3263999999999 544 704C544 721.67296 558.3264 736 576 736H800C817.6736 736 832 721.67296 832 704V496C832 478.3264 817.6736 464 800 464C782.3264 464 768 478.3264 768 496V626.7456L534.6272 393.3728C522.1312 380.8768 501.8688 380.8768 489.3728 393.3728L416 466.7456L246.62752 297.3728C234.13056 284.8768 213.86944 284.8768 201.37248 297.3728C188.87584 309.8688 188.87584 330.1312000000001 201.37248 342.6272L393.3728 534.6272C405.8688 547.1232 426.1312 547.1232 438.6272 534.6272L512 461.2544L722.7456 672H576z" />
    <glyph glyph-name="arrow-up-box"
      unicode="&#xE0B2;"
      horiz-adv-x="1024" d="M694.6272 723.24032C682.1312 710.3865599999999 661.8688 710.3865599999999 649.3728 723.24032L544 831.62368L544 400.9152000000001C544 382.736 529.6736 368 512 368C494.3264 368 480 382.736 480 400.9152000000001L480 831.62368L374.6272 723.24032C362.1312 710.3865599999999 341.8688 710.3865599999999 329.3728 723.24032C316.87584 736.0940800000001 316.87584 756.9344 329.3728 769.7881600000001L489.3728 934.35968C501.8688 947.21344 522.1312 947.21344 534.6272 934.35968L694.6272 769.7881600000001C707.1232 756.9344 707.1232 736.0940800000001 694.6272 723.24032zM192 640H352V576H224V160H800V576H672V640H832C849.6736 640 864 625.6736000000001 864 608V128C864 110.3264 849.6736 96 832 96H192C174.32704 96 160 110.3264 160 128V608C160 625.6736000000001 174.32704 640 192 640z" />
    <glyph glyph-name="at"
      unicode="&#xE001;"
      horiz-adv-x="1024" d="M512 384C582.6912 384 640 441.3088 640 512C640 582.6912 582.6912 640 512 640C441.3088 640 384 582.6912 384 512C384 441.3088 441.3088 384 512 384zM512 320C405.9616 320 320 405.9616 320 512C320 618.0384 405.9616 704 512 704C618.0384 704 704 618.0384 704 512C704 405.9616 618.0384 320 512 320zM513.0016 928C545.568 927.99808 594.1184 927.9184 651.36 907.92928C708.8416 887.85696 773.0144 848.52448 839.9168 773.2595200000001C895.8176 710.3734400000001 918.6048 629.568 925.1936 558.9728C931.7472 488.7616 922.7136 423.8272 910.0736 389.0656C903.2576 370.3232000000001 884.7392 349.568 862.3104 334.0512C838.6528 317.6832000000001 806.272 304 768 304H767.4848L766.9728 304.016C747.2128 304.6528 719.6896 311.088 694.704 330.0576C668.9472 349.6096 648.0864 380.8416 640.4352 426.7392L640 429.3504000000001V656C640 673.6736000000001 654.3264 688 672 688C689.6736 688 704 673.6736000000001 704 656V434.7808C709.408 405.4784 721.8432 389.8048 733.4016 381.0336C745.8208 371.6032 759.6224 368.384 768.5472 368C791.0592 368.1312000000001 810.7808 376.2240000000001 825.8976 386.6816C833.4944 391.9392000000001 839.5584 397.5488000000001 843.8688 402.4768000000001C848.4288 407.6960000000001 849.8688 410.8096000000001 849.9264 410.9312C858.6176 434.8352 867.3632 489.9072 861.472 553.0272C855.616 615.7632 835.7408 681.6256000000001 792.0832 730.7404799999999C731.648 798.7280000000001 676.4064 831.3936 630.2592 847.5072C583.8784 863.70368 544.5952 863.99808 513.0016 864M513.0016 928L512 928L513.0016 928zM513.0016 864C433.2352 863.99936 258.91904 821.57632 189.41248 659.3951999999999L189.23936 658.9888000000001L189.05472 658.5888C175.02048 628.1823999999999 160 572.7647999999999 160 512C160 451.2928000000001 174.97984 386.2848 203.78368 335.8752C223.22112 301.8624 283.7856 224.0512 364.6048 189.4112C448.944 153.2672 542.2368 145.76 612.1152 173.712C628.5248 180.2752000000001 647.1488 172.2944 653.712 155.8848000000001C660.2752 139.4752 652.2944 120.8512 635.8848 114.288C545.7632 78.24 434.256 89.9328 339.3952 130.5888C241.01472 172.7488 171.44576 263.472 148.21632 304.1248000000001C113.02016 365.7152 96 442.0416 96 512C96 581.6608 112.86208 646.0352 130.7584 685.0047999999999C214.65472 880.17568 419.9936 927.65824 512 928" />
    <glyph glyph-name="ball"
      unicode="&#xE092;"
      horiz-adv-x="1024" d="M480 161.4336V480H367.0048C361.7856 406.2528 337.0976 326.5408 281.2864 246.144C335.5168 199.04 404.304 168.256 480 161.4336zM236.00576 293.504C278.01536 357.7504 297.55328 421.0944 302.57152 480H161.43488C167.75392 409.8784000000001 194.63616 345.6864000000001 236.00576 293.504zM366.8096 544H480V862.56512C404.6624 855.7760000000001 336.1664 825.24864 282.05408 778.52C320.3456 724.94336 359.3472 641.8976 366.8096 544zM236.83424 731.53856C194.99552 679.168 167.79584 614.5888 161.43488 544H302.5296C295.9328 620.9472000000001 266.8128 686.6687999999999 236.83424 731.53856zM862.5664 480H718.4832C723.5552 420.4768000000001 743.4496 356.4224000000001 786.3776 291.4816C828.6624 344.0256000000001 856.1632 408.9696 862.5664 480zM544 161.4336C618.8416 168.1792 686.9312 198.3488 740.8736 244.5568C684.2816 325.4912000000001 659.3056 405.7664 654.0512 480H544V161.4336zM862.5664 544C856.1216 615.4848 828.3104 680.8096 785.5616 733.53152C755.1136 688.624 725.2192 622.096 718.5248 544H862.5664zM654.2464 544C661.7824 642.8543999999999 701.4752 726.56576 740.1248 780.0832C686.2976 825.92896 618.496 855.85184 544 862.56512V544H654.2464zM928 512C928 282.2496 741.7504 96 512 96C282.2496 96 96 282.2496 96 512C96 741.7504 282.2496 928 512 928C741.7504 928 928 741.7504 928 512z" />
    <glyph glyph-name="baloon-arrow-left"
      unicode="&#xE0BD;"
      horiz-adv-x="1024" d="M489.6416 644.3743999999999C503.0592 635.312 506.5696 617.1168 497.4784 603.7344L448.9824 532.3584000000001H599.1008C615.312 532.3584000000001 628.4544 519.2544 628.4544 503.0944C628.4544 486.9312 615.312 473.8304000000001 599.1008 473.8304000000001H448.9824L497.4784 402.4512C506.5696 389.0688 503.0592 370.8736 489.6416 361.8112C476.2208 352.7488 457.9712 356.2464 448.88 369.6288L369.3472 486.6816C362.6144 496.5952 362.6144 509.5936 369.3472 519.5072L448.88 636.56C457.9712 649.9392 476.2208 653.44 489.6416 644.3743999999999zM201.55168 727.4656C256.88928 804.09504 348.8608 864 491.4816 864C648.448 864 740.496 795.3801599999999 792.1536 719.4825599999999C842.4544 645.5776000000001 853.472 566.4544000000001 853.472 542.1024C853.472 521.6320000000001 853.4528 503.9712 845.104 473.4367999999999C837.6448 446.1792000000001 823.5616 408.5696000000001 797.4592 347.3088C802.2848 343.4976000000001 809.4464 338.7968 818.8832 333.536C823.76 330.8128000000001 831.2544 327.5424000000001 841.7824 322.9536000000001C851.5488 318.6976 863.2768 313.5648 874.0448 307.8528C884.368 302.3712000000001 896.4352 295.0176 905.4112 285.4112C914.7968 275.36 924.6496 258.1184 917.6096 237.0688C912.976 223.2000000000001 902.208 213.3472000000001 893.232 206.8032C883.4848 199.696 871.392 193.3056 858.1472 187.5744C831.5456 176.0608 796.6656 165.6608 757.5488 157.4112C679.3024 140.9152 579.9936 132.1824 488.24 142.3488C396.5632 152.5024 302.2864 183.1616 232.82752 241.76C162.35616 301.2128 119.26752 388.0736000000001 129.49504 504.4192C129.75776 564.3648000000001 147.69344 652.8832 201.55168 727.4656zM249.18976 693.2672C203.65792 630.2176 188.1936 553.6768 188.1936 503.0848V501.7536L188.07296 500.4352C179.17472 402.8448 214.29568 334.064 270.74528 286.4352C328.4704 237.7376000000001 410.3008 209.8688 494.7232 200.5152000000001C579.0752 191.1744 671.9904 199.1936 745.3984 214.672C782.1088 222.4128 812.9216 231.8048 834.7744 241.264C843.2576 244.928 849.856 248.384 854.7104 251.4368C852.4512 252.8704 849.7184 254.4576 846.4544 256.1888C837.9968 260.6816 828.3136 264.9504 818.2656 269.328L816.32 270.1760000000001C807.504 274.016 797.68 278.2976 790.2304 282.4576C776.624 290.0416 763.2736 298.6720000000001 753.5328 307.8528C748.7424 312.3712000000001 743.2928 318.4352 739.6416 325.9872000000001C735.7824 333.9808000000001 733.0176 345.9136 738.4448 358.5408C767.776 426.7808 781.7184 464.1568 788.4672 488.8352C794.7712 511.8816 794.7712 523.4848 794.7712 541.9328V542.1024C794.7712 556.768 786.224 623.9648 743.584 686.6207999999999C702.2944 747.2848 628.0224 805.4732799999999 491.4816 805.4732799999999C367.9936 805.4732799999999 293.64416 754.8272 249.18976 693.2672z" />
    <glyph glyph-name="bag"
      unicode="&#xE091;"
      horiz-adv-x="1024" d="M672 736H768C821.0208 736 864 693.0208 864 640V288C864 181.9616 778.0384 96 672 96H352C245.96128 96 160 181.9616 160 288V640C160 693.0208 202.9808 736 256 736H352V768C352 856.36544 423.6352 928 512 928C600.3648 928 672 856.36544 672 768V736zM608 736V768C608 821.0192 565.0208 864 512 864C458.9792 864 416 821.0192 416 768V736H608zM608 672H416V512C416 494.3264 401.6736 480 384 480C366.3264 480 352 494.3264 352 512V672H256C238.32672 672 224 657.6736000000001 224 640V288C224 217.3088 281.30752 160 352 160H672C742.6912 160 800 217.3088 800 288V640C800 657.6736000000001 785.6736 672 768 672H672V512C672 494.3264 657.6736 480 640 480C622.3264 480 608 494.3264 608 512V672z" />
    <glyph glyph-name="baloon-arrow-top-right"
      unicode="&#xE0C1;"
      horiz-adv-x="1024" d="M778 930.16704C766.2048 943.32928 745.9744 944.4384 732.8128 932.64416C719.6512 920.85024 718.5408 900.61952 730.336 887.45728L811.5584 796.81216H595.2C577.5264 796.81216 563.2 782.48544 563.2 764.81216C563.2 747.1392000000001 577.5264 732.81216 595.2 732.81216H811.5584L730.336 642.1664000000001C718.5408 629.0047999999999 719.6512 608.7744 732.8128 596.9792C745.9744 585.1872000000001 766.2048 586.2944 778 599.456L907.0304 743.4572800000001C917.9232 755.6112 917.9232 774.01312 907.0304 786.16704L778 930.16704zM159.99904 511.9904C159.99904 567.312 176.8592 651.0111999999999 226.50144 719.95808C274.96864 787.27392 356.0288 842.656 490.6656 842.656C508.3392 842.656 522.6656 856.98272 522.6656 874.656C522.6656 892.32896 508.3392 906.656 490.6656 906.656C335.168 906.656 234.896 841.14912 174.5632 757.3535999999999C115.8432 675.7984 96.28832 578.9984 96.00224 513.4495999999999C84.85152 386.2208000000001 131.82944 291.2384 208.66208 226.2272000000001C284.39104 162.1504 387.1776 128.624 487.1328 117.52C587.1648 106.4032 695.4368 115.952 780.7488 133.9904C823.4016 143.0112 861.424 154.384 890.4288 166.9728C904.8672 173.2416 918.0544 180.2272000000001 928.6816 188.0032C938.464 195.1584 950.2048 205.9296000000001 955.2608 221.0976000000001C962.9312 244.1152 952.192 262.9696 941.9584 273.9616C932.176 284.4704000000001 919.0176 292.5056 907.7568 298.4992C896.0192 304.7488 883.2384 310.3584 872.5856 315.0144C861.104 320.0320000000001 852.9344 323.6128 847.6192 326.5856C837.3312 332.3392 829.5232 337.4752 824.2624 341.6448000000001C861.936 430.3232000000001 876.816 473.984 882.272 506.7328C885.1744 524.1632 873.3952 540.6496 855.9616 543.5552C838.5312 546.4576 822.0448 534.6784 819.1392 517.248C814.8768 491.6512 802.0064 452.1344 759.92 353.9296000000001C754.0032 340.1216 757.0176 327.072 761.2288 318.3296000000001C765.2064 310.0736000000001 771.1488 303.4432000000001 776.3744 298.5024C786.9888 288.4608 801.5456 279.024 816.3776 270.7264C824.5632 266.1504 835.3664 261.4304 845.0336 257.2096L846.9472 256.3744000000001C857.904 251.584 868.4576 246.9184 877.68 242.0064C881.2384 240.1152 884.2208 238.3744000000001 886.6848 236.8096000000001C881.3856 233.4688 874.192 229.6960000000001 864.9472 225.6832000000001C841.12 215.3408 807.5264 205.0688 767.5072 196.608C687.4688 179.68 586.1664 170.9088000000001 494.1984 181.1264C402.1536 191.3536 312.94016 221.8304000000001 250.00256 275.0848C188.4576 327.1616 150.16608 402.3744000000001 159.86752 509.0912L159.99904 510.5376V511.9904z" />
    <glyph glyph-name="baloon-ellipsis"
      unicode="&#xE0AC;"
      horiz-adv-x="1024" d="M394.3072 496.6624C367.7312 496.6624 346.1856 518.2496 346.1856 544.8768C346.1856 571.504 367.7312 593.0912000000001 394.3072 593.0912000000001C420.8832 593.0912000000001 442.4256 571.504 442.4256 544.8768C442.4256 518.2496 420.8832 496.6624 394.3072 496.6624zM586.7872 544.8768C586.7872 518.2496 565.2448 496.6624 538.6656 496.6624C512.0896 496.6624 490.5472 518.2496 490.5472 544.8768C490.5472 571.504 512.0896 593.0912000000001 538.6656 593.0912000000001C565.2448 593.0912000000001 586.7872 571.504 586.7872 544.8768zM731.1488 544.8768C731.1488 518.2496 709.6032 496.6624 683.0272 496.6624C656.4512 496.6624 634.9088 518.2496 634.9088 544.8768C634.9088 571.504 656.4512 593.0912000000001 683.0272 593.0912000000001C709.6032 593.0912000000001 731.1488 571.504 731.1488 544.8768zM85.33344 210.3104L169.59424 303.872C191.04768 327.6960000000001 202.79616 347.5872000000001 205.64352 372.4256000000001C157.63008 420.9984 129.98816 480.9408 129.98816 546.0128C129.97696 717.6838399999999 316.01408 840.53536 534.3264 840.53536C752.6272 840.53536 938.6656 717.67936 938.6656 546.0160000000001C938.6656 374.3616 752.624 251.4976000000001 534.3264 251.4976000000001C503.5264 251.4976000000001 473.1488 253.9456 443.6512 258.7392C378.4064 195.2864 290.2704 156.72 204.95872 179.0304L85.33344 210.3104zM534.3264 764.99968C351.1872 764.99968 202.72032 666.9664 202.728 546.0160000000001C202.728 493.3216 230.9216 444.9664 277.8896 407.1872C285.97184 328.4096 248.21024 280.5824 222.72128 252.2784000000001C301.08288 231.7888000000001 381.7472 295.1968000000001 418.416 340.7968C454.496 331.9104 493.5456 327.0336 534.3264 327.0336C717.4592 327.0336 865.9264 425.0848 865.9264 546.0160000000001C865.9264 666.9567999999999 717.4592 764.99968 534.3264 764.99968z" />
    <glyph glyph-name="baloon-close-top-right"
      unicode="&#xE0C2;"
      horiz-adv-x="1024" d="M886.6272 918.62752C899.1232 906.13056 899.1232 885.8694399999999 886.6272 873.37248L797.2544 784L886.6272 694.6272C899.1232 682.1312 899.1232 661.8688 886.6272 649.3728C874.1312 636.8768 853.8688 636.8768 841.3728 649.3728L752 738.74528L662.6272 649.3728C650.1312 636.8768 629.8688 636.8768 617.3728 649.3728C604.8768 661.8688 604.8768 682.1312 617.3728 694.6272L706.7456 784L617.3728 873.37248C604.8768 885.8694399999999 604.8768 906.13056 617.3728 918.62752C629.8688 931.12416 650.1312 931.12416 662.6272 918.62752L752 829.25472L841.3728 918.62752C853.8688 931.12416 874.1312 931.12416 886.6272 918.62752zM226.50112 719.9584C176.8592 651.0111999999999 159.99872 567.312 159.99872 511.9904V510.5376L159.8672 509.0912C150.16576 402.3744000000001 188.45728 327.1616 250.00224 275.0848C312.94016 221.8304000000001 402.1536 191.3536 494.1984 181.1264C586.1664 170.9088000000001 687.4688 179.68 767.5072 196.608C807.5264 205.0688 841.12 215.3408 864.9472 225.6832000000001C874.192 229.6960000000001 881.3856 233.4688 886.6848 236.8096000000001C884.2176 238.3744000000001 881.2384 240.1152 877.68 242.0096C868.4576 246.9184 857.904 251.584 846.9472 256.3744000000001L845.0336 257.2096H845.0304V257.2128C835.3632 261.4336 824.56 266.1504 816.3776 270.7296C801.5424 279.024 786.9888 288.4608 776.3744 298.5024C771.1488 303.4432000000001 765.2064 310.0736000000001 761.2288 318.3296000000001C757.0176 327.072 754.0032 340.1216 759.92 353.9296000000001C802.0064 452.1344 814.8768 491.6512 819.1392 517.248C822.0448 534.6816 838.5312 546.4576 855.9616 543.5552C873.3952 540.6496 885.1744 524.1664000000001 882.2688 506.7328C876.816 473.984 861.936 430.3232000000001 824.2624 341.6448000000001C829.5232 337.4784 837.3312 332.3392 847.6192 326.5856C852.9344 323.6128 861.104 320.0320000000001 872.5824 315.0144C883.2384 310.3584 896.0192 304.7488 907.7568 298.4992C919.0176 292.5056 932.176 284.4704000000001 941.9584 273.9616C952.192 262.9696 962.9312 244.1152 955.2576 221.0976000000001C950.2048 205.9296000000001 938.464 195.1584 928.6816 188.0032C918.0544 180.2272000000001 904.8672 173.2416 890.4288 166.976C861.424 154.384 823.4016 143.0112 780.7488 133.9904C695.4368 115.952 587.1648 106.4032 487.1328 117.52C387.1776 128.624 284.39104 162.1504 208.66208 226.2272000000001C131.82912 291.2416 84.8512 386.2240000000001 96.00192 513.4495999999999C96.28832 578.9984 115.84288 675.7984 174.56288 757.35392C234.89568 841.14944 335.168 906.65632 490.6656 906.65632C508.3392 906.65632 522.6656 892.32928 522.6656 874.65632C522.6656 856.98304 508.3392 842.65632 490.6656 842.65632C356.0288 842.65632 274.96864 787.27424 226.50112 719.9584z" />
    <glyph glyph-name="baloon-exclamation"
      unicode="&#xE0AE;"
      horiz-adv-x="1024" d="M226.50336 719.97408C176.86112 651.0272 160.00064 567.328 160.00064 512.0064V510.5536L159.86944 509.1072C150.16768 402.3904 188.4592 327.1776 250.00416 275.1008000000001C312.94208 221.8464 402.1568 191.3696 494.2016 181.1424C586.1664 170.9248 687.472 179.696 767.5072 196.624C807.5296 205.0848 841.12 215.3568 864.9504 225.6992C874.1952 229.712 881.3856 233.4848 886.6848 236.8256C884.2208 238.3904 881.2384 240.1312000000001 877.6832 242.0224C868.4608 246.9344 857.904 251.6 846.9472 256.3904L845.0368 257.2256C835.3696 261.4464000000001 824.5632 266.1664 816.3808 270.7424C801.5456 279.04 786.992 288.4768000000001 776.3744 298.5184000000001C771.152 303.4592 765.2064 310.0896 761.2288 318.3456C757.0176 327.088 754.0032 340.1376 759.92 353.9424C791.9008 428.5632000000001 807.1008 469.4367999999999 814.4608 496.4256C821.3344 521.6256000000001 821.3344 534.3136 821.3344 554.4896V554.672C821.3344 570.7072000000001 812.0128 644.1888 765.52 712.704C720.5056 779.04192 639.5296 842.672 490.6688 842.672C356.0288 842.672 274.97056 787.2899199999999 226.50336 719.97408zM174.56512 757.3696C234.8976 841.16512 335.1712 906.672 490.6688 906.672C661.8048 906.672 762.1632 831.6351999999999 818.48 748.64C873.3216 667.8208 885.3344 581.3024 885.3344 554.672C885.3344 532.288 885.312 512.976 876.208 479.5839999999999C868.0768 449.7792 852.7232 408.656 824.2624 341.6608C829.5232 337.4944000000001 837.3312 332.3552 847.6224 326.5984C852.9376 323.6288 861.1072 320.048 872.5856 315.0304C883.2384 310.3712000000001 896.0224 304.7648000000001 907.76 298.5152000000001C919.0176 292.5216000000001 932.176 284.4864 941.9616 273.9776000000001C952.192 262.9856 962.9344 244.1312000000001 955.2608 221.1136C950.2048 205.9456 938.464 195.1744 928.6816 188.0192C918.0544 180.2432 904.8672 173.2576 890.432 166.9888C861.424 154.4 823.4016 143.0272 780.7488 134.0064C695.44 115.968 587.168 106.4192000000001 487.1328 117.5328C387.1776 128.64 284.39296 162.1664 208.664 226.2432C131.83104 291.2544000000001 84.85312 386.2368 96.00384 513.4656C96.29024 579.0144 115.8448 675.8144 174.56512 757.3696zM496 704C513.6736 704 528 689.6736000000001 528 672V448C528 430.3264000000001 513.6736 416 496 416C478.3264 416 464 430.3264000000001 464 448V672C464 689.6736000000001 478.3264 704 496 704zM528 352C528 334.3264000000001 513.6736 320 496 320C478.3264 320 464 334.3264000000001 464 352C464 369.6736 478.3264 384 496 384C513.6736 384 528 369.6736 528 352z" />
    <glyph glyph-name="baloon-text"
      unicode="&#xE0AF;"
      horiz-adv-x="1024" d="M226.50336 719.97024C176.86112 651.024 160.00064 567.3248 160.00064 512V510.5504L159.86944 509.104C150.16768 402.3872 188.4592 327.1744 250.00416 275.0976000000001C312.94208 221.84 402.1568 191.3664 494.2016 181.1392C586.1664 170.9216 687.472 179.6928 767.5072 196.6176000000001C807.5296 205.0816 841.12 215.3536 864.9504 225.6960000000001C874.1952 229.7088 881.3856 233.4816 886.6848 236.8224C884.2208 238.3872 881.2384 240.1248000000001 877.6832 242.0192C868.4608 246.9312 857.904 251.5968000000001 846.9472 256.3872L845.0368 257.2224C835.3696 261.4432000000001 824.5632 266.1632 816.3808 270.7392C801.5456 279.0368 786.992 288.4736000000001 776.3744 298.512C771.152 303.456 765.2064 310.0832000000001 761.2288 318.3424C757.0176 327.0848 754.0032 340.1344000000001 759.92 353.9392000000001C791.9008 428.56 807.1008 469.4336 814.4608 496.4224C821.3344 521.6192 821.3344 534.3072 821.3344 554.4832V554.6687999999999C821.3344 570.704 812.0128 644.1856 765.52 712.69984C720.5056 779.03808 639.5296 842.6678400000001 490.6688 842.6678400000001C356.0288 842.6678400000001 274.97056 787.28576 226.50336 719.97024zM174.56512 757.36576C234.8976 841.16128 335.1712 906.66784 490.6688 906.66784C661.8048 906.66784 762.1632 831.63136 818.48 748.63616C873.3216 667.8176000000001 885.3344 581.2991999999999 885.3344 554.6687999999999C885.3344 532.2848 885.312 512.9728 876.208 479.5808C868.0768 449.776 852.7232 408.6528 824.2624 341.6576C829.5232 337.4880000000001 837.3312 332.352 847.6224 326.5952C852.9376 323.6224 861.1072 320.0448 872.5856 315.0272C883.2384 310.3680000000001 896.0224 304.7616000000001 907.76 298.512C919.0176 292.5184000000001 932.176 284.48 941.9616 273.9712C952.192 262.9824 962.9344 244.1280000000001 955.2608 221.1104C950.2048 205.9424 938.464 195.1712 928.6816 188.016C918.0544 180.24 904.8672 173.2512000000001 890.432 166.9856C861.424 154.3968 823.4016 143.024 780.7488 134.0032C695.44 115.9616 587.168 106.4160000000001 487.1328 117.5296C387.1776 128.6368 284.39296 162.16 208.664 226.24C131.83104 291.2512000000001 84.85312 386.2336 96.00384 513.4624C96.29024 579.0111999999999 115.8448 675.8112 174.56512 757.36576zM341.3344 602.7008000000001C341.3344 620.944 356.1216 635.7344 374.3648 635.7344H564.3008C582.544 635.7344 597.3344 620.944 597.3344 602.7008000000001C597.3344 584.4576 582.544 569.6704 564.3008 569.6704H374.3648C356.1216 569.6704 341.3344 584.4576 341.3344 602.7008000000001zM374.3648 448H606.9696C625.2128 448 640 433.2096 640 414.9664C640 396.7232 625.2128 381.9360000000001 606.9696 381.9360000000001H374.3648C356.1216 381.9360000000001 341.3344 396.7232 341.3344 414.9664C341.3344 433.2096 356.1216 448 374.3648 448z" />
    <glyph glyph-name="baloons"
      unicode="&#xE0AD;"
      horiz-adv-x="1024" d="M353.1072 625.4975999999999V623.9968L352.9664 622.5024000000001C346.752 556.4352 371.0048 510.5599999999999 410.32 478.4096C451.1072 445.0560000000001 509.76 425.424 571.312 418.8160000000001C632.7392 412.2208000000001 700.6752 417.8816000000001 754.3776 428.8576000000001C777.6096 433.6064 797.3632 439.184 812.2656 444.7968C810.4256 445.5872000000001 808.5376 446.3872 806.6048 447.2032000000001L805.184 447.8016L805.1808 447.8048C798.7424 450.5216 790.96 453.8048 784.9472 457.0528C774.624 462.6336 763.8528 469.3088 755.6864 476.7712C751.7056 480.4096 746.5632 485.8208 742.9856 493.0016000000001C739.1424 500.7104 736.032 513.0527999999999 741.8784 526.2368C763.6352 575.296 773.6736 601.52 778.4416 618.4064000000001C782.6816 633.4368 782.6816 640.544 782.6816 653.344V653.5584C782.6816 662.0672 776.8864 708.0032 746.7552 750.91264C718.1344 791.67584 666.112 832 567.8944 832C479.1552 832 427.0272 796.92064 396.1248 755.44416C364.0576 712.4009599999999 353.1072 659.904 353.1072 625.4975999999999zM836.384 456.9632C836.3936 456.96 836.3104 456.8704 836.1088 456.6944C836.2752 456.8736 836.3744 456.9632 836.384 456.9632zM567.8944 896C687.4304 896 758.8 845.13248 799.1328 787.6896C837.9616 732.39264 846.6816 673.1071999999999 846.6816 653.5584C846.6816 638.4352 846.656 624.4928 840.0352 601.024C834.6656 582 824.9824 556.672 807.984 517.5871999999999C810.1056 516.2912 812.5664 514.8768 815.3824 513.3535999999999C818.4736 511.6832000000001 823.4944 509.5456 831.5136 506.1568C838.7168 503.1136 847.7504 499.2896 856.1248 494.9792C863.9936 490.9312 874.1984 485.0272 882.0992 476.8256C890.3904 468.2208000000001 900.8832 451.4432 893.6352 430.4192000000001C889.0208 417.0432 878.6912 408.3232000000001 871.5712 403.2896C863.5136 397.5936000000001 853.8208 392.6752 843.632 388.4032C823.12 379.7984 796.592 372.1632 767.1904 366.1536C708.3744 354.1312000000001 633.7024 347.7472 564.4768 355.1808C495.3792 362.6016 423.376 385.0592000000001 369.8048 428.8672000000001C315.06816 473.6288 281.32544 539.4944 289.11264 627.0144C289.41728 672.0832 303.30336 737.976 344.8032 793.6803199999999C387.9392000000001 851.5792 459.2032 896 567.8944 896zM798.4576 524.4C798.3776 524.4928 798.3328 524.5376 798.3296 524.5376C798.3296 524.5376 798.3328 524.5312 798.3456 524.5183999999999C798.3648 524.496 798.4032 524.4576 798.4576 524.4zM192.8656 579.6864C208.99808 602.6623999999999 230.09568 624.5888 257.25472 642.624C256.09312 624.0672 256.00032 606.784 256.00032 591.9968C256.7024 581.3184 257.91392 570.9536 259.60704 560.8992000000001C254.25408 555.0016 249.4912 548.96 245.24352 542.912C215.11488 500 209.31872 454.064 209.31872 445.5552V445.3440000000001V445.3440000000001C209.3184 432.5408 209.3184 425.4336 213.55968 410.4064C218.3248 393.52 228.36576 367.2928000000001 250.12192 318.2336C255.96832 305.0496000000001 252.85824 292.7104000000001 249.01536 284.9984C245.43712 277.8208 240.29504 272.4096 236.31392 268.7712C228.14848 261.3056000000001 217.37536 254.6336 207.05248 249.0528000000001C201.03904 245.8016 193.25856 242.5184000000001 186.81984 239.8016L186.81856 239.8016L186.816 239.8016L185.3952 239.2000000000001C183.46272 238.384 181.57408 237.584 179.73408 236.7936C194.63712 231.1808 214.3904 225.6032 237.62368 220.8544000000001C291.3232 209.8816000000001 359.2608 204.2176 420.688 210.8128000000001C482.24 217.424 540.8928 237.0528000000001 581.68 270.4096C598.5056 284.1664 612.5728 300.4416 622.6752 319.7376000000001C646.1344 319.3920000000001 669.664 319.8688 692.5408 321.0464C678.9888 280.3744000000001 654.176 247.0176 622.1952 220.864C568.624 177.0560000000001 496.6208 154.5984 427.5232 147.1808C358.2976 139.7472 283.624 146.1312 224.80864 158.1504C195.40672 164.16 168.87968 171.7952 148.36704 180.4C138.1808 184.672 128.4848 189.5936000000001 120.4288 195.2896C113.31008 200.3232000000001 102.97984 209.0432 98.36608 222.4192000000001C91.1152 243.4400000000001 101.61088 260.2176 109.90176 268.8224C117.80224 277.024 128.00608 282.928 135.87552 286.9792C144.24832 291.2864 153.2848 295.1136 160.4864 298.1568C168.50496 301.5424000000001 173.52608 303.68 176.61856 305.3536000000001C179.432 306.8736 181.8928 308.2912 184.01664 309.584C167.01824 348.6720000000001 157.33408 374 151.96512 393.024C145.3424 416.4928 145.31872 430.4352 145.31872 445.5552C145.31872 465.1072 154.03904 524.3904 192.8656 579.6864zM155.61568 248.9600000000001C155.60672 248.9600000000001 155.68992 248.8672000000001 155.89056 248.6912C155.7248 248.8736 155.62432 248.9600000000001 155.61568 248.9600000000001zM193.67072 316.5376L193.6336 316.5024L193.5424 316.4C193.6336 316.4896 193.6736 316.5376 193.67072 316.5376z" />
    <glyph glyph-name="ban"
      unicode="&#xE004;"
      horiz-adv-x="1024" d="M864 512C864 598.8896 832.5184 678.4288 780.336 739.82624L284.17376 243.664C345.5712 191.4816 425.1104000000001 160 512 160C706.4032 160 864 317.5968000000001 864 512zM239.34944 289.3504000000001L734.6496 784.65056C673.9872 834.24736 596.4672 864 512 864C317.59584 864 160 706.40416 160 512C160 427.5328 189.75264 350.0128 239.34944 289.3504000000001zM928 512C928 282.2496 741.7504 96 512 96C282.2496 96 96 282.2496 96 512C96 741.7504 282.2496 928 512 928C741.7504 928 928 741.7504 928 512z" />
    <glyph glyph-name="bell"
      unicode="&#xE005;"
      horiz-adv-x="1024" d="M608 192H416C416 138.9792 458.9792 96 512 96C565.0208 96 608 138.9792 608 192zM736 320.3232000000001V319.6288V288H288V640C288 763.71168 388.288 864 512 864C635.712 864 736 763.71168 736 640V320.3232000000001zM288 224H736H800H816C828.1216 224 839.2 230.848 844.6208 241.6896000000001C850.0416 252.5312 848.8736 265.504 841.6 275.2000000000001L800 330.6656000000001V640C800 799.05792 671.0592 928 512 928C352.9408 928 224 799.05792 224 640V333.2544000000001L169.37248 278.6272C160.2208 269.4752 157.48288 255.712 162.43584 243.7536C167.3888 231.7952 179.05728 224 192 224H224H288z" />
    <glyph glyph-name="bold"
      unicode="&#xE008;"
      horiz-adv-x="1024" d="M384 248.5824C366.3264 248.5824 352 262.9120000000001 352 280.5824V733.75008C352 751.42304 366.3264 765.75008 384 765.75008H521.0752C577.1936 765.75008 619.344 754.14688 647.5232 730.9408000000001C675.9392 707.7344 690.1472 673.3984 690.1472 627.9328C690.1472 603.7792 683.28 582.3488 669.5456 563.6415999999999C655.8112 545.1712 637.104 530.848 613.424 520.6656C641.3664 512.8512000000001 663.3888 497.9328 679.4912 475.9104C695.8304 454.1248000000001 704 428.0768000000001 704 397.7664C704 351.3536000000001 688.9632 314.8864 658.8896 288.3648C628.816 261.8432 586.3104 248.5824 531.3728 248.5824H384zM420.1984 490.4736V304.3488H532.7936C564.5248 304.3488 589.5072 312.5184000000001 607.7408 328.8576000000001C626.2112 345.4336 635.4464 368.1664 635.4464 397.0560000000001C635.4464 459.3344 601.584 490.4736 533.8592 490.4736H420.1984zM420.1984 545.1712H523.2064C553.04 545.1712 576.8384 552.6304 594.5984 567.5488C612.5952 582.4672 621.5936 602.7136 621.5936 628.288C621.5936 656.704 613.3056 677.3056 596.7296 690.0928C580.1536 703.1168 554.9344 709.6288 521.0752 709.6288H420.1984V545.1712z" />
    <glyph glyph-name="bell-off"
      unicode="&#xE006;"
      horiz-adv-x="1024" d="M800 640C800 645.7824 799.8304 651.5264 799.4944 657.2224L736 593.7312V288H430.2688L366.2688 224H736H800H832C844.944 224 856.6112 231.7952 861.5648 243.7536C866.5184 255.712 863.7792 269.4752 854.6272 278.6272L800 333.2544000000001V640zM715.0208 844.2719999999999C662.9536 896.0224000000001 591.2096 928 512 928C352.9408 928 224 799.05792 224 640V353.2512000000001L288 417.2512000000001V640C288 763.71168 388.288 864 512 864C573.536 864 629.28 839.1856 669.7632 799.01696L715.0208 844.2719999999999zM416 192C416 138.9792 458.9792 96 512 96C565.0208 96 608 138.9792 608 192H416zM879.872 873.38048C867.376 885.87712 847.1168 885.87712 834.6176 873.38048L159.00224 197.7632C146.5056 185.2672 146.5056 165.0048000000001 159.00224 152.5088C171.4992 140.0128 191.76032 140.0128 204.25728 152.5088L879.872 828.12544C892.3712 840.6224 892.3712 860.88352 879.872 873.38048z" />
    <glyph glyph-name="book"
      unicode="&#xE007;"
      horiz-adv-x="1024" d="M352 578.5632C352 596.2336 366.3264 610.5632 384 610.5632H640C657.6736 610.5632 672 596.2336 672 578.5632C672 560.8896 657.6736 546.5632 640 546.5632H384C366.3264 546.5632 352 560.8896 352 578.5632zM352 701.4431999999999C352 719.1148800000001 366.3264 733.44192 384 733.44192H640C657.6736 733.44192 672 719.1148800000001 672 701.4431999999999C672 683.7696000000001 657.6736 669.4431999999999 640 669.4431999999999H384C366.3264 669.4431999999999 352 683.7696000000001 352 701.4431999999999zM864 344.3200000000001C864 326.6464 849.6736 312.3200000000001 832 312.3200000000001H813.4912C805.2736 271.7728 805.2736 229.9872000000001 813.4912 189.4400000000001H833.28C850.2464 189.4400000000001 864 175.6864000000001 864 158.72C864 141.7536 850.2464 128 833.28 128H288C217.30752 128 160 183.0144 160 250.88V704C160 810.0384 245.96128 896 352 896H832C849.6736 896 864 881.67296 864 864V344.3200000000001zM748.4192 189.4400000000001C741.632 230.1184 741.632 271.6416000000001 748.4192 312.3200000000001H288C252.65376 312.3200000000001 224 284.8128000000001 224 250.88C224 216.9472 252.65376 189.4400000000001 288 189.4400000000001H748.4192zM224 376.3200000000001H800V832H352C281.30752 832 224 774.6924799999999 224 704V376.3200000000001z" />
    <glyph glyph-name="burger"
      unicode="&#xE0B9;"
      horiz-adv-x="1024" d="M170.66784 778.664C170.66784 796.33728 184.99488 810.664 202.66784 810.664H843.5136C861.1872 810.664 875.5136 796.33728 875.5136 778.664C875.5136 760.99104 861.1872 746.664 843.5136 746.664H202.66784C184.99488 746.664 170.66784 760.99104 170.66784 778.664zM170.66784 522.6656C170.66784 540.336 184.99488 554.6656 202.66784 554.6656H843.5136C861.1872 554.6656 875.5136 540.336 875.5136 522.6656C875.5136 504.992 861.1872 490.6656 843.5136 490.6656H202.66784C184.99488 490.6656 170.66784 504.992 170.66784 522.6656zM170.66784 266.6656000000001C170.66784 284.336 184.99488 298.6656000000001 202.66784 298.6656000000001H843.5136C861.1872 298.6656000000001 875.5136 284.336 875.5136 266.6656000000001C875.5136 248.992 861.1872 234.6656000000001 843.5136 234.6656000000001H202.66784C184.99488 234.6656000000001 170.66784 248.992 170.66784 266.6656000000001z" />
    <glyph glyph-name="burger-arrow-left"
      unicode="&#xE0C3;"
      horiz-adv-x="1024" d="M144 864C126.32704 864 112 849.67296 112 832C112 814.32704 126.32704 800 144 800H336C353.6736 800 368 814.32704 368 832C368 849.67296 353.6736 864 336 864H144zM700.4 677.3535999999999C712.1952 690.5183999999999 732.4256 691.6256000000001 745.5872 679.8335999999999C758.7488 668.0384 759.8592 647.808 748.064 634.6464000000001L666.8416 544H883.2C900.8736 544 915.2 529.6736000000001 915.2 512C915.2 494.3264 900.8736 480 883.2 480H666.8416L748.064 389.3536000000001C759.8592 376.192 758.7488 355.9616 745.5872 344.1664C732.4256 332.3744000000001 712.1952 333.4816 700.4 346.6464L571.3696 490.6464C560.4768 502.8 560.4768 521.2 571.3696 533.3535999999999L700.4 677.3535999999999zM112 512C112 529.6736000000001 126.32704 544 144 544H336C353.6736 544 368 529.6736000000001 368 512C368 494.3264 353.6736 480 336 480H144C126.32704 480 112 494.3264 112 512zM144 384C126.32704 384 112 369.6736 112 352C112 334.3264000000001 126.32704 320 144 320H336C353.6736 320 368 334.3264000000001 368 352C368 369.6736 353.6736 384 336 384H144zM112 672C112 689.6736000000001 126.32704 704 144 704H336C353.6736 704 368 689.6736000000001 368 672C368 654.3263999999999 353.6736 640 336 640H144C126.32704 640 112 654.3263999999999 112 672zM144 224C126.32704 224 112 209.6736 112 192C112 174.3264 126.32704 160 144 160H336C353.6736 160 368 174.3264 368 192C368 209.6736 353.6736 224 336 224H144z" />
    <glyph glyph-name="business"
      unicode="&#xE009;"
      horiz-adv-x="1024" d="M224 800H544V608V224H448V336C448 344.8352 440.8352 352 432 352H336C327.1648 352 320 344.8352 320 336V224H224V800zM608 576H800V224H608V576zM832 640H608V832C608 849.67296 593.6736 864 576 864H192C174.32704 864 160 849.67296 160 832V192C160 174.3264 174.32704 160 192 160H576H832C849.6736 160 864 174.3264 864 192V608C864 625.6736000000001 849.6736 640 832 640zM304 736C295.16352 736 288 728.8364799999999 288 720V688C288 679.1648 295.16352 672 304 672H336C344.8352 672 352 679.1648 352 688V720C352 728.8364799999999 344.8352 736 336 736H304zM288 592V560C288 551.1648 295.16352 544 304 544H336C344.8352 544 352 551.1648 352 560V592C352 600.8352 344.8352 608 336 608H304C295.16352 608 288 600.8352 288 592zM304 480C295.16352 480 288 472.8352 288 464V432C288 423.1648 295.16352 416 304 416H336C344.8352 416 352 423.1648 352 432V464C352 472.8352 344.8352 480 336 480H304zM416 720V688C416 679.1648 423.1648 672 432 672H464C472.8352 672 480 679.1648 480 688V720C480 728.8364799999999 472.8352 736 464 736H432C423.1648 736 416 728.8364799999999 416 720zM432 608C423.1648 608 416 600.8352 416 592V560C416 551.1648 423.1648 544 432 544H464C472.8352 544 480 551.1648 480 560V592C480 600.8352 472.8352 608 464 608H432zM416 464V432C416 423.1648 423.1648 416 432 416H464C472.8352 416 480 423.1648 480 432V464C480 472.8352 472.8352 480 464 480H432C423.1648 480 416 472.8352 416 464zM688 512C679.1648 512 672 504.8352 672 496V464C672 455.1648 679.1648 448 688 448H720C728.8352 448 736 455.1648 736 464V496C736 504.8352 728.8352 512 720 512H688zM672 368V336C672 327.1648 679.1648 320 688 320H720C728.8352 320 736 327.1648 736 336V368C736 376.8352 728.8352 384 720 384H688C679.1648 384 672 376.8352 672 368z" />
    <glyph glyph-name="calendar"
      unicode="&#xE00A;"
      horiz-adv-x="1024" d="M276.47968 866.56C276.47968 882.8192 289.66048 896 305.9196800000001 896C322.1792 896 335.36 882.8192 335.36 866.56V807.68352H688.64V866.56C688.64 882.8192 701.8208 896 718.08 896C734.3392 896 747.52 882.8192 747.52 866.56V807.68352H833.28C850.9536 807.68352 865.28 793.3568 865.28 775.68352V663.0432000000001V192.0032C865.28 174.3296 850.9536 160.0032 833.28 160.0032H190.71968C173.04672 160.0032 158.71968 174.3296 158.71968 192.0032V663.0432000000001V775.68352C158.71968 776.7881600000001 158.77568 777.87968 158.8848 778.95552C160.52352 795.09152 174.15104 807.68352 190.71968 807.68352H276.47968V866.56zM801.28 631.0432000000001H222.71968V224.0032H801.28V631.0432000000001zM423.68 379.5264C423.68 388.3616 430.8448 395.5264 439.68 395.5264H466.56C475.3952 395.5264 482.56 388.3616 482.56 379.5264V352.6464C482.56 343.808 475.3952 336.6464 466.56 336.6464H439.68C430.8448 336.6464 423.68 343.808 423.68 352.6464V379.5264zM321.92 513.28H348.8C357.6352 513.28 364.8 506.1184 364.8 497.28V470.4C364.8 461.5648 357.6352 454.4 348.8 454.4H321.92C313.08288 454.4 305.91936 461.5648 305.91936 470.4V497.28C305.91936 506.1184 313.08288 513.28 321.92 513.28zM541.44 497.28C541.44 506.1152 548.6016 513.28 557.44 513.28H584.32C593.1552 513.28 600.32 506.1152 600.32 497.28V470.4C600.32 461.5648 593.1552 454.4 584.32 454.4H557.44C548.6016 454.4 541.44 461.5648 541.44 470.4V497.28zM321.92 395.5232H348.8C357.6352 395.5232 364.8 388.3616 364.8 379.5232V352.6432C364.8 343.808 357.6352 336.6432 348.8 336.6432H321.92C313.0832 336.6432 305.9196800000001 343.808 305.9196800000001 352.6432V379.5232C305.9196800000001 388.3616 313.0832 395.5232 321.92 395.5232zM541.44 379.5232C541.44 388.3616 548.6016 395.5232 557.44 395.5232H584.32C593.1552 395.5232 600.32 388.3616 600.32 379.5232V352.6432C600.32 343.808 593.1552 336.6432 584.32 336.6432H557.44C548.6016 336.6432 541.44 343.808 541.44 352.6432V379.5232zM439.68 513.28H466.56C475.3952 513.28 482.56 506.1152 482.56 497.28V470.4C482.56 461.5648 475.3952 454.4 466.56 454.4H439.68C430.8416000000001 454.4 423.68 461.5648 423.68 470.4V497.28C423.68 506.1152 430.8416000000001 513.28 439.68 513.28zM659.2 497.28C659.2 506.1152 666.3616 513.28 675.2 513.28H702.08C710.9152 513.28 718.08 506.1152 718.08 497.28V470.4C718.08 461.5648 710.9152 454.4 702.08 454.4H675.2C666.3616 454.4 659.2 461.5648 659.2 470.4V497.28zM675.2 395.5232H702.08C710.9152 395.5232 718.08 388.3616 718.08 379.5232V352.6432C718.08 343.808 710.9152 336.6432 702.08 336.6432H675.2C666.3616 336.6432 659.2 343.808 659.2 352.6432V379.5232C659.2 388.3616 666.3616 395.5232 675.2 395.5232z" />
    <glyph glyph-name="camera"
      unicode="&#xE08A;"
      horiz-adv-x="1024" d="M195.37824 832.0032C195.37824 847.81056 208.19264 860.62496 224 860.62496H352C367.808 860.62496 380.6208 847.81056 380.6208 832.0032C380.6208 816.19616 367.808 803.38176 352 803.38176H224C208.19264 803.38176 195.37824 816.19616 195.37824 832.0032zM736 464.0032C736 366.8 657.2032 288.0032 560 288.0032C462.7968 288.0032 384 366.8 384 464.0032C384 561.2064 462.7968 640.0032 560 640.0032C657.2032 640.0032 736 561.2064 736 464.0032zM672 464.0032C672 525.8592 621.856 576.0032 560 576.0032C498.144 576.0032 448 525.8592 448 464.0032C448 402.1472 498.144 352.0032 560 352.0032C621.856 352.0032 672 402.1472 672 464.0032zM192 768.0032H832C867.3472 768.0032 896 739.34944 896 704.0032V256.0032C896 220.656 867.3472 192.0032 832 192.0032H192C156.65376 192.0032 128 220.656 128 256.0032V704.0032C128 739.34944 156.65376 768.0032 192 768.0032zM832 704.0032H192L192 256.0032H832V704.0032z" />
    <glyph glyph-name="card"
      unicode="&#xE00B;"
      horiz-adv-x="1024" d="M192 842.67136C138.9808 842.67136 96 799.69056 96 746.67136V277.3376C96 224.3200000000001 138.9808 181.3376 192 181.3376H832C885.0208 181.3376 928 224.3200000000001 928 277.3376V746.67136C928 799.69056 885.0208 842.67136 832 842.67136H192zM160 746.67136C160 764.3443199999999 174.32672 778.67136 192 778.67136H832C849.6736 778.67136 864 764.3443199999999 864 746.67136V544H160V746.67136zM160 480H864V277.3376C864 259.664 849.6736 245.3376 832 245.3376H192C174.32704 245.3376 160 259.664 160 277.3376V480zM810.6656 362.6720000000001C810.6656 398.016 782.0128 426.6720000000001 746.6656 426.6720000000001C711.3184 426.6720000000001 682.6656 398.016 682.6656 362.6720000000001C682.6656 327.3248 711.3184 298.6720000000001 746.6656 298.6720000000001C782.0128 298.6720000000001 810.6656 327.3248 810.6656 362.6720000000001z" />
    <glyph glyph-name="check"
      unicode="&#xE00E;"
      horiz-adv-x="1024" d="M854.5056 790.74848C867.0688 778.31904 867.1776 758.05792 854.7488 745.4944L379.872 265.4944000000001C373.8592 259.4176 365.664 255.9968 357.1168 256C348.5664 256.0032 340.3744 259.4272 334.3648 265.5072L169.23904 432.5952C156.81664 445.1648 156.93632 465.4272 169.50688 477.8496C182.07712 490.272 202.33824 490.1536 214.76096 477.5808L357.136 333.5136L809.2512 790.5056C821.68 803.06944 841.9424 803.17792 854.5056 790.74848z" />
    <glyph glyph-name="chevron-down"
      unicode="&#xE010;"
      horiz-adv-x="1024" d="M281.37248 630.6272C293.86944 643.1232 314.13056 643.1232 326.6272 630.6272L512 445.2544000000001L697.3728 630.6272C709.8688 643.1232 730.1312 643.1232 742.6272 630.6272C755.1232 618.1312 755.1232 597.8688 742.6272 585.3728L534.6272 377.3728C522.1312 364.8768 501.8688 364.8768 489.3728 377.3728L281.37248 585.3728C268.87584 597.8688 268.87584 618.1312 281.37248 630.6272z" />
    <glyph glyph-name="chevron-expand"
      unicode="&#xE084;"
      horiz-adv-x="1024" d="M697.6832 396.5632000000001C710.352 408.8896 730.6112 408.6112000000001 742.9344 395.9456C755.2608 383.2768 754.9824 363.0176 742.3168 350.6944L534.3168 148.3072C521.8944 136.2208000000001 502.1056 136.2208000000001 489.6832 148.3072L281.68416 350.6944C269.0176 363.0176 268.74048 383.2768 281.06496 395.9456C293.38976 408.6112000000001 313.64928 408.8896 326.3168 396.5632000000001L512 215.8912L697.6832 396.5632000000001zM697.6832 606.6944L512 787.36736L326.3168 606.6944C313.64928 594.3712 293.38976 594.6464000000001 281.06496 607.3152C268.74048 619.9808 269.0176 640.24 281.68416 652.5632L489.6832 854.9504C502.1056 867.0374400000001 521.8944 867.0374400000001 534.3168 854.9504L742.3168 652.5632C754.9824 640.24 755.2608 619.9808 742.9344 607.3152C730.6112 594.6464000000001 710.352 594.3712 697.6832 606.6944z" />
    <glyph glyph-name="chevron-left"
      unicode="&#x7B;"
      horiz-adv-x="1024" d="M393.3728 281.3728C380.8768 293.8688 380.8768 314.1312000000001 393.3728 326.6272L578.7456 512L393.3728 697.3728C380.8768 709.8694399999999 380.8768 730.1305600000001 393.3728 742.62752C405.8688 755.1241600000001 426.1312 755.1241600000001 438.6272 742.62752L646.6272 534.6272C659.1232 522.1312 659.1232 501.8688 646.6272 489.3728L438.6272 281.3728C426.1312 268.8768 405.8688 268.8768 393.3728 281.3728z" />
    <glyph glyph-name="chevron-left-mirror"
      unicode="&#x7D;"
      horiz-adv-x="1024" d="M630.6272 281.3728C643.1232 293.8688 643.1232 314.1312000000001 630.6272 326.6272L445.2544000000001 512L630.6272 697.3728C643.1232 709.8694399999999 643.1232 730.1305600000001 630.6272 742.62752C618.1312 755.1241600000001 597.8688 755.1241600000001 585.3728 742.62752L377.3728 534.6272C364.8768 522.1312 364.8768 501.8688 377.3728 489.3728L585.3728 281.3728C597.8688 268.8768 618.1312 268.8768 630.6272 281.3728z" />
    <glyph glyph-name="chevron-right"
      unicode="&#xF3A;"
      horiz-adv-x="1024" d="M630.6272 742.62752C643.1232 730.1305600000001 643.1232 709.8694399999999 630.6272 697.3728L445.2544 512L630.6272 326.6272C643.1232 314.1312000000001 643.1232 293.8688 630.6272 281.3728C618.1312 268.8768 597.8688 268.8768 585.3728 281.3728L377.3728 489.3728C364.8768 501.8688 364.8768 522.1312 377.3728 534.6272L585.3728 742.62752C597.8688 755.1241600000001 618.1312 755.1241600000001 630.6272 742.62752z" />
    <glyph glyph-name="chevron-right-mirror"
      unicode="&#xF3B;"
      horiz-adv-x="1024" d="M393.3728 742.62752C380.8768 730.1305600000001 380.8768 709.8694399999999 393.3728 697.3728L578.7456 512L393.3728 326.6272C380.8768 314.1312000000001 380.8768 293.8688 393.3728 281.3728C405.8688 268.8768 426.1312000000001 268.8768 438.6272 281.3728L646.6272 489.3728C659.1232 501.8688 659.1232 522.1312 646.6272 534.6272L438.6272 742.62752C426.1312000000001 755.1241600000001 405.8688 755.1241600000001 393.3728 742.62752z" />
    <glyph glyph-name="chevron-up"
      unicode="&#xE011;"
      horiz-adv-x="1024" d="M742.6272 393.3728C730.1312 380.8768 709.8688 380.8768 697.3728 393.3728L512 578.7456L326.6272 393.3728C314.13056 380.8768 293.86944 380.8768 281.37248 393.3728C268.87584 405.8688 268.87584 426.1312000000001 281.37248 438.6272L489.3728 646.6272C501.8688 659.1232 522.1312 659.1232 534.6272 646.6272L742.6272 438.6272C755.1232 426.1312000000001 755.1232 405.8688 742.6272 393.3728z" />
    <glyph glyph-name="circle-arrow-down"
      unicode="&#xE0A7;"
      horiz-adv-x="1024" d="M864 512C864 706.40416 706.4032 864 512 864C317.59584 864 160 706.40416 160 512C160 317.5968000000001 317.59584 160 512 160C706.4032 160 864 317.5968000000001 864 512zM928 512C928 282.2496 741.7504 96 512 96C282.2496 96 96 282.2496 96 512C96 741.7504 282.2496 928 512 928C741.7504 928 928 741.7504 928 512zM694.2592 452.6304L534.2912 296.9152000000001C521.8656 284.8224 502.0736 284.8224 489.648 296.9152000000001L329.68 452.6304C317.01504 464.96 316.74208 485.2192 329.0688 497.8816C341.3952 510.5472 361.6576 510.8192 374.32 498.4928L479.968 395.6512L479.968 672C479.968 689.6736000000001 494.2976 704 511.968 704C529.6416 704 543.968 689.6736000000001 543.968 672L543.968 395.6512L649.6192 498.4928C662.2816 510.8192 682.5408 510.5472 694.8704 497.8816C707.1968 485.2192 706.9248 464.96 694.2592 452.6304z" />
    <glyph glyph-name="circle-check"
      unicode="&#xE013;"
      horiz-adv-x="1024" d="M512 160C706.4032 160 864 317.5968000000001 864 512C864 558.5216 854.976 602.9312 838.5824 643.5808L887.1008 692.0992C913.312 637.6032 928 576.5183999999999 928 512C928 282.2496 741.7504 96 512 96C282.2496 96 96 282.2496 96 512C96 741.7504 282.2496 928 512 928C607.376 928 695.2544 895.904 765.424 841.92384L719.712 796.21216C661.4912 838.83488 589.6832 864 512 864C317.59584 864 160 706.40416 160 512C160 317.5968000000001 317.59584 160 512 160zM902.6304 793.37664L534.6016 425.2192C528.5984 419.216 520.4544 415.8432 511.9616 415.8432C503.472 415.8464 495.328 419.2256 489.328 425.232L361.3568 553.3888C348.8672000000001 565.8944 348.8832 586.1568 361.3888 598.6432C373.8944 611.1328 394.1568 611.1168 406.6432 598.6112L511.984 493.12L857.3696 838.62336C869.8624 851.12256 890.1248 851.12608 902.624 838.63136C915.1232 826.1366399999999 915.1264 805.87552 902.6304 793.37664z" />
    <glyph glyph-name="circle-cross"
      unicode="&#xE014;"
      horiz-adv-x="1024" d="M512 160C706.4032 160 864 317.5968000000001 864 512C864 706.40416 706.4032 864 512 864C317.59584 864 160 706.40416 160 512C160 317.5968000000001 317.59584 160 512 160zM512 96C282.2496 96 96 282.2496 96 512C96 741.7504 282.2496 928 512 928C741.7504 928 928 741.7504 928 512C928 282.2496 741.7504 96 512 96zM662.6272 662.6272C675.1232 650.1312 675.1232 629.8688 662.6272 617.3728L557.2544 512L662.6272 406.6272C675.1232 394.1312000000001 675.1232 373.8688 662.6272 361.3728C650.1312 348.8768 629.8688 348.8768 617.3728 361.3728L512 466.7456L406.6272 361.3728C394.1312 348.8768 373.8688 348.8768 361.3728 361.3728C348.8768 373.8688 348.8768 394.1312000000001 361.3728 406.6272L466.7456 512L361.3728 617.3728C348.8768 629.8688 348.8768 650.1312 361.3728 662.6272C373.8688 675.1232 394.1312 675.1232 406.6272 662.6272L512 557.2544L617.3728 662.6272C629.8688 675.1232 650.1312 675.1232 662.6272 662.6272z" />
    <glyph glyph-name="clip"
      unicode="&#xE016;"
      horiz-adv-x="1024" d="M649.808 885.62976C668.2112 892.9344 687.8624 896.45152 707.6352 895.9536C727.4048 895.45568 746.8544 890.9536 764.8672 882.73184C782.8768 874.51136 799.0656 862.74784 812.5344 848.1638399999999C826.0032 833.58208 836.496 816.46464 843.4624 797.81248C850.4256 779.16224 853.7408 759.31104 853.2384 739.38368C852.736 719.45632 848.4288 699.7984 840.5344 681.52C832.656 663.2832000000001 821.3472 646.7488000000001 807.2032 632.88L807.1104 632.7904L443.4208 271.856C425.7376 254.5472 401.8816 244.9824 377.0496 245.6064C352.2208 246.2304000000001 328.8768 256.9888 312.088 275.1648C295.33088 293.3056000000001 286.44032 317.3504000000001 287.06048 341.968C287.67904 366.5312 297.7264 390.048 315.30496 407.312L620.3296 710.81984C634.1376 724.56128 656.4736 724.5056 670.2144 710.69568C683.9552 696.8864 683.9008 674.5504000000001 670.0896 660.8096L364.768 357.0048000000001C360.448 352.7776 357.7536 346.7488 357.5872 340.192C357.4208 333.632 359.808 327.4752 363.9104 323.0336C367.9808 318.6304 373.3728 316.2720000000001 378.8256 316.1344000000001C384.2528 315.9968 389.728 318.0576 394.0032 322.2112L757.7632 683.2096C765.3312 690.6176 771.4688 699.5424 775.7664 709.4975999999999C780.0672 719.45408 782.4352 730.21568 782.7136 741.1600000000001C782.9888 752.1043199999999 781.1648 762.97152 777.3696 773.13184C773.5776 783.29056 767.9008 792.51232 760.7104 800.29408C753.5264 808.07392 744.9728 814.2608 735.5712 818.55232C726.1728 822.84256 716.0768 825.16896 705.856 825.42656C695.6352 825.68384 685.4368 823.86848 675.8336 820.05696C666.2624 816.25728 657.4368 810.53536 649.8848 803.16416L286.11648 442.1536C259.8256 416.4224000000001 244.34688 380.8 243.3968 343.0656C242.4464 305.3344 256.11136 268.9792 281.0736 241.9552C306.00288 214.9664 340.1248 199.4912000000001 375.8656 198.592C411.6064 197.6896000000001 446.4672 211.4272 472.7232 237.1264L773.1232 530.7712C787.056 544.3904 809.3888 544.1376 823.0048 530.2048C836.624 516.2719999999999 836.3712 493.9392 822.4384 480.3232L522.0704 186.7104000000001C482.416 147.8976 429.2064 126.6752 374.0896 128.064C318.97536 129.4528 266.8992 153.3248 229.2496 194.0832C191.63264 234.8096000000001 171.46432 289.0528000000001 172.86944 344.8416C174.2736 400.5888 197.11296 453.712 236.67616 492.4832L600.4576 853.5059200000001C614.6464 867.39328 631.408 878.3264 649.808 885.62976z" />
    <glyph glyph-name="clipboard"
      unicode="&#xE017;"
      horiz-adv-x="1024" d="M608 832H800C817.6736 832 832 817.67296 832 800V128C832 110.3264 817.6736 96 800 96H224C206.32704 96 192 110.3264 192 128V800C192 817.67296 206.32704 832 224 832H416C416 885.0192 458.9792 928 512 928C565.0208 928 608 885.0192 608 832zM256 160H768V768H672V704C672 686.3263999999999 657.6736 672 640 672H384C366.3264 672 352 686.3263999999999 352 704V768H256V160zM512 800C529.6736 800 544 814.32704 544 832C544 849.67296 529.6736 864 512 864C494.3264 864 480 849.67296 480 832C480 814.32704 494.3264 800 512 800z" />
    <glyph glyph-name="cloud-arrow-up"
      unicode="&#xE0B3;"
      horiz-adv-x="1024" d="M273.128 667.3216C266.50848 639.5552 270.7440000000001 603.5648 298.62592 561.7408L331.792 511.9904H272C227.98912 511.9904 201.5168 497.1168 185.7216 478.3712C169.22528 458.7936 161.14816 431.1072000000001 161.98784 400.88C162.82848 370.6176000000001 172.58912 340.9120000000001 187.80608 319.568C202.93312 298.352 221.2096 287.9904 240.00064 287.9904H384V223.9904H240C194.79104 223.9904 159.06752 249.632 135.6944 282.4160000000001C112.41152 315.072 99.17216 357.3664 98.01248 399.1040000000001C96.85216 440.8768 107.77504 485.1872 136.77888 519.6096C157.50496 544.2080000000001 185.93408 561.9295999999999 221.60384 570.3936C205.504 609.4048 202.5952 647.4431999999999 210.87264 682.1632C222.12608 729.3632 253.17696 766.65504 291.66368 789.50528C330.064 812.30336 377.3408 821.64384 422.9664 811.47008C458.5504 803.53504 491.8752 783.9897599999999 518.2176 751.91648C571.968 787.06336 645.8016 782.80864 700.7008 754.41152C735.1392 736.5990400000001 765.4944 708.02944 782.1376 669.4015999999999C794.432 640.8704 798.576 608.3904 792.7456 573.1967999999999C838.8576 566.5152 874.2528 548.0416 898.3584 519.7408C928.7072 484.1152 936.464 438.3904 931.8048 396.4576C927.1456 354.5408 909.8592 312.9728 885.2608 281.3440000000001C861.2 250.4096 825.9072 223.9904 784 223.9904H640V287.9904H784C798.0928 287.9904 816.8 297.5712 834.7424 320.6368C852.1408 343.0080000000001 864.8544 373.4432000000001 868.1952 403.5264C871.536 433.5936000000001 865.2928 459.8656 849.6416 478.24C834.4192 496.1088 805.6064 511.9904 752 511.9904H706.3136L721.9264 554.928C735.472 592.1792 733.0176 621.6704 723.3632 644.0768C713.5072 666.9472000000001 694.8608 685.3792000000001 671.2992 697.5648C621.712 723.21408 563.824 716.18944 536.5824 683.5008L506.448 647.3408L483.9072 688.6656C464.1504 724.8844799999999 436.6752 742.84096 409.0368000000001 749.00416C380.6592 755.33152 349.9392000000001 749.6736000000001 324.336 734.47392C298.82368 719.32608 279.87488 695.6192 273.128 667.3216zM630.9792 435.2224C643.2768 422.5312 642.96 402.2720000000001 630.272 389.9712C617.5808 377.6736 597.3216 377.9904 585.0208 390.6784L544 433.0048000000001V160C544 142.3264 529.6736 128 512 128C494.3264 128 480 142.3264 480 160V433.0048000000001L438.9792 390.6784C426.6784 377.9904 406.4192 377.6736 393.728 389.9712C381.04 402.2720000000001 380.7232 422.5312 393.0208 435.2224L489.0208 534.2719999999999C495.0496 540.4896 503.3408 544 512 544C520.6592 544 528.9504 540.4896 534.9792 534.2719999999999L630.9792 435.2224z" />
    <glyph glyph-name="clock"
      unicode="&#xE018;"
      horiz-adv-x="1024" d="M864 512C864 706.40416 706.4032 864 512 864C317.59584 864 160 706.40416 160 512C160 317.5968000000001 317.59584 160 512 160C706.4032 160 864 317.5968000000001 864 512zM928 512C928 282.2496 741.7504 96 512 96C282.2496 96 96 282.2496 96 512C96 741.7504 282.2496 928 512 928C741.7504 928 928 741.7504 928 512zM544 736V525.2544L630.6272 438.6272C643.1232 426.1312000000001 643.1232 405.8688 630.6272 393.3728C618.1312 380.8768 597.8688 380.8768 585.3728 393.3728L489.3728 489.3728C483.3728 495.3728 480 503.5136 480 512V736C480 753.67296 494.3264 768 512 768C529.6736 768 544 753.67296 544 736z" />
    <glyph glyph-name="cloud-plus"
      unicode="&#xE019;"
      horiz-adv-x="1024" d="M273.12832 667.3248C266.5088 639.5584 270.74464 603.568 298.62656 561.744L331.792 511.9968H272.00064C227.98976 511.9968 201.51744 497.1232 185.72192 478.3776C169.22592 458.7968 161.1488 431.1104000000001 161.98848 400.8832C162.82912 370.6208000000001 172.58944 340.9152000000001 187.80672 319.5712C202.93376 298.3552 221.20992 287.9936 240.00128 287.9936H784C798.0928 287.9936 816.8 297.5744 834.7424 320.64C852.1408 343.0144 864.8544 373.4464000000001 868.1952 403.5296C871.536 433.5968000000001 865.2928 459.8688 849.6416 478.2432C834.4192 496.112 805.6064 511.9968 752 511.9968H706.3136L721.9264 554.9312C735.4752 592.1823999999999 733.0176 621.6736000000001 723.3632 644.0799999999999C713.5072 666.9536 694.8608 685.3824 671.2992 697.568C621.712 723.21792 563.824 716.1936000000001 536.5856 683.5072L506.448 647.344L483.9072 688.6687999999999C464.1504 724.88832 436.6752 742.8448000000001 409.0368000000001 749.00832C380.6624 755.33536 349.9392000000001 749.67776 324.336 734.47776C298.82432 719.32992 279.8752 695.6224 273.12832 667.3248zM518.2176 751.92032C571.968 787.0672 645.8016 782.81248 700.7008 754.41536C735.1392 736.60288 765.4944 708.0336 782.1376 669.408C794.432 640.8768 798.576 608.3968 792.7456 573.2C838.8576 566.5183999999999 874.256 548.0448 898.3616 519.7472C928.7072 484.1184 936.464 438.3936 931.8048 396.4608C927.1488 354.544 909.8592 312.976 885.2608 281.3472000000001C861.2 250.4128 825.9072 223.9936 784 223.9936H240.00032C194.79168 223.9936 159.06816 249.6352000000001 135.69504 282.4192000000001C112.41216 315.0752 99.17248 357.3696 98.01312 399.1072000000001C96.8528 440.88 107.77568 485.1935999999999 136.77952 519.616C157.5056 544.2112 185.9344 561.9328 221.60448 570.3968C205.50432 609.408 202.59552 647.4464 210.87328 682.1664000000001C222.1264 729.36736 253.1776 766.65888 291.66432 789.5091199999999C330.064 812.3075200000001 377.3408 821.64768 422.9664 811.47392C458.5504 803.5391999999999 491.8752 783.9936 518.2176 751.92032zM512 586.672C529.6736 586.672 544 572.3456 544 554.672V501.3440000000001H597.3344C615.008 501.3440000000001 629.3344 487.0176 629.3344 469.3440000000001C629.3344 451.6704 615.008 437.3440000000001 597.3344 437.3440000000001H544V384.0032C544 366.3328 529.6736 352.0032 512 352.0032C494.3264 352.0032 480 366.3328 480 384.0032V437.3440000000001H426.6688C408.9952 437.3440000000001 394.6688 451.6704 394.6688 469.3440000000001C394.6688 487.0176 408.9952 501.3440000000001 426.6688 501.3440000000001H480V554.672C480 572.3456 494.3264 586.672 512 586.672z" />
    <glyph glyph-name="code"
      unicode="&#xE01A;"
      horiz-adv-x="1024" d="M630.1536 819.20032C646.6496 812.856 654.8768 794.34112 648.5344 777.84576L435.2 223.1776C428.8576 206.6848 410.3424 198.4544 393.8464 204.8C377.3504 211.1424 369.1232 229.6576 375.4656 246.1536L588.8 800.82048C595.1424 817.31552 613.6576 825.54464 630.1536 819.20032zM321.2928 662.6272C333.792 650.1312 333.792 629.8688 321.2928 617.3728L215.9216 512L321.2928 406.6272C333.792 394.1312000000001 333.792 373.8688 321.2928 361.3728C308.79744 348.8768 288.536 348.8768 276.03936 361.3728L148.03936 489.3728C135.5424 501.8688 135.5424 522.1312 148.03936 534.6272L276.03936 662.6272C288.536 675.1232 308.79744 675.1232 321.2928 662.6272zM702.7072 662.6272C715.2032 675.1232 735.4624 675.1232 747.9616 662.6272L875.9616 534.6272C888.4576 522.1312 888.4576 501.8688 875.9616 489.3728L747.9616 361.3728C735.4624 348.8768 715.2032 348.8768 702.7072 361.3728C690.208 373.8688 690.208 394.1312000000001 702.7072 406.6272L808.08 512L702.7072 617.3728C690.208 629.8688 690.208 650.1312 702.7072 662.6272z" />
    <glyph glyph-name="cog"
      unicode="&#xE01B;"
      horiz-adv-x="1024" d="M512 96C526.2144 96 540.2752 96.7136 554.144 98.112C570.8384 99.792 584.7008 110.64 590.832 125.5072L631.3696 223.8112L729.5328 182.9728C744.368 176.8 761.8304 178.9248 774.8224 189.5264C796.6624 207.3440000000001 816.6528 227.3376 834.4736 249.1744C845.072 262.1664 847.2 279.6288 841.0272 294.4672000000001L800.1856 392.6272L898.4928 433.168C913.36 439.2992000000001 924.208 453.1616 925.888 469.856C927.2864 483.7248 928 497.7824000000001 928 512C928 526.2144000000001 927.2864 540.2752 925.888 554.1408C924.208 570.8352 913.36 584.6976 898.496 590.8288L800.1856 631.3696L841.0272 729.5328C847.2 744.3696 845.0752 761.8326400000001 834.4736 774.82432C816.656 796.6620800000001 796.6624 816.65408 774.8256 834.47232C761.8336 845.07296 744.3712 847.1984 729.5328 841.0255999999999L631.3696 800.1856L590.8288 898.4944C584.7008 913.35904 570.8352 924.20832 554.1408 925.8896C540.2752 927.28576 526.2144 928 512 928C497.7856 928 483.7248 927.28576 469.8592 925.8896C453.1648 924.20832 439.2992 913.35904 433.1712 898.4944L392.6304 800.1856L294.4656 841.0255999999999C279.6288 847.1984 262.16544 845.07264 249.17376 834.47232C227.33632 816.65408 207.344 796.66176 189.52608 774.8240000000001C178.92576 761.83232 176.8 744.36928 182.9728 729.5324800000001L223.8128 631.3696L125.50528 590.8288C110.64096 584.6976 99.79136 570.8352 98.1104 554.1408C96.71424 540.2752 96 526.2144000000001 96 512C96 497.7824000000001 96.71424 483.7248 98.11072 469.856C99.792 453.1616 110.64128 439.2992000000001 125.5056 433.168L223.8128 392.6272L182.97376 294.4672000000001C176.80096 279.6288 178.9264 262.1664 189.52704 249.1744C207.3456 227.3376 227.33824 207.3440000000001 249.17664 189.5264C262.16832 178.9248 279.63136 176.8 294.46816 182.9728L392.6304 223.8112L433.168 125.5072C439.2992 110.64 453.1616 99.792 469.856 98.112C483.7248 96.7136 497.7824 96 512 96zM444.4512 266.016C434.9984 288.9408 408.7232 299.824 385.8272 290.3008L280.77152 246.592C268.61568 257.1936 257.19392 268.6144000000001 246.59328 280.7712L290.3011200000001 385.8272C299.82624 408.7200000000001 288.94208 434.9984 266.0176 444.4512L160.81504 487.8368C160.27488 495.8144 160 503.872 160 512C160 520.1248 160.27488 528.1823999999999 160.81504 536.1600000000001L266.0176 579.5455999999999C288.94208 588.9984 299.82624 615.2768 290.3011200000001 638.1696L246.59264 743.2288C257.19232 755.38432 268.61376 766.80576 280.76928 777.40576L385.8272 733.69728C408.7232 724.1721600000001 434.9984 735.05632 444.4512 757.98048L487.8368 863.18496C495.8176 863.7251200000001 503.8752 864 512 864C520.1248 864 528.1824 863.7251200000001 536.1632 863.18496L579.5456 757.98048C589.0016 735.05632 615.2768 724.1721600000001 638.1728 733.69728L743.232 777.40576C755.3856 766.80576 766.8064 755.38464 777.408 743.22912L733.6992 638.1696C724.1728 615.2768 735.0592 588.9984 757.9808 579.5455999999999L863.184 536.1600000000001C863.7248 528.1823999999999 864 520.1248 864 512C864 503.872 863.7248 495.8144 863.184 487.8368L757.9808 444.4512C735.0592 434.9984 724.1728 408.7200000000001 733.6992 385.8272L777.408 280.7712C766.8064 268.6144000000001 755.3856 257.1936 743.2288 246.592L638.1728 290.3008C615.2768 299.824 589.0016 288.9408 579.5456 266.016L536.1632 160.816C528.1824 160.2752000000001 520.1248 160 512 160C503.8752 160 495.8176 160.2752000000001 487.8368 160.816L444.4512 266.016zM416 512C416 565.0208 458.9792 608 512 608C565.0208 608 608 565.0208 608 512C608 458.9792 565.0208 416 512 416C458.9792 416 416 458.9792 416 512zM512 672C423.6352 672 352 600.3648000000001 352 512C352 423.6352000000001 423.6352 352 512 352C600.3648 352 672 423.6352000000001 672 512C672 600.3648000000001 600.3648 672 512 672z" />
    <glyph glyph-name="condensed-view"
      unicode="&#x27EE;"
      horiz-adv-x="1024" d="M192 352C156.65376 352 128 380.6528 128 416C128 451.3472 156.65376 480 192 480C227.34624 480 256 451.3472 256 416C256 380.6528 227.34624 352 192 352zM320 448L864 448C881.6736 448 896 433.6736 896 416C896 398.3264000000001 881.6736 384 864 384L320 384C302.32704 384 288 398.3264000000001 288 416C288 433.6736 302.32704 448 320 448zM192 544C156.65376 544 128 572.6528000000001 128 608C128 643.3471999999999 156.65376 672 192 672C227.34624 672 256 643.3471999999999 256 608C256 572.6528000000001 227.34624 544 192 544zM320 640L864 640C881.6736 640 896 625.6736000000001 896 608C896 590.3263999999999 881.6736 576 864 576L320 576C302.32704 576 288 590.3263999999999 288 608C288 625.6736000000001 302.32704 640 320 640zM192 736C156.65376 736 128 764.6537599999999 128 800C128 835.34624 156.65376 864 192 864C227.34624 864 256 835.34624 256 800C256 764.6537599999999 227.34624 736 192 736zM320 832L864 832C881.6736 832 896 817.67296 896 800C896 782.32672 881.6736 768 864 768L320 768C302.32704 768 288 782.32704 288 800C288 817.67296 302.32704 832 320 832zM192 160C156.65376 160 128 188.6528 128 224C128 259.3472000000001 156.65376 288 192 288C227.34624 288 256 259.3472000000001 256 224C256 188.6528 227.34624 160 192 160zM320 256L864 256C881.6736 256 896 241.6736 896 224C896 206.3264 881.6736 192 864 192L320 192C302.32704 192 288 206.3264 288 224C288 241.6736 302.32704 256 320 256z" />
    <glyph glyph-name="condensed-view-mirror"
      unicode="&#x27EF;"
      horiz-adv-x="1024" d="M832 352C867.34624 352 896 380.6528 896 416C896 451.3472 867.34624 480 832 480C796.65376 480 768 451.3472 768 416C768 380.6528 796.65376 352 832 352zM704 448L160 448C142.3264 448 128 433.6736 128 416C128 398.3264000000001 142.3264 384 160 384L704 384C721.67296 384 736 398.3264000000001 736 416C736 433.6736 721.67296 448 704 448zM832 544C867.34624 544 896 572.6528000000001 896 608C896 643.3471999999999 867.34624 672 832 672C796.65376 672 768 643.3471999999999 768 608C768 572.6528000000001 796.65376 544 832 544zM704 640L160 640C142.3264 640 128 625.6736000000001 128 608C128 590.3263999999999 142.3264 576 160 576L704 576C721.67296 576 736 590.3263999999999 736 608C736 625.6736000000001 721.67296 640 704 640zM832 736C867.34624 736 896 764.6537599999999 896 800C896 835.34624 867.34624 864 832 864C796.65376 864 768 835.34624 768 800C768 764.6537599999999 796.65376 736 832 736zM704 832L160 832C142.3264 832 128 817.67296 128 800C128 782.32672 142.3264 768 160 768L704 768C721.67296 768 736 782.32704 736 800C736 817.67296 721.67296 832 704 832zM832 160C867.34624 160 896 188.6528 896 224C896 259.3472000000001 867.34624 288 832 288C796.65376 288 768 259.3472000000001 768 224C768 188.6528 796.65376 160 832 160zM704 256L160 256C142.3264 256 128 241.6736 128 224C128 206.3264 142.3264 192 160 192L704 192C721.67296 192 736 206.3264 736 224C736 241.6736 721.67296 256 704 256z" />
    <glyph glyph-name="contact"
      unicode="&#xE0B5;"
      horiz-adv-x="1024" d="M768 800C785.6736 800 800 785.67296 800 768V224C800 206.3264 785.6736 192 768 192H224C206.32704 192 192 206.3264 192 224V352C209.67296 352 224 366.3264000000001 224 384C224 401.6736 209.67296 416 192 416V608C209.67296 608 224 622.3263999999999 224 640C224 657.6736000000001 209.67296 672 192 672V768C192 785.67296 206.32704 800 224 800H768zM128 416C110.32704 416 96 401.6736 96 384C96 366.3264000000001 110.32704 352 128 352V224C128 170.9792 170.9808 128 224 128H768C821.0208 128 864 170.9792 864 224V768C864 821.0192 821.0208 864 768 864H224C170.9808 864 128 821.0192 128 768V672C110.32704 672 96 657.6736000000001 96 640C96 622.3263999999999 110.32704 608 128 608V416zM425.2064 509.7344000000001C388.6336 499.9392 363.2 466.7968 363.2 428.9344V398.4096C363.2 366.5984 388.9888000000001 340.8096000000001 420.8 340.8096000000001H601.536C633.3504 340.8096000000001 659.136 366.5984 659.136 398.4096V422.7456C659.136 464.4384 630.24 500.5472 589.8144 510.0223999999999C575.4592 513.3888 560.416 513.1744 546.1312 509.3472L523.9456 503.4048C515.2832 501.0848 506.1856 500.944 497.456 502.9888L465.936 510.3776C452.512 513.5232 438.5216 513.3024 425.2064 509.7344000000001zM454.2528 460.528L485.7728 453.1392C502.7168 449.168 520.3808 449.4464000000001 537.1936 453.9488L559.3792 459.8912C565.4688 461.5232 571.9456 461.6224 578.1312 460.1728000000001C595.5744 456.0864 607.936 440.496 607.936 422.7456V398.4096C607.936 394.8736 605.072 392.0096 601.536 392.0096H420.8C417.264 392.0096 414.4 394.8736 414.4 398.4096V428.9344C414.4 443.6224 424.2656 456.48 438.4512 460.2784C443.6192 461.6608 449.0464 461.7472 454.2528 460.528zM536.448 603.52C536.448 617.4816000000001 525.1296 628.8 511.168 628.8C497.2064 628.8 485.888 617.4816000000001 485.888 603.52C485.888 589.5584 497.2064 578.24 511.168 578.24C525.1296 578.24 536.448 589.5584 536.448 603.52zM587.648 603.52C587.648 561.28 553.408 527.04 511.168 527.04C468.9312 527.04 434.688 561.28 434.688 603.52C434.688 645.76 468.9312 680 511.168 680C553.408 680 587.648 645.76 587.648 603.52z" />
    <glyph glyph-name="copy"
      unicode="&#xE01D;"
      horiz-adv-x="1024" d="M464 752C428.6528 752 400 723.3462400000001 400 688V208C400 172.6528 428.6528 144 464 144H816C851.3472 144 880 172.6528 880 208V512C880 518.5088000000001 878.016 524.864 874.3104 530.2144000000001L739.8528 724.42944C727.9008 741.69664 708.2336 752 687.232 752H640H464zM464 688H608V544C608 508.6528 636.6528 480 672 480H816V208H464V688zM672 544V688H687.232L786.9248 544H672zM144 816V336C144 300.6528 172.65376 272 208 272H320H336V336H320H208V816H336H449.8432H536.3392L497.2 859.0512C485.072 872.39328 467.8752 880 449.8432 880H208C172.65376 880 144 851.34624 144 816z" />
    <glyph glyph-name="cross"
      unicode="&#xE01E;"
      horiz-adv-x="1024" d="M806.6272 761.37248C819.1232 773.8694399999999 819.1232 794.1305600000001 806.6272 806.62752C794.1312 819.12416 773.8688 819.12416 761.3728 806.62752L512 557.2544L262.62752 806.62752C250.13056 819.12416 229.86944 819.12416 217.37248 806.62752C204.87584 794.1305600000001 204.87584 773.8694399999999 217.37248 761.37248L466.7456 512L217.37248 262.6272C204.87584 250.1312000000001 204.87584 229.8688 217.37248 217.3728C229.86944 204.8768 250.13056 204.8768 262.62752 217.3728L512 466.7456L761.3728 217.3728C773.8688 204.8768 794.1312 204.8768 806.6272 217.3728C819.1232 229.8688 819.1232 250.1312000000001 806.6272 262.6272L557.2544 512L806.6272 761.37248z" />
    <glyph glyph-name="cube"
      unicode="&#xE01F;"
      horiz-adv-x="1024" d="M498.6944 882.4352C507.1456 886.2976 516.8544 886.2976 525.3056 882.4352L823.9712 745.90176C835.36 740.6950400000001 842.6656 729.32224 842.6656 716.79872V329.9552C842.6656 318.1376 836.1536 307.28 825.7248 301.7184L527.0592 142.4288C517.648 137.4112 506.352 137.4112 496.9408 142.4288L198.27456 301.7184C187.84672 307.28 181.33344 318.1376 181.33344 329.9552V716.79872C181.33344 729.32224 188.63904 740.6950400000001 200.02912 745.90176L498.6944 882.4352zM245.33344 666.9856V349.1552000000001L480 224V559.7088L245.33344 666.9856zM544 224L778.6656 349.1552000000001V666.9856L544 559.7088V224zM512 615.4495999999999L733.6992 716.79872L512 818.14688L290.3008 716.79872L512 615.4495999999999z" />
    <glyph glyph-name="customize"
      unicode="&#xE020;"
      horiz-adv-x="1024" d="M421.3344 768C421.3344 812.18272 385.5168 848 341.3344 848C297.15136 848 261.33408 812.18272 261.33408 768C261.33408 723.81728 297.15136 688 341.3344 688C385.5168 688 421.3344 723.81728 421.3344 768zM465.3024 736C451.0912 680.7936 400.976 640 341.3344 640C281.6912 640 231.576 680.7936 217.3664 736H128C110.32704 736 96 750.32704 96 768C96 785.67296 110.32704 800 128 800H217.3664C231.576 855.20736 281.6912 896 341.3344 896C400.976 896 451.0912 855.20736 465.3024 800L896 800C913.6736 800 928 785.67328 928 768C928 750.32704 913.6736 736 896 736L465.3024 736zM96 256C96 273.6736 110.32704 288 128 288H217.3664C231.576 343.2064000000001 281.6912 384 341.3344 384C402.1152 384 453.0048 341.6352000000001 466.0768 284.8192C470.2848 286.8576000000001 475.008 288 480 288H896C913.6736 288 928 273.6736 928 256C928 238.3264000000001 913.6736 224 896 224H480C475.008 224 470.2848 225.1424 466.0768 227.1808C453.0048 170.3648 402.1152 128 341.3344 128C281.6912 128 231.576 168.7936 217.3664 224H128C110.32704 224 96 238.3264000000001 96 256zM341.3344 176C385.5168 176 421.3344 211.8176 421.3344 256C421.3344 300.1824000000001 385.5168 336 341.3344 336C297.15136 336 261.33408 300.1824000000001 261.33408 256C261.33408 211.8176 297.15136 176 341.3344 176zM796.0288 480.2432C781.904 424.9120000000001 731.7312 384 672 384C612.2688 384 562.096 424.9120000000001 547.9712 480.2432C546.6688 480.0832 545.344 480 544 480H128C110.32704 480 96 494.3264 96 512C96 529.6736000000001 110.32704 544 128 544H544C545.344 544 546.6688 543.9168 547.9712 543.7568C562.096 599.088 612.2688 640 672 640C731.7312 640 781.904 599.088 796.0288 543.7568C797.3312 543.9168 798.656 544 800 544H896C913.6736 544 928 529.6736000000001 928 512C928 494.3264 913.6736 480 896 480H800C798.656 480 797.3312 480.0832 796.0288 480.2432zM752 512C752 556.1823999999999 716.1824 592 672 592C627.8176 592 592 556.1823999999999 592 512C592 467.8176 627.8176 432 672 432C716.1824 432 752 467.8176 752 512z" />
    <glyph glyph-name="desktop"
      unicode="&#xE096;"
      horiz-adv-x="1024" d="M341.3344 245.328H682.6688C700.3392 245.328 714.6688 231.0016000000001 714.6688 213.328C714.6688 195.6544 700.3392 181.328 682.6688 181.328H341.3344C323.6608 181.328 309.33408 195.6544 309.33408 213.328C309.33408 231.0016000000001 323.6608 245.328 341.3344 245.328zM85.33408 725.328C85.33408 796.02048 142.6416 853.328 213.33408 853.328H810.6688C881.36 853.328 938.6688 796.02048 938.6688 725.328V426.6624000000001C938.6688 355.968 881.36 298.6624000000001 810.6688 298.6624000000001H213.33376C142.64128 298.6624000000001 85.33408 355.968 85.33408 426.6624000000001V725.328zM213.33408 789.328C177.98784 789.328 149.33408 760.67424 149.33408 725.328V426.6624000000001C149.33408 391.3152 177.98784 362.6624000000001 213.33376 362.6624000000001H810.6688C846.0128 362.6624000000001 874.6688 391.3152 874.6688 426.6624000000001V725.328C874.6688 760.6745599999999 846.0128 789.328 810.6688 789.328H213.33408z" />
    <glyph glyph-name="dialpad"
      unicode="&#xE021;"
      horiz-adv-x="1024" d="M384 832V768C384 750.32704 369.6736 736 352 736H288C270.32704 736 256 750.32704 256 768V832C256 849.67296 270.32704 864 288 864H352C369.6736 864 384 849.67296 384 832zM384 448V384C384 366.3264000000001 369.6736 352 352 352H288C270.32704 352 256 366.3264000000001 256 384V448C256 465.6736 270.32704 480 288 480H352C369.6736 480 384 465.6736 384 448zM448 832C448 849.67296 462.3264 864 480 864H544C561.6736 864 576 849.67296 576 832V768C576 750.32704 561.6736 736 544 736H480C462.3264 736 448 750.32704 448 768V832zM576 640V576C576 558.3263999999999 561.6736 544 544 544H480C462.3264 544 448 558.3263999999999 448 576V640C448 657.6736000000001 462.3264 672 480 672H544C561.6736 672 576 657.6736000000001 576 640zM448 448C448 465.6736 462.3264 480 480 480H544C561.6736 480 576 465.6736 576 448V384C576 366.3264000000001 561.6736 352 544 352H480C462.3264 352 448 366.3264000000001 448 384V448zM576 256V192C576 174.3264 561.6736 160 544 160H480C462.3264 160 448 174.3264 448 192V256C448 273.6736 462.3264 288 480 288H544C561.6736 288 576 273.6736 576 256zM640 832C640 849.67296 654.3264 864 672 864H736C753.6736 864 768 849.67296 768 832V768C768 750.32704 753.6736 736 736 736H672C654.3264 736 640 750.32704 640 768V832zM768 640V576C768 558.3263999999999 753.6736 544 736 544H672C654.3264 544 640 558.3263999999999 640 576V640C640 657.6736000000001 654.3264 672 672 672H736C753.6736 672 768 657.6736000000001 768 640zM640 448C640 465.6736 654.3264 480 672 480H736C753.6736 480 768 465.6736 768 448V384C768 366.3264000000001 753.6736 352 736 352H672C654.3264 352 640 366.3264000000001 640 384V448zM384 640V576C384 558.3263999999999 369.6736 544 352 544H288C270.32704 544 256 558.3263999999999 256 576V640C256 657.6736000000001 270.32704 672 288 672H352C369.6736 672 384 657.6736000000001 384 640z" />
    <glyph glyph-name="doc"
      unicode="&#xE097;"
      horiz-adv-x="1024" d="M160 768C160 785.67296 174.32704 800 192 800H832C849.6736 800 864 785.67296 864 768C864 750.32704 849.6736 736 832 736H192C174.32704 736 160 750.32704 160 768zM160 602.8384C160 620.512 174.32704 634.8384 192 634.8384H832C849.6736 634.8384 864 620.512 864 602.8384C864 585.1648 849.6736 570.8384 832 570.8384H192C174.32704 570.8384 160 585.1648 160 602.8384zM160 421.1616C160 438.8352 174.32704 453.1616 192 453.1616H832C849.6736 453.1616 864 438.8352 864 421.1616C864 403.4880000000001 849.6736 389.1616 832 389.1616H192C174.32704 389.1616 160 403.4880000000001 160 421.1616zM160 256C160 273.6736 174.32704 288 192 288H536.6144C554.288 288 568.6144 273.6736 568.6144 256C568.6144 238.3264000000001 554.288 224 536.6144 224H192C174.32704 224 160 238.3264000000001 160 256z" />
    <glyph glyph-name="document-eye"
      unicode="&#xE0BC;"
      horiz-adv-x="1024" d="M416 896C380.6528 896 352 867.34656 352 832V605.3632C372.7744 608.1856 394.1344000000001 608.8192 416 606.8896V832H592V651.2927999999999C592 615.9488 620.6528 587.2927999999999 656 587.2927999999999H832V256H711.4432C694.288 233.8208 675.1232 212.1312 654.1376 192H832C867.3472 192 896 220.6528 896 256V619.2927999999999C896 625.7056 894.0736 631.9680000000001 890.4768 637.2704L733.8432 867.95168C721.9296 885.49568 702.0992 896 680.8928 896H624H416zM656 651.2927999999999V832H680.8928L803.5936 651.2927999999999H656zM165.2336 355.456C285.75744 199.312 383.4752 180.8704 450.368 196.7168C523.6576 214.0736000000001 589.6 278.3648 633.8304 348.4768000000001C518.6752 504.3456 422.2496 523.0656 354.6816 507.3920000000001C280.3216 490.144 211.97664 425.7088 165.2336 355.456zM101.72256 374.9632000000001C202.34336 537.7632 439.344 732.15296 694.9728 373.1712C704.0448 360.432 705.296 343.3568 697.4016 329.856C602.128 167.0048000000001 371.0048 -28.4864 104.16288 330.0800000000001C94.41856 343.1776 93.14112 361.0784 101.72256 374.9632000000001zM398.96 288.0064C367.4464 288.0064 338.6912 314.8640000000001 338.6912 352.0064C338.6912 389.1520000000001 367.4464 416.0064 398.96 416.0064C430.4736 416.0064 459.2288 389.1520000000001 459.2288 352.0064C459.2288 314.8640000000001 430.4736 288.0064 398.96 288.0064zM398.96 224.0064C467.5904 224.0064 523.2288 281.312 523.2288 352.0064C523.2288 422.7008 467.5904 480.0064 398.96 480.0064C330.3296000000001 480.0064 274.69216 422.7008 274.69216 352.0064C274.69216 281.312 330.3296000000001 224.0064 398.96 224.0064z" />
    <glyph glyph-name="doner"
      unicode="&#xE086;"
      horiz-adv-x="1024" d="M128 672C128 689.6736000000001 142.32704 704 160 704H864C881.6736 704 896 689.6736000000001 896 672C896 654.3263999999999 881.6736 640 864 640L160 640C142.32704 640 128 654.3263999999999 128 672zM213.33344 501.3344C213.33344 519.008 227.66016 533.3344 245.33344 533.3344L778.6656 533.3344C796.3392 533.3344 810.6656 519.0047999999999 810.6656 501.3344C810.6656 483.6608 796.3392 469.3344 778.6656 469.3344L245.33344 469.3344C227.66016 469.3344 213.33344 483.6608 213.33344 501.3344zM330.6656 362.6656000000001L693.3344 362.6656000000001C711.008 362.6656000000001 725.3344 348.3392 725.3344 330.6656000000001C725.3344 312.992 711.008 298.6656000000001 693.3344 298.6656000000001L330.6656 298.6656000000001C312.9936 298.6656000000001 298.66656 312.992 298.66656 330.6656000000001C298.66656 348.3392 312.9936 362.6656000000001 330.6656 362.6656000000001z" />
    <glyph glyph-name="emoji"
      unicode="&#xE028;"
      horiz-adv-x="1024" d="M864 512C864 317.5968000000001 706.4032 160 512 160C317.59584 160 160 317.5968000000001 160 512C160 706.40416 317.59584 864 512 864C706.4032 864 864 706.40416 864 512zM928 512C928 741.7504 741.7504 928 512 928C282.2496 928 96 741.7504 96 512C96 282.2496 282.2496 96 512 96C741.7504 96 928 282.2496 928 512zM330.0736 379.1136C357.8656 353.8336000000001 386.3072 335.456 415.0976 323.1808C464.912 301.9424 513.7888 299.8400000000001 558.5824 309.5744C610.3136 320.8160000000001 656.192 347.664 693.104 378.4064C716.3232 397.7440000000001 700.9248 432 670.7072 432C662.096 432 653.8272 428.832 647.1008 423.456C617.6512 399.9232 582.624 380.2912 544.992 372.1152C512.0032 364.9472 476.7616 366.4640000000001 440.1984 382.0544C420.1376 390.6048 399.1008 403.6448000000001 377.4976 422.5632000000001C370.752 428.4704000000001 362.1888 432 353.2256 432C324.064 432 308.50208 398.7328 330.0736 379.1136zM400.1664 544C435.5136 544 464.1664 572.6528000000001 464.1664 608C464.1664 643.3471999999999 435.5136 672 400.1664 672C364.8224 672 336.1664 643.3471999999999 336.1664 608C336.1664 572.6528000000001 364.8224 544 400.1664 544zM624.1664 544C659.5136 544 688.1664 572.6528000000001 688.1664 608C688.1664 643.3471999999999 659.5136 672 624.1664 672C588.8224 672 560.1664 643.3471999999999 560.1664 608C560.1664 572.6528000000001 588.8224 544 624.1664 544z" />
    <glyph glyph-name="emoji-plus"
      unicode="&#xE0AA;"
      horiz-adv-x="1024" d="M800 480C800 303.2704 656.7296 160 480 160C303.2688 160 160 303.2704 160 480C160 656.7296 303.2688 800 480 800V864C267.92256 864 96 692.0768 96 480C96 267.9232 267.92256 96 480 96C692.0768 96 864 267.9232 864 480C864 490.7776 863.5552 501.4496 862.6848 512H798.4192C799.4656 501.4752 800 490.8 800 480zM800 912C800 929.67296 785.6736 944 768 944C750.3264 944 736 929.67296 736 912V800H624C606.3264 800 592 785.67296 592 768C592 750.32704 606.3264 736 624 736H736V624C736 606.3263999999999 750.3264 592 768 592C785.6736 592 800 606.3263999999999 800 624V736H912C929.6736 736 944 750.32704 944 768C944 785.67328 929.6736 800 912 800H800V912zM384 512C419.3472 512 448 540.6528000000001 448 576C448 611.3471999999999 419.3472 640 384 640C348.6528 640 320 611.3471999999999 320 576C320 540.6528000000001 348.6528 512 384 512zM640 576C640 540.6528000000001 611.3472 512 576 512C540.6528 512 512 540.6528000000001 512 576C512 611.3471999999999 540.6528 640 576 640C611.3472 640 640 611.3471999999999 640 576zM329.8048 434.9248C319.3536 449.1744 299.328 452.256 285.07648 441.8048C270.82464 431.3536000000001 267.74368 411.328 278.19488 397.0752C315.85312 345.7248 355.9488 312.4512 397.3728 294.4128C439.1136 276.2336 480.1696 274.4224000000001 517.7344 282.7616000000001C591.2032 299.0688 649.9456 353.632 681.8048 397.0752C692.256 411.328 689.1744 431.3536000000001 674.9248 441.8048C660.672 452.256 640.6464 449.1744 630.1952 434.9248C603.3856 398.3680000000001 556.5312 356.9312 503.8656 345.2384C478.3648 339.5776 451.2224 340.7648000000001 422.928 353.088C394.32 365.5488000000001 362.5472 390.2752000000001 329.8048 434.9248z" />
    <glyph glyph-name="eraser"
      unicode="&#xE029;"
      horiz-adv-x="1024" d="M321.6256 593.12L546.1152 368.6272L419.9968 242.5088L195.5056 466.9983999999999L321.6256 593.12zM366.88 638.3743999999999L558.9952 830.4896L783.488 606L591.3696 413.8848000000001L366.88 638.3743999999999zM581.6224 898.37152C569.1264 910.86848 548.864 910.86848 536.368 898.37152L127.62336 489.6256C115.12672 477.1296 115.12672 456.8672 127.62336 444.3712000000001L397.3696 174.6272C402.5984000000001 169.3952000000001 409.1872 166.3552 416 165.504V165.4368L416.5728 165.4368C418.848 165.1936 421.1456 165.1936 423.4208 165.4368L864 165.4368C881.6736 165.4368 896 179.7632 896 197.4368C896 215.1104 881.6736 229.4368 864 229.4368H497.4336L851.3696 583.3728C863.8656 595.8688 863.8656 616.1312 851.3696 628.6272L581.6224 898.37152z" />
    <glyph glyph-name="exit"
      unicode="&#xF3C;"
      horiz-adv-x="1024" d="M176 928H688C705.6736 928 720 913.67296 720 896V800C720 782.32704 705.6736 768 688 768C670.3264 768 656 782.32704 656 800V864H208V160H656V224C656 241.6736 670.3264 256 688 256C705.6736 256 720 241.6736 720 224V128C720 110.3264 705.6736 96 688 96H176C158.32704 96 144 110.3264 144 128V896C144 913.67296 158.32704 928 176 928zM902.6272 534.6272C915.1232 522.1312 915.1232 501.8688 902.6272 489.3728L742.6272 329.3728C730.1312 316.8768 709.8688 316.8768 697.3728 329.3728C684.8768 341.8688 684.8768 362.1312000000001 697.3728 374.6272L802.7456 480H384C366.3264 480 352 494.3264 352 512C352 529.6736000000001 366.3264 544 384 544H802.7456L697.3728 649.3728C684.8768 661.8688 684.8768 682.1312 697.3728 694.6272C709.8688 707.1241600000001 730.1312 707.1241600000001 742.6272 694.6272L902.6272 534.6272z" />
    <glyph glyph-name="exit-mirror"
      unicode="&#xF3D;"
      horiz-adv-x="1024" d="M848 928H336C318.3264000000001 928 304 913.67296 304 896V800C304 782.32704 318.3264000000001 768 336 768C353.6736 768 368 782.32704 368 800V864H816V160H368V224C368 241.6736 353.6736 256 336 256C318.3264000000001 256 304 241.6736 304 224V128C304 110.3264 318.3264000000001 96 336 96H848C865.67296 96 880 110.3264 880 128V896C880 913.67296 865.67296 928 848 928zM121.3728 534.6272C108.8768 522.1312 108.8768 501.8688 121.3728 489.3728L281.3728 329.3728C293.8688 316.8768 314.1312000000001 316.8768 326.6272 329.3728C339.1232 341.8688 339.1232 362.1312000000001 326.6272 374.6272L221.2544 480H640C657.6736000000001 480 672 494.3264 672 512C672 529.6736000000001 657.6736000000001 544 640 544H221.2544L326.6272 649.3728C339.1232 661.8688 339.1232 682.1312 326.6272 694.6272C314.1312000000001 707.1241600000001 293.8688 707.1241600000001 281.3728 694.6272L121.3728 534.6272z" />
    <glyph glyph-name="extended-view"
      unicode="&#x2983;"
      horiz-adv-x="1024" d="M288 832C288 849.67296 302.32704 864 320 864H864C881.6736 864 896 849.67296 896 832C896 814.32672 881.6736 800 864 800L320 800C302.32704 800 288 814.32704 288 832zM288 736C288 753.67296 302.32704 768 320 768L768 768C785.6736 768 800 753.67296 800 736C800 718.32672 785.6736 704 768 704L320 704C302.32704 704 288 718.32704 288 736zM192 720C156.65376 720 128 748.6537599999999 128 784C128 819.34624 156.65376 848 192 848C227.34624 848 256 819.34624 256 784C256 748.6537599999999 227.34624 720 192 720zM288 560C288 577.6736000000001 302.32704 592 320 592H864C881.6736 592 896 577.6736000000001 896 560C896 542.3263999999999 881.6736 528 864 528L320 528C302.32704 528 288 542.3263999999999 288 560zM288 464C288 481.6736 302.32704 496 320 496L768 496C785.6736 496 800 481.6736 800 464C800 446.3264000000001 785.6736 432 768 432L320 432C302.32704 432 288 446.3264000000001 288 464zM192 448C156.65376 448 128 476.6528 128 512C128 547.3471999999999 156.65376 576 192 576C227.34624 576 256 547.3471999999999 256 512C256 476.6528 227.34624 448 192 448zM288 288C288 305.6736 302.32704 320 320 320H864C881.6736 320 896 305.6736 896 288C896 270.3264000000001 881.6736 256 864 256L320 256C302.32704 256 288 270.3264000000001 288 288zM288 192C288 209.6736 302.32704 224 320 224L768 224C785.6736 224 800 209.6736 800 192C800 174.3264 785.6736 160 768 160L320 160C302.32704 160 288 174.3264 288 192zM192 176C156.65376 176 128 204.6528 128 240C128 275.3472000000001 156.65376 304 192 304C227.34624 304 256 275.3472000000001 256 240C256 204.6528 227.34624 176 192 176z" />
    <glyph glyph-name="extended-view-mirror"
      unicode="&#x2984;"
      horiz-adv-x="1024" d="M736 832C736 849.67296 721.67296 864 704 864H160C142.3264 864 128 849.67296 128 832C128 814.32672 142.3264 800 160 800L704 800C721.67296 800 736 814.32704 736 832zM736 736C736 753.67296 721.67296 768 704 768L256 768C238.3264000000001 768 224 753.67296 224 736C224 718.32672 238.3264000000001 704 256 704L704 704C721.67296 704 736 718.32704 736 736zM832 720C867.34624 720 896 748.6537599999999 896 784C896 819.34624 867.34624 848 832 848C796.65376 848 768 819.34624 768 784C768 748.6537599999999 796.65376 720 832 720zM736 560C736 577.6736000000001 721.67296 592 704 592H160C142.3264 592 128 577.6736000000001 128 560C128 542.3263999999999 142.3264 528 160 528L704 528C721.67296 528 736 542.3263999999999 736 560zM736 464C736 481.6736 721.67296 496 704 496L256 496C238.3264000000001 496 224 481.6736 224 464C224 446.3264000000001 238.3264000000001 432 256 432L704 432C721.67296 432 736 446.3264000000001 736 464zM832 448C867.34624 448 896 476.6528 896 512C896 547.3471999999999 867.34624 576 832 576C796.65376 576 768 547.3471999999999 768 512C768 476.6528 796.65376 448 832 448zM736 288C736 305.6736 721.67296 320 704 320H160C142.3264 320 128 305.6736 128 288C128 270.3264000000001 142.3264 256 160 256L704 256C721.67296 256 736 270.3264000000001 736 288zM736 192C736 209.6736 721.67296 224 704 224L256 224C238.3264000000001 224 224 209.6736 224 192C224 174.3264 238.3264000000001 160 256 160L704 160C721.67296 160 736 174.3264 736 192zM832 176C867.34624 176 896 204.6528 896 240C896 275.3472000000001 867.34624 304 832 304C796.65376 304 768 275.3472000000001 768 240C768 204.6528 796.65376 176 832 176z" />
    <glyph glyph-name="eye"
      unicode="&#xE02A;"
      horiz-adv-x="1024" d="M592.2304 285.168C705.1584 312.7456 801.7984 410.2272000000001 862.5984 508.2368C781.0016 618.0704000000001 704.1888 681.6288 635.664 714.96032C564.816 749.42048 499.984 753.04192 441.264 738.91648C326.96 711.42176 226.82976 613.8368 162.56032 515.6864C336.7072 291.2288 484.3968 258.8352 592.2304 285.168zM927.1104 528.3872C934.1152 518.608 935.1808 505.3632 929.1872 494.9312C802.144 273.808 475.28 -9.1424 97.83616 495.0336C90.3152 505.0816 89.22336 518.976 95.7392 529.7024C230.07136 750.81664 565.7664 1032.864704 927.1104 528.3872zM618.6688 511.9968C618.6688 570.9087999999999 570.912 618.6623999999999 512 618.6623999999999C453.0912 618.6623999999999 405.3344 570.9087999999999 405.3344 511.9968C405.3344 453.088 453.0912 405.3312 512 405.3312C570.912 405.3312 618.6688 453.088 618.6688 511.9968zM682.6688 511.9968C682.6688 417.7408000000001 606.256 341.3312 512 341.3312C417.7440000000001 341.3312 341.3344 417.7408000000001 341.3344 511.9968C341.3344 606.2528 417.7440000000001 682.6623999999999 512 682.6623999999999C606.256 682.6623999999999 682.6688 606.2528 682.6688 511.9968z" />
    <glyph glyph-name="eye-off"
      unicode="&#xE02B;"
      horiz-adv-x="1024" d="M153.00032 871.00256C165.49728 883.4992 185.7584 883.4992 198.25536 871.00256L871.5008 197.7568C883.9968 185.2608 883.9968 164.9984 871.5008 152.5024C859.0048 140.0032 838.7424 140.0032 826.2464 152.5024L153.00032 825.74752C140.50368 838.2444800000001 140.50368 858.5056 153.00032 871.00256zM95.73824 529.7024C130.19712 586.4223999999999 177.90656 647.152 235.89984 697.5871999999999L281.28 652.2080000000001C234.71264 612.4064000000001 194.2704 564.1152 162.55936 515.6864C336.7072 291.2288 484.3968 258.8352 592.2272 285.168C606.6048 288.6784 620.72 293.3248 634.528 298.9568000000001L682.9568 250.5312C526.0608 174.0544 320.7712 197.2448000000001 97.8352 495.0336C90.31392 505.0816 89.2224 518.976 95.73824 529.7024zM341.3344 511.9968C341.3344 535.6448 346.144 558.1728 354.8384 578.6496L406.3936 527.0944C405.6928 522.1632 405.3344 517.1232 405.3344 511.9968C405.3344 453.088 453.088 405.3312 512 405.3312C517.1232 405.3312 522.1632 405.6928000000001 527.0976 406.3904L578.6528 354.8352C558.1728 346.1408 535.648 341.3312 512 341.3312C417.7440000000001 341.3312 341.3344 417.7408000000001 341.3344 511.9968zM445.3472 669.1584C465.824 677.8528 488.352 682.6656 512 682.6656C606.256 682.6656 682.6656 606.2528 682.6656 511.9968C682.6656 488.3488 677.856 465.824 669.1616 445.3472000000001L617.6064 496.8992C618.304 501.8336 618.6656 506.8736 618.6656 511.9968C618.6656 570.9087999999999 570.9088 618.6656 512 618.6656C506.8736 618.6656 501.8336 618.304 496.9024 617.6032L445.3472 669.1584zM862.5952 508.2368C781.0016 618.0704000000001 704.1888 681.6288 635.664 714.96032C564.816 749.42048 499.984 753.04192 441.2608 738.91648C424.5088 734.8864 408.0576 729.3500799999999 391.9808 722.5267200000001L343.7536 770.75392C503.9424 850.4944 710.9376 830.1888 927.1104 528.3872C934.1152 518.608 935.1808 505.3632 929.1872 494.9312C895.9008 436.9952 848.8928 374.8096000000001 790.8544 323.6544L745.4944 369.0144C791.9968 409.3184 831.872 458.7104 862.5952 508.2368z" />
    <glyph glyph-name="file"
      unicode="&#x2995;"
      horiz-adv-x="1024" d="M373.3344 576C373.3344 593.6736000000001 387.6608 608 405.3344 608H618.6656C636.3392 608 650.6656 593.6736000000001 650.6656 576C650.6656 558.3263999999999 636.3392 544 618.6656 544H405.3344C387.6608 544 373.3344 558.3263999999999 373.3344 576zM405.3344 480H618.6656C636.3392 480 650.6656 465.6736 650.6656 448C650.6656 430.3264000000001 636.3392 416 618.6656 416H405.3344C387.6608 416 373.3344 430.3264000000001 373.3344 448C373.3344 465.6736 387.6608 480 405.3344 480zM256 896H623.5328C633.8656 896 643.5648 891.00896 649.5712 882.59968L794.0384 680.3456C797.9168 674.9184 800 668.4159999999999 800 661.744V160C800 142.3264 785.6736 128 768 128H256C238.32704 128 224 142.3264 224 160V864C224 881.67296 238.32704 896 256 896zM736 651.4911999999999L607.0656 832H288V192H736V651.4911999999999z" />
    </font>
</defs>
</svg>
