<svg xmlns="http://www.w3.org/2000/svg" viewBox="0 0 24 24"><defs><style>.cls-1{fill:none;}</style></defs><title>Discussion</title><g id="Layer_2" data-name="Layer 2"><g id="Elements_2" data-name="Elements 2"><path d="M23.77,10.12v.06a2.74,2.74,0,0,1-.86,1.93l-.6.57a1,1,0,0,0-.31.71v1.46a3.4,3.4,0,0,1-3.39,3.37l-9.48,0a3.4,3.4,0,0,1-3.38-3.38h0l0-9.35A3.38,3.38,0,0,1,9.16,2.09l9.49,0A3.38,3.38,0,0,1,22,5.5V6.79a1,1,0,0,0,.27.69l.7.73A2.74,2.74,0,0,1,23.77,10.12ZM7.36,14.82a1.78,1.78,0,0,0,1.77,1.77l9.48,0a1.78,1.78,0,0,0,1.78-1.77V13.39a2.65,2.65,0,0,1,.81-1.88l.6-.57a1.11,1.11,0,0,0,.36-.8,1.17,1.17,0,0,0-.32-.81l-.7-.73a2.56,2.56,0,0,1-.73-1.81V5.49a1.77,1.77,0,0,0-1.77-1.77l-9.48,0A1.76,1.76,0,0,0,7.38,5.46l0,9.35Z"/><path d="M18.06,10.81h0l-8.36,0a.65.65,0,1,1,0-1.29h0l8.37,0a.65.65,0,1,1,0,1.29Z"/><path d="M18.07,7.59h0l-8.37,0a.65.65,0,0,1,0-1.29h0l8.36,0a.65.65,0,0,1,0,1.29Z"/><path d="M18.06,14h0L9.69,14a.64.64,0,0,1-.64-.64.64.64,0,0,1,.64-.64h0l8.37,0a.64.64,0,0,1,0,1.28Z"/><path d="M18.26,18.53a3.32,3.32,0,0,1-1,2.38,3.36,3.36,0,0,1-2.4,1l-9.48,0A3.39,3.39,0,0,1,2,18.49v-1.3a1,1,0,0,0-.28-.68L1,15.78a2.73,2.73,0,0,1-.77-1.91v-.06a2.71,2.71,0,0,1,.85-1.93l.6-.57A1,1,0,0,0,2,10.59V9.14A3.32,3.32,0,0,1,3,6.76a3.36,3.36,0,0,1,2.4-1V7.38a1.73,1.73,0,0,0-1.25.52,1.71,1.71,0,0,0-.52,1.24V10.6a2.57,2.57,0,0,1-.81,1.87l-.6.58a1.1,1.1,0,0,0-.35.8,1.08,1.08,0,0,0,.32.81l.69.72a2.55,2.55,0,0,1,.74,1.82v1.29a1.78,1.78,0,0,0,1.77,1.78l9.49,0a1.73,1.73,0,0,0,1.25-.52,1.71,1.71,0,0,0,.52-1.24Z"/><rect class="cls-1" width="24" height="24"/></g></g></svg>