<svg xmlns="http://www.w3.org/2000/svg" viewBox="0 0 24 24"><defs><style>.cls-1{fill:none;}</style></defs><title>Circle_Arrow</title><g id="Layer_2" data-name="Layer 2"><g id="Elements_2" data-name="Elements 2"><path d="M12,23.75A11.75,11.75,0,1,1,23.75,12,11.76,11.76,0,0,1,12,23.75ZM12,2.39A9.61,9.61,0,1,0,21.61,12,9.62,9.62,0,0,0,12,2.39Z"/><rect class="cls-1" width="24" height="24"/><path d="M17.78,11a1.11,1.11,0,0,0-1.56,0l-3.12,3V7.05a1.1,1.1,0,0,0-2.2,0V13.9L7.82,11A1.1,1.1,0,1,0,6.3,12.56l4.94,4.71a1.09,1.09,0,0,0,.23.14.5.5,0,0,0,.12.08,1.15,1.15,0,0,0,.41.08,1.25,1.25,0,0,0,.42-.08h0a.77.77,0,0,0,.3-.19l0,0,5-4.71A1.1,1.1,0,0,0,17.78,11Z"/></g></g></svg>