<svg xmlns="http://www.w3.org/2000/svg" viewBox="0 0 24 24"><defs><style>.cls-1{fill:none;}</style></defs><title>Hashtag</title><g id="Layer_2" data-name="Layer 2"><g id="Elements_2" data-name="Elements 2"><path d="M23.75,7.59h0a1.48,1.48,0,0,0-1.47-1.47h-4.4V1.72A1.48,1.48,0,0,0,16.41.25h0a1.47,1.47,0,0,0-1.47,1.47v4.4H9.06V1.72A1.47,1.47,0,0,0,7.59.25h0A1.48,1.48,0,0,0,6.12,1.72v4.4H1.72A1.48,1.48,0,0,0,.25,7.59h0A1.47,1.47,0,0,0,1.72,9.06h4.4v5.88H1.72A1.47,1.47,0,0,0,.25,16.41h0a1.48,1.48,0,0,0,1.47,1.47h4.4v4.4a1.48,1.48,0,0,0,1.47,1.47h0a1.47,1.47,0,0,0,1.47-1.47v-4.4h5.88v4.4a1.47,1.47,0,0,0,1.47,1.47h0a1.48,1.48,0,0,0,1.47-1.47v-4.4h4.4a1.48,1.48,0,0,0,1.47-1.47h0a1.47,1.47,0,0,0-1.47-1.47h-4.4V9.06h4.4A1.47,1.47,0,0,0,23.75,7.59Zm-8.81,7.35H9.06V9.06h5.88Z"/><rect class="cls-1" width="24" height="24"/></g></g></svg>