<svg xmlns="http://www.w3.org/2000/svg" viewBox="0 0 24 24"><defs><style>.cls-1{fill:none;}</style></defs><title>Info</title><g id="Layer_2" data-name="Layer 2"><g id="Elements_2" data-name="Elements 2"><path d="M12,23.75A11.75,11.75,0,1,1,23.75,12,11.76,11.76,0,0,1,12,23.75ZM12,2.43A9.57,9.57,0,1,0,21.57,12,9.58,9.58,0,0,0,12,2.43Z"/><path d="M13.31,7.45h0A1.31,1.31,0,0,0,12,6.14h0a1.31,1.31,0,0,0-1.31,1.31h0A1.31,1.31,0,0,0,12,8.75h0A1.31,1.31,0,0,0,13.31,7.45Zm0,8.81V11.69A1.31,1.31,0,0,0,12,10.38h0a1.31,1.31,0,0,0-1.31,1.31v4.57A1.31,1.31,0,0,0,12,17.56h0A1.31,1.31,0,0,0,13.31,16.26Z"/><rect class="cls-1" width="24" height="24"/></g></g></svg>