<svg xmlns="http://www.w3.org/2000/svg" viewBox="0 0 24 24"><defs><style>.cls-1{fill:none;}</style></defs><title>Thread</title><g id="Layer_2" data-name="Layer 2"><g id="Elements_2" data-name="Elements 2"><path d="M12,23.75H12a3.68,3.68,0,0,1-2.6-1.15l-.76-.8a1.34,1.34,0,0,0-1-.41H5.07a4.5,4.5,0,0,1-3.19-1.33A4.46,4.46,0,0,1,.56,16.84l0-12.07A4.52,4.52,0,0,1,5.1.25h0l13.8,0a4.49,4.49,0,0,1,3.2,1.33,4.54,4.54,0,0,1,1.32,3.21l0,12.07a4.54,4.54,0,0,1-4.54,4.52H16.5a1.34,1.34,0,0,0-.93.38l-1,.93A3.66,3.66,0,0,1,12,23.75ZM5.11,2.41a2.33,2.33,0,0,0-1.67.68,2.37,2.37,0,0,0-.7,1.68l0,12.07a2.36,2.36,0,0,0,2.37,2.38H7.66a3.5,3.5,0,0,1,2.51,1.08l.77.81a1.45,1.45,0,0,0,1.07.47,1.49,1.49,0,0,0,1.09-.43l1-.93a3.47,3.47,0,0,1,2.43-1h2.38a2.38,2.38,0,0,0,2.37-2.38l0-12.07a2.37,2.37,0,0,0-2.36-2.38l-13.8,0Z"/><path d="M17.6,11.71h0l-11.21,0a.86.86,0,1,1,0-1.72h0L17.6,10a.86.86,0,0,1,0,1.72Z"/><path d="M17.61,7.4h0l-11.21,0a.86.86,0,0,1,0-1.72h0l11.21,0a.87.87,0,0,1,0,1.73Z"/><path d="M17.59,16h0L6.38,16a.87.87,0,0,1,0-1.73h0l11.21,0a.86.86,0,0,1,0,1.72Z"/><rect class="cls-1" width="24" height="24"/></g></g></svg>